<svg width="51" height="50" viewBox="0 0 51 50" fill="none" xmlns="http://www.w3.org/2000/svg">
<mask id="mask0_1472_3051" style="mask-type:luminance" maskUnits="userSpaceOnUse" x="1" y="1" width="48" height="48">
<path d="M1.58594 1.5625H48.4609V48.4375H1.58594V1.5625Z" fill="white"/>
</mask>
<g mask="url(#mask0_1472_3051)">
<path d="M15.7931 10.7883H12.793V4.72882C12.793 3.94037 13.4322 3.30124 14.2206 3.30124H14.3654C15.1538 3.30124 15.7931 3.94037 15.7931 4.72882V10.7883Z" fill="#F6911D"/>
<path d="M28.2372 46.699H7.79297V12.6443C7.79297 11.6896 8.40262 10.8416 9.30753 10.5375L28.2372 4.17456V46.699Z" fill="#FCDAB4"/>
<path d="M26.2617 4.83786V46.699H28.235V4.17456L26.2617 4.83786Z" fill="#F9B668"/>
<path d="M42.4525 25.1493V46.699H28.2344V23.6268H40.93C41.7714 23.6268 42.4525 24.3079 42.4525 25.1493Z" fill="#F5FCFF"/>
<path d="M28.2344 46.699H46.7419C47.3121 46.699 47.7744 46.2368 47.7744 45.6666V42.4273H28.2344V46.699Z" fill="#FCDAB4"/>
<path d="M42.4521 37.2057V42.427H37.9844V41.0198C37.9844 38.9086 39.6964 37.1975 41.8076 37.1975H42.1949C42.2809 37.1975 42.367 37.2003 42.4521 37.2057Z" fill="#DDF4FE"/>
<path d="M45.8019 42.4273V45.6666C45.8019 46.2367 45.3396 46.699 44.7695 46.699H46.7428C47.313 46.699 47.7752 46.2367 47.7752 45.6666V42.4273H45.8019Z" fill="white"/>
<path d="M43.5652 37.1972H43.9529C46.0643 37.1972 47.7759 38.9089 47.7759 41.0203V42.4272H39.7422V41.0203C39.7422 38.9089 41.4539 37.1972 43.5652 37.1972Z" fill="white"/>
<path d="M3.30579 46.699H7.79096V42.4273H2.27344V45.6666C2.27344 46.2368 2.7356 46.699 3.30579 46.699Z" fill="white"/>
<path d="M5.81641 46.699H7.78973V42.4273H5.81641V46.699Z" fill="#EBEBEB"/>
<path d="M7.25116 37.1972H7.79105V42.4272H2.27344V42.1749C2.27344 39.4258 4.50211 37.1972 7.25116 37.1972Z" fill="white"/>
<path d="M28.2344 4.17438L34.6658 10.3911C35.0989 10.8098 35.3436 11.3866 35.3436 11.9891V23.6262H28.2344V4.17438Z" fill="white"/>
<path d="M34.6658 10.3911L28.2344 4.17438V6.08188L32.6924 10.3911C33.1258 10.8098 33.3704 11.3866 33.3704 11.9892V23.6262H35.3436V11.9892C35.3436 11.3866 35.099 10.8098 34.6658 10.3911Z" fill="#F9B668"/>
<path d="M20.9307 46.699H12.793V40.8657C12.793 40.4134 13.0942 40.0165 13.5298 39.895L19.9208 38.1108C20.4282 37.9691 20.9307 38.3506 20.9307 38.8773V46.699Z" fill="white"/>
<path d="M19.9209 38.1108L18.8125 38.4202C18.9029 38.5483 18.9576 38.7048 18.9576 38.8773V46.699H20.9308V38.8773C20.9308 38.3506 20.4283 37.9691 19.9209 38.1108Z" fill="#F9B668"/>
<path d="M38.6621 29.2903H31.9283C31.6681 29.2903 31.457 29.0793 31.457 28.819V27.1662C31.457 26.9058 31.6681 26.6948 31.9283 26.6948H38.6621C38.9225 26.6948 39.1335 26.9058 39.1335 27.1662V28.819C39.1335 29.0793 38.9225 29.2903 38.6621 29.2903Z" fill="#FCDAB4"/>
<path d="M38.6647 26.6948H36.6914C36.9518 26.6948 37.1628 26.9059 37.1628 27.1662V28.819C37.1628 29.0793 36.9518 29.2903 36.6914 29.2903H38.6647C38.9251 29.2903 39.1361 29.0793 39.1361 28.819V27.1662C39.1361 26.9059 38.9251 26.6948 38.6647 26.6948Z" fill="#F9B668"/>
<path d="M38.6621 34.5115H31.9283C31.6681 34.5115 31.457 34.3004 31.457 34.0401V32.3873C31.457 32.127 31.6681 31.916 31.9283 31.916H38.6621C38.9225 31.916 39.1335 32.127 39.1335 32.3873V34.0401C39.1335 34.3004 38.9225 34.5115 38.6621 34.5115Z" fill="#C8EFFE"/>
<path d="M38.6647 31.916H36.6914C36.9518 31.916 37.1628 32.127 37.1628 32.3873V34.0401C37.1628 34.3004 36.9518 34.5115 36.6914 34.5115H38.6647C38.9251 34.5115 39.1361 34.3004 39.1361 34.0401V32.3873C39.1361 32.127 38.9251 31.916 38.6647 31.916Z" fill="#99E6FC"/>
<path d="M34.1556 39.7861H31.9283C31.6681 39.7861 31.457 39.5751 31.457 39.3148V37.662C31.457 37.4016 31.6681 37.1906 31.9283 37.1906H34.1556C34.416 37.1906 34.627 37.4016 34.627 37.662V39.3148C34.627 39.5751 34.416 39.7861 34.1556 39.7861Z" fill="#C8EFFE"/>
<path d="M34.1568 37.1906H32.1836C32.4439 37.1906 32.6549 37.4016 32.6549 37.6619V39.3147C32.6549 39.575 32.4439 39.7861 32.1836 39.7861H34.1568C34.4172 39.7861 34.6282 39.575 34.6282 39.3147V37.6619C34.6282 37.4016 34.4172 37.1906 34.1568 37.1906Z" fill="#99E6FC"/>
<path d="M28.2372 46.699H7.79297V12.6443C7.79297 11.6896 8.40262 10.8416 9.30753 10.5375L28.2372 4.17456V46.699Z" stroke="black" stroke-width="1.37329" stroke-miterlimit="10" stroke-linecap="round" stroke-linejoin="round"/>
<path d="M39.7407 42.4271V46.699H28.2344V23.6268H40.93C41.7714 23.6268 42.4525 24.3079 42.4525 25.1493V37.3624" stroke="black" stroke-width="1.37329" stroke-miterlimit="10" stroke-linecap="round" stroke-linejoin="round"/>
<path d="M28.2344 46.699H46.7419C47.3121 46.699 47.7744 46.2368 47.7744 45.6666V42.4273H28.2344V46.699Z" stroke="black" stroke-width="1.37329" stroke-miterlimit="10" stroke-linecap="round" stroke-linejoin="round"/>
<path d="M43.5652 37.1972H43.9529C46.0643 37.1972 47.7759 38.9089 47.7759 41.0203V42.4272H39.7422V41.0203C39.7422 38.9089 41.4539 37.1972 43.5652 37.1972Z" stroke="black" stroke-width="1.37329" stroke-miterlimit="10" stroke-linecap="round" stroke-linejoin="round"/>
<path d="M3.30579 46.699H7.79096V42.4273H2.27344V45.6666C2.27344 46.2368 2.7356 46.699 3.30579 46.699Z" stroke="black" stroke-width="1.37329" stroke-miterlimit="10" stroke-linecap="round" stroke-linejoin="round"/>
<path d="M7.25116 37.1972H7.79105V42.4272H2.27344V42.1749C2.27344 39.4258 4.50211 37.1972 7.25116 37.1972Z" stroke="black" stroke-width="1.37329" stroke-miterlimit="10" stroke-linecap="round" stroke-linejoin="round"/>
<path d="M35.3436 23.6262H28.2344V4.17438L34.6658 10.3911C35.099 10.8098 35.3436 11.3866 35.3436 11.9892V20.3895" stroke="black" stroke-width="1.37329" stroke-miterlimit="10" stroke-linecap="round" stroke-linejoin="round"/>
<path d="M12.793 9.36548V4.72833C12.793 3.94006 13.432 3.30103 14.2212 3.30103H14.3658C15.1541 3.30103 15.7932 3.94006 15.7932 4.72833V8.35657" stroke="black" stroke-width="1.37329" stroke-miterlimit="10" stroke-linecap="round" stroke-linejoin="round"/>
<path d="M28.2361 9.36462L12.793 14.5557" stroke="black" stroke-width="1.37329" stroke-miterlimit="10" stroke-linecap="round" stroke-linejoin="round"/>
<path d="M28.2361 14.3068L12.793 19.4978" stroke="black" stroke-width="1.37329" stroke-miterlimit="10" stroke-linecap="round" stroke-linejoin="round"/>
<path d="M28.2361 19.2487L12.793 24.4397" stroke="black" stroke-width="1.37329" stroke-miterlimit="10" stroke-linecap="round" stroke-linejoin="round"/>
<path d="M28.2361 24.1908L12.793 29.3818" stroke="black" stroke-width="1.37329" stroke-miterlimit="10" stroke-linecap="round" stroke-linejoin="round"/>
<path d="M15.3423 33.4668L12.793 34.3237" stroke="black" stroke-width="1.37329" stroke-miterlimit="10" stroke-linecap="round" stroke-linejoin="round"/>
<path d="M28.2367 29.1329L18.418 32.4333" stroke="black" stroke-width="1.37329" stroke-miterlimit="10" stroke-linecap="round" stroke-linejoin="round"/>
<path d="M20.9307 46.699H12.793V40.8657C12.793 40.4134 13.0942 40.0165 13.5298 39.895L19.9208 38.1108C20.4282 37.9691 20.9307 38.3506 20.9307 38.8773V46.699Z" stroke="black" stroke-width="1.37329" stroke-miterlimit="10" stroke-linecap="round" stroke-linejoin="round"/>
<path d="M38.6621 29.2903H31.9283C31.6681 29.2903 31.457 29.0793 31.457 28.819V27.1662C31.457 26.9058 31.6681 26.6948 31.9283 26.6948H38.6621C38.9225 26.6948 39.1335 26.9058 39.1335 27.1662V28.819C39.1335 29.0793 38.9225 29.2903 38.6621 29.2903Z" stroke="black" stroke-width="1.37329" stroke-miterlimit="10" stroke-linecap="round" stroke-linejoin="round"/>
<path d="M38.6621 34.5115H31.9283C31.6681 34.5115 31.457 34.3004 31.457 34.0401V32.3873C31.457 32.127 31.6681 31.916 31.9283 31.916H38.6621C38.9225 31.916 39.1335 32.127 39.1335 32.3873V34.0401C39.1335 34.3004 38.9225 34.5115 38.6621 34.5115Z" fill="#FCDAB4" stroke="black" stroke-width="1.37329" stroke-miterlimit="10" stroke-linecap="round" stroke-linejoin="round"/>
<path d="M34.1556 39.7861H31.9283C31.6681 39.7861 31.457 39.5751 31.457 39.3148V37.662C31.457 37.4016 31.6681 37.1906 31.9283 37.1906H34.1556C34.416 37.1906 34.627 37.4016 34.627 37.662V39.3148C34.627 39.5751 34.416 39.7861 34.1556 39.7861Z" fill="#FCDAB4" stroke="black" stroke-width="1.37329" stroke-miterlimit="10" stroke-linecap="round" stroke-linejoin="round"/>
<path d="M16.8594 38.9647V46.699" stroke="black" stroke-width="1.37329" stroke-miterlimit="10" stroke-linecap="round" stroke-linejoin="round"/>
</g>
</svg>
