<svg width="51" height="50" viewBox="0 0 51 50" fill="none" xmlns="http://www.w3.org/2000/svg">
<path d="M2.36719 40.625H47.6797V9.375H2.36719V40.625ZM35.1797 34.375H41.4297V28.125H44.5547V37.5H35.1797V34.375ZM5.49219 12.5H14.8672V15.625H8.61719V21.875H5.49219V12.5Z" fill="#FCDAB4"/>
<path d="M8.61719 15.625H14.8672V12.5H5.49219V21.875H8.61719V15.625Z" fill="#F9B668"/>
<path d="M44.5547 28.125H41.4297V34.375H35.1797V37.5H44.5547V28.125Z" fill="#F9B668"/>
<path d="M47.6797 41.4062H2.36719C1.93574 41.4062 1.58594 41.0564 1.58594 40.625V9.375C1.58594 8.94355 1.93574 8.59375 2.36719 8.59375H47.6797C48.1111 8.59375 48.4609 8.94355 48.4609 9.375V40.625C48.4609 41.0564 48.1111 41.4062 47.6797 41.4062ZM3.14844 39.8438H46.8984V10.1562H3.14844V39.8438Z" fill="#231F20"/>
<path d="M9.39844 22.6562H4.71094V11.7188H15.6484V16.4062H9.39844V22.6562ZM6.27344 21.0938H7.83594V14.8438H14.0859V13.2812H6.27344V21.0938Z" fill="#231F20"/>
<path d="M45.3359 38.2812H34.3984V33.5938H40.6484V27.3438H45.3359V38.2812ZM35.9609 36.7188H43.7734V28.9062H42.2109V35.1562H35.9609V36.7188Z" fill="#231F20"/>
</svg>
