<svg width="278" height="570" viewBox="0 0 278 570" fill="none" xmlns="http://www.w3.org/2000/svg">
<path d="M64.6249 7.4917H212.809C224.208 7.4917 232.366 7.49675 238.763 8.01938C245.085 8.5358 249.114 9.52503 252.358 11.1775C258.722 14.4196 263.896 19.5928 267.138 25.9553C268.791 29.1981 269.78 33.2256 270.297 39.5461C270.82 45.9425 270.825 54.0989 270.825 65.4953V505.159C270.825 516.555 270.82 524.712 270.297 531.108C269.78 537.429 268.791 541.456 267.138 544.699C263.896 551.062 258.722 556.235 252.358 559.477C249.114 561.129 245.085 562.118 238.763 562.635C232.366 563.158 224.208 563.163 212.809 563.163H64.6249C53.2264 563.163 45.0684 563.158 38.6706 562.635C32.3486 562.118 28.32 561.129 25.0762 559.477C18.712 556.235 13.538 551.062 10.2956 544.699C8.64298 541.456 7.65364 537.429 7.13714 531.108C6.61443 524.712 6.60938 516.555 6.60938 505.159V65.4953C6.60938 54.0989 6.61443 45.9425 7.13714 39.5461C7.65364 33.2256 8.64298 29.1981 10.2956 25.9553C13.538 19.5928 18.712 14.4196 25.0762 11.1775C28.32 9.52503 32.3486 8.5358 38.6706 8.01938C45.0684 7.49675 53.2264 7.4917 64.6249 7.4917Z" stroke="black" stroke-width="13"/>
<path d="M70.9648 13.4004H206.465V19.1504C206.465 27.4347 199.749 34.1504 191.465 34.1504H85.9648C77.6806 34.1504 70.9648 27.4347 70.9648 19.1504V13.4004Z" fill="#111111"/>
<circle cx="156.939" cy="23.7754" r="5.42725" fill="#EFEFEF"/>
<rect x="115.062" y="21.2754" width="30.2422" height="5" rx="2.5" fill="#EFEFEF"/>
</svg>
