<svg width="51" height="50" viewBox="0 0 51 50" fill="none" xmlns="http://www.w3.org/2000/svg">
<path d="M31.6101 22.8546C30.5865 22.1746 29.4078 21.8268 28.2251 21.8089C28.219 21.8088 28.2141 21.8138 28.2142 21.8199C28.2331 23.4566 27.6197 25.0991 26.3709 26.3479C25.1193 27.5995 23.4722 28.2128 21.8319 28.1909C20.6454 28.1751 19.4627 27.8271 18.4358 27.145C18.0919 26.9165 17.7652 26.6511 17.462 26.3479L8.72063 17.6065C6.27253 15.1584 6.17933 11.1705 8.59548 8.69072C11.0504 6.17121 15.0833 6.15134 17.5631 8.63121L26.3709 17.439C26.6741 17.7422 26.9396 18.0688 27.168 18.4128C28.5032 18.2918 29.8585 18.4482 31.141 18.8818C30.6808 17.5206 29.9091 16.2415 28.8242 15.1567L19.8455 6.17799C16.0776 2.41007 9.96876 2.41007 6.20094 6.17799C2.43302 9.9459 2.43302 16.0548 6.20094 19.8225L15.1796 28.8012C16.2645 29.8861 17.5436 30.6579 18.9048 31.118C20.1873 31.5515 21.5426 31.7081 22.8778 31.5871C25.0475 31.3904 27.1633 30.4622 28.8242 28.8012C30.4852 27.1402 31.4134 25.0243 31.6101 22.8546Z" fill="#FCDAB4"/>
<path d="M43.8466 30.1772L34.8679 21.1985C33.783 20.1136 32.5039 19.3418 31.1427 18.8817C29.8602 18.4482 28.5049 18.2916 27.1697 18.4126C25 18.6093 22.8842 19.5375 21.2233 21.1985C19.5624 22.8594 18.6342 24.9753 18.4375 27.1449C19.4635 27.8264 20.645 28.1744 21.8305 28.1908C21.8322 28.1908 21.8336 28.1894 21.8336 28.1876C21.8126 26.5484 22.426 24.9025 23.6767 23.6518C24.9284 22.4002 26.5755 21.7869 28.2158 21.8088C29.4023 21.8246 30.585 22.1726 31.6119 22.8546C31.9559 23.0832 32.2825 23.3486 32.5857 23.6518L41.3271 32.3932C43.7752 34.8413 43.8684 38.8292 41.4522 41.309C38.9973 43.8285 34.9644 43.8483 32.4846 41.3685L23.6768 32.5607C23.3736 32.2576 23.1081 31.9309 22.8797 31.587C21.5445 31.708 20.1892 31.5515 18.9067 31.1179C19.3668 32.4791 20.1386 33.7583 21.2235 34.8431L30.2022 43.8218C33.9701 47.5897 40.0789 47.5897 43.8468 43.8218C47.6145 40.054 47.6145 33.945 43.8466 30.1772Z" fill="#F9B668"/>
<path d="M31.139 25.0763C31.4836 24.2092 31.5249 23.7713 31.608 22.8545C30.5844 22.1745 29.4059 21.8266 28.2232 21.8088C28.217 21.8087 28.2121 21.8137 28.2122 21.8198C28.2223 22.697 28.2052 23.1775 27.8516 23.9965C28.9669 23.9446 30.0686 24.634 31.139 25.0763Z" fill="#FCDAB4"/>
<path d="M25.5039 16.5723L26.3705 17.439C26.6738 17.7421 26.9393 18.0688 27.1677 18.4127C28.5029 18.2917 29.8582 18.4481 31.1407 18.8817C30.8414 17.9962 30.4083 17.1463 29.8447 16.3612C27.7926 16.0895 26.8049 16.3611 25.5039 16.5723Z" fill="#FCDAB4"/>
<path d="M20.9625 25.6259C20.297 25.4578 19.5738 25.1996 18.9441 24.8208C18.6792 25.5757 18.509 26.3564 18.4375 27.1449C19.4635 27.8265 20.645 28.1744 21.8304 28.1908C21.8321 28.1908 21.8335 28.1895 21.8335 28.1877C21.8233 27.3904 21.9649 26.5922 22.2558 25.8383C21.8232 25.8075 21.3901 25.734 20.9625 25.6259Z" fill="#F9B668"/>
<path d="M24.6886 33.5729L23.6764 32.5607C23.3733 32.2576 23.1077 31.9309 22.8792 31.5869C21.544 31.708 20.1887 31.5515 18.9062 31.1179C19.2339 32.0873 19.7208 33.0143 20.3652 33.8598C21.3175 33.9558 23.896 33.8778 24.6886 33.5729Z" fill="#F9B668"/>
<path d="M44.3457 29.6785L35.367 20.6999C34.3117 19.6445 33.0775 18.8488 31.6947 18.3302C31.1761 16.9474 30.3804 15.7131 29.3251 14.6578L20.3464 5.67911C18.391 3.72366 15.791 2.64673 13.0256 2.64673C10.2602 2.64673 7.66009 3.72366 5.70454 5.67911C3.74889 7.63457 2.67188 10.2347 2.67188 13.0001C2.67188 15.7655 3.7488 18.3657 5.70435 20.321L14.683 29.2997C15.7384 30.3549 16.9727 31.1506 18.3555 31.6693C18.874 33.0521 19.6698 34.2864 20.7251 35.3417L29.7038 44.3204C31.6593 46.2758 34.2593 47.3528 37.0248 47.3528C39.7902 47.3528 42.3902 46.2758 44.3457 44.3203C48.3825 40.2837 48.3825 33.7153 44.3457 29.6785ZM15.6805 28.3024L6.70181 19.3238C5.01268 17.6347 4.08251 15.3889 4.08251 13.0002C4.08251 10.6115 5.01277 8.36571 6.70181 6.67657C8.39085 4.98744 10.6367 4.05727 13.0255 4.05727C15.4143 4.05727 17.6599 4.98753 19.3491 6.67657L28.3278 15.6552C28.9804 16.3079 29.5184 17.0397 29.9356 17.8407C29.8879 17.8318 29.8398 17.8244 29.7921 17.8163C29.7601 17.8108 29.7281 17.8051 29.696 17.7999C29.5712 17.7797 29.4461 17.7615 29.3205 17.7459C29.3087 17.7445 29.2967 17.7434 29.2848 17.742C29.1696 17.7282 29.0541 17.7166 28.9383 17.7067C28.907 17.704 28.8758 17.7015 28.8444 17.6991C28.7319 17.6905 28.6191 17.6833 28.5061 17.6785C28.4905 17.6778 28.4749 17.6766 28.4593 17.676C28.3313 17.671 28.203 17.6685 28.0745 17.6682C28.0649 17.6682 28.0555 17.6677 28.0459 17.6677C28.029 17.6677 28.012 17.6687 27.9952 17.6688C27.8724 17.6694 27.7494 17.6722 27.6263 17.6771C27.602 17.678 27.578 17.6786 27.5537 17.6798C27.5412 17.6803 27.5288 17.6805 27.5163 17.681C27.319 17.4197 27.1034 17.1714 26.8718 16.9398L18.0641 8.13198C16.741 6.80905 14.982 6.08048 13.111 6.08048C11.2055 6.08048 9.42329 6.83258 8.09267 8.19817C5.43272 10.9282 5.49177 15.3722 8.22423 18.1048L16.9656 26.8462C17.1946 27.0752 17.4409 27.2876 17.6992 27.4831L17.6978 27.4997L18.0479 27.7323C18.1177 27.7787 18.1883 27.8237 18.2596 27.8675C18.7543 28.171 19.2825 28.4096 19.8326 28.5807C19.8374 28.5821 19.8424 28.584 19.8472 28.5854C19.9122 28.6055 19.9778 28.624 20.0433 28.642C20.0579 28.646 20.0723 28.6506 20.0869 28.6546C20.1475 28.671 20.2087 28.6858 20.2698 28.7004C20.2896 28.7052 20.3091 28.7107 20.329 28.7152C20.3854 28.7282 20.4425 28.7398 20.4994 28.7514C20.5242 28.7564 20.5486 28.7623 20.5734 28.7672C20.6217 28.7766 20.6705 28.7844 20.7191 28.7927C20.7528 28.7986 20.7864 28.8052 20.8202 28.8105C20.8591 28.8166 20.8985 28.8214 20.9376 28.8269C20.9814 28.833 21.025 28.8399 21.069 28.8451C21.1001 28.8488 21.1314 28.8514 21.1626 28.8548C21.2148 28.8605 21.2669 28.8664 21.3193 28.8709C21.3441 28.873 21.369 28.8741 21.3938 28.8758C21.4529 28.8802 21.5118 28.8848 21.571 28.8876C21.5886 28.8885 21.6063 28.8886 21.6239 28.8893C21.6896 28.892 21.7553 28.8947 21.8213 28.8955L21.8261 28.8956L22.5485 28.8925L22.5482 28.869C24.1829 28.7261 25.699 28.0188 26.8719 26.8459C28.0364 25.6814 28.7384 24.1836 28.8907 22.5648C28.9045 22.5667 28.9181 22.5685 28.9317 22.5706C28.9901 22.5789 29.0484 22.5882 29.1063 22.5984C29.1278 22.6021 29.1494 22.6057 29.1711 22.6096C29.2493 22.6243 29.3272 22.6402 29.4045 22.6581C29.407 22.6586 29.4094 22.6593 29.4118 22.66C29.4861 22.6773 29.56 22.6966 29.6334 22.7169C29.6554 22.723 29.6773 22.7295 29.6993 22.7358C29.7554 22.7521 29.8114 22.7693 29.8669 22.7873C29.8889 22.7945 29.911 22.8015 29.9328 22.8089C30.0015 22.8322 30.0699 22.8566 30.1377 22.8826C30.1435 22.8848 30.1494 22.8868 30.1552 22.8891C30.2289 22.9175 30.3019 22.948 30.3743 22.9797C30.3939 22.9882 30.4133 22.9974 30.4328 23.0062C30.4867 23.0305 30.5403 23.0556 30.5935 23.0817C30.6148 23.0921 30.6362 23.1027 30.6573 23.1134C30.7159 23.143 30.774 23.1737 30.8316 23.2056C30.8412 23.2109 30.8509 23.2158 30.8604 23.2212C30.5919 25.1371 29.7022 26.9276 28.3279 28.3021C26.8509 29.779 24.8937 30.6961 22.8165 30.8842C22.548 30.9086 22.2749 30.921 22.005 30.921C21.8335 30.921 21.6625 30.9143 21.492 30.9046C20.688 30.8589 19.8966 30.7075 19.133 30.4494C17.8246 30.0076 16.6632 29.2852 15.6805 28.3024ZM25.8429 17.906C23.9154 18.3264 22.1318 19.2931 20.7251 20.6997C19.3184 22.1064 18.3517 23.89 17.9313 25.8174L9.22141 17.1076C7.03167 14.9179 6.97848 11.3628 9.10267 9.18281C10.1655 8.09197 11.5889 7.49129 13.1108 7.49129C14.6051 7.49129 16.0099 8.0732 17.0665 9.1298L25.8429 17.906ZM22.5783 27.4455C22.723 26.201 23.2754 25.0509 24.1757 24.1506C25.0746 23.2518 26.2267 22.6984 27.4719 22.5532C27.3272 23.7981 26.7748 24.9488 25.8744 25.8492C24.9754 26.7481 23.8245 27.2995 22.5783 27.4455ZM32.1188 24.182L40.8287 32.8919C43.0185 35.0815 43.0718 38.6366 40.9475 40.8166C39.8847 41.9074 38.4612 42.5081 36.9393 42.5081C35.445 42.5081 34.0402 41.9262 32.9836 40.8695L24.2073 32.0933C26.1347 31.6729 27.9183 30.7061 29.325 29.2995C30.7316 27.893 31.6984 26.1095 32.1188 24.182ZM43.3483 43.3231C41.6592 45.0122 39.4134 45.9424 37.0248 45.9424C34.6361 45.9424 32.3902 45.0121 30.7011 43.3231L21.7224 34.3444C21.0696 33.6917 20.5317 32.9601 20.1145 32.159C20.162 32.1677 20.2097 32.1752 20.2573 32.1832C20.2901 32.1888 20.3228 32.1947 20.3557 32.2C20.4787 32.2198 20.6022 32.2377 20.7259 32.253C20.7447 32.2554 20.7636 32.2569 20.7823 32.2592C20.8889 32.2719 20.9956 32.2827 21.1027 32.2918C21.1406 32.2951 21.1785 32.2981 21.2164 32.3011C21.3174 32.3087 21.4186 32.3149 21.52 32.3196C21.5461 32.3208 21.5722 32.3226 21.5985 32.3236C21.7215 32.3283 21.8447 32.3306 21.9682 32.3311C21.9805 32.3311 21.9926 32.3318 22.0047 32.3318H22.0049C22.0769 32.3318 22.1491 32.3309 22.2213 32.3294C22.2241 32.3294 22.2268 32.3294 22.2294 32.3293C22.3224 32.3273 22.4154 32.3237 22.5084 32.3193C22.5169 32.3189 22.5254 32.3188 22.5339 32.3184C22.731 32.5798 22.9467 32.8279 23.1782 33.0596L31.986 41.8673C33.309 43.1903 35.0681 43.9189 36.9392 43.9189C38.8446 43.9189 40.6269 43.1668 41.9575 41.8012C44.6175 39.0712 44.5585 34.6272 41.8259 31.8946L33.0845 23.1531C32.8556 22.9241 32.6093 22.7118 32.3509 22.5164L32.3524 22.5L32.0024 22.2673C31.9326 22.221 31.862 22.176 31.7908 22.1322C31.7654 22.1165 31.7393 22.102 31.7136 22.0867C31.6677 22.0592 31.6218 22.0315 31.5752 22.0051C31.5379 21.9841 31.4999 21.9643 31.4621 21.9439C31.4266 21.9247 31.3915 21.9048 31.3557 21.8862C31.3105 21.8628 31.2648 21.8409 31.2193 21.8185C31.1903 21.8043 31.1616 21.7892 31.1325 21.7754C31.0842 21.7525 31.0354 21.7312 30.9867 21.7094C30.9596 21.6974 30.9328 21.6845 30.9056 21.6727C30.8552 21.651 30.8042 21.6308 30.7533 21.6103C30.7272 21.5998 30.7015 21.5886 30.6754 21.5784C30.6249 21.5587 30.574 21.5407 30.5231 21.5222C30.496 21.5124 30.4691 21.5018 30.442 21.4923C30.3913 21.4746 30.3401 21.4584 30.289 21.442C30.2612 21.433 30.2336 21.4233 30.2057 21.4146C30.1551 21.3991 30.1042 21.3849 30.0532 21.3705C30.0243 21.3622 29.9955 21.3533 29.9665 21.3455C29.9187 21.3326 29.8704 21.3211 29.8224 21.3093C29.7897 21.3013 29.7572 21.2924 29.7244 21.2848C29.6792 21.2743 29.6336 21.2652 29.5882 21.2557C29.5522 21.2481 29.5163 21.2398 29.4802 21.2327C29.4376 21.2245 29.3945 21.2175 29.3517 21.2099C29.3124 21.203 29.2731 21.1954 29.2337 21.1892C29.1948 21.1831 29.1554 21.1782 29.1164 21.1727C29.0726 21.1665 29.029 21.1598 28.985 21.1545C28.9504 21.1503 28.9155 21.1474 28.8808 21.1436C28.8321 21.1385 28.7835 21.1328 28.7346 21.1286C28.7041 21.126 28.6735 21.1246 28.643 21.1223C28.5897 21.1184 28.5363 21.1142 28.4828 21.1116C28.4559 21.1103 28.4288 21.11 28.4018 21.1089C28.3473 21.1068 28.2928 21.1044 28.238 21.1035L28.2274 21.1034C28.2272 21.1034 28.2271 21.1034 28.2269 21.1034C28.2266 21.1034 28.2262 21.1034 28.226 21.1034C28.1946 21.103 28.1631 21.1028 28.1316 21.1028C26.2599 21.1028 24.5009 21.8309 23.1788 23.153C22.0123 24.3195 21.3101 25.8199 21.1592 27.434C21.1453 27.4321 21.1314 27.4302 21.1175 27.4281C21.0599 27.4199 21.0027 27.4107 20.9455 27.4007C20.9231 27.3967 20.9006 27.3931 20.8783 27.3889C20.8007 27.3744 20.7235 27.3586 20.6467 27.3409C20.6417 27.3398 20.6367 27.3382 20.6316 27.3371C20.56 27.3203 20.4889 27.3019 20.418 27.2823C20.395 27.2759 20.3722 27.2691 20.3492 27.2624C20.2942 27.2464 20.2395 27.2296 20.1851 27.2119C20.1622 27.2045 20.1394 27.1972 20.1167 27.1894C20.0494 27.1666 19.9823 27.1427 19.9159 27.1172C19.9088 27.1145 19.9017 27.1122 19.8946 27.1094C19.8214 27.081 19.7488 27.0507 19.6767 27.0192C19.6565 27.0104 19.6365 27.0011 19.6165 26.9921C19.5633 26.9681 19.5104 26.9433 19.4579 26.9176C19.4361 26.9069 19.4141 26.8961 19.3923 26.8851C19.3346 26.856 19.2776 26.8257 19.2209 26.7945C19.2107 26.7888 19.2002 26.7835 19.1901 26.7777C19.4586 24.8618 20.3482 23.0713 21.7226 21.697C23.1995 20.22 25.1567 19.303 27.234 19.1148C27.5027 19.0904 27.7759 19.078 28.0458 19.078C28.2909 19.078 28.535 19.0879 28.7778 19.1077C28.9087 19.1183 29.0389 19.1323 29.169 19.1487C29.7631 19.2234 30.3481 19.357 30.9176 19.5496C32.2257 19.9916 33.3872 20.7142 34.3699 21.697L43.3486 30.6757C46.8352 34.1627 46.8351 39.8363 43.3483 43.3231Z" fill="black"/>
<path d="M35.8777 13.1465L36.875 14.1438L42.1907 8.8281L41.1934 7.83077L35.8777 13.1465Z" fill="#111111"/>
<path d="M29.1917 1.5625H27.7812V9.0802H29.1917V1.5625Z" fill="#111111"/>
<path d="M48.4591 20.8315H40.9414V22.242H48.4591V20.8315Z" fill="#111111"/>
<path d="M7.85814 41.1716L8.85547 42.1689L14.1712 36.8532L13.1738 35.8559L7.85814 41.1716Z" fill="#111111"/>
<path d="M9.10364 27.7581H1.58594V29.1685H9.10364V27.7581Z" fill="#111111"/>
<path d="M22.2659 40.9197H20.8555V48.4374H22.2659V40.9197Z" fill="#111111"/>
</svg>
