<svg width="64" height="64" viewBox="0 0 64 64" fill="none" xmlns="http://www.w3.org/2000/svg">
<path d="M30.2161 38.3105C29.6956 38.3113 29.193 38.1202 28.8047 37.7736L22.4277 32.1051C22.0083 31.7302 21.7546 31.2043 21.7223 30.6427C21.6899 30.0811 21.8816 29.5295 22.2553 29.109C22.6289 28.6885 23.1541 28.4332 23.7156 28.3992C24.2771 28.3652 24.8292 28.5553 25.2509 28.9277L30.0807 33.2205L39.2947 23.3949C39.6801 22.9838 40.213 22.7427 40.7762 22.7245C41.3393 22.7063 41.8867 22.9126 42.2977 23.298C42.7088 23.6834 42.95 24.2163 42.9681 24.7795C42.9863 25.3427 42.78 25.89 42.3946 26.3011L31.7663 37.6379C31.5679 37.8504 31.3278 38.0197 31.0611 38.1354C30.7945 38.2511 30.5068 38.3107 30.2161 38.3105Z" fill="#F6911D"/>
<path d="M31.6336 62C30.7893 61.9988 29.9594 61.7815 29.2228 61.3689L19.6712 56.0603C14.9229 53.4205 10.9664 49.5596 8.21112 44.8773C5.45586 40.195 4.002 34.8615 4 29.4287V14.7041C3.9993 13.4775 4.45381 12.2943 5.27551 11.3836C6.09722 10.4729 7.22764 9.89958 8.44785 9.77462C12.2464 9.37001 15.985 8.5248 19.5882 7.25603C22.8914 6.08929 26.0601 4.5722 29.0403 2.73069C29.8209 2.25287 30.7184 2 31.6337 2C32.549 2 33.4465 2.25287 34.2271 2.73069C37.2062 4.57215 40.374 6.08925 43.6762 7.25603C47.2812 8.52484 51.0217 9.37008 54.822 9.77471C56.0418 9.90025 57.1715 10.4738 57.9927 11.3844C58.8138 12.295 59.268 13.4779 59.2672 14.7041V29.4287C59.2652 34.8615 57.8113 40.195 55.056 44.8773C52.3008 49.5596 48.3443 53.4205 43.5959 56.0603L34.0416 61.3688C33.3061 61.7818 32.477 61.9991 31.6336 62ZM31.6336 6.24569C31.5094 6.24495 31.3875 6.27951 31.2821 6.34534H31.2793C28.0389 8.34656 24.5937 9.99536 21.0024 11.2636C17.0862 12.6442 13.0225 13.5637 8.89338 14.0037C8.71768 14.0177 8.5538 14.0978 8.43469 14.2277C8.31557 14.3576 8.25006 14.5278 8.25132 14.7041V29.4287C8.25298 34.1037 9.50395 38.6933 11.8748 42.7225C14.2456 46.7517 17.6501 50.0742 21.736 52.346L31.2904 57.6544C31.3955 57.711 31.5129 57.7406 31.6322 57.7406C31.7515 57.7406 31.869 57.711 31.974 57.6544L41.5312 52.346C45.6171 50.0742 49.0216 46.7517 51.3924 42.7225C53.7632 38.6933 55.0142 34.1037 55.0158 29.4287V14.7041C55.0172 14.5282 54.9521 14.3584 54.8335 14.2285C54.715 14.0987 54.5517 14.0184 54.3765 14.0038C50.2456 13.5638 46.18 12.6442 42.2619 11.2636C38.6718 9.99476 35.2276 8.34595 31.9879 6.34525C31.8813 6.27976 31.7586 6.24528 31.6336 6.24569Z" fill="#111111"/>
</svg>
