<svg width="64" height="64" viewBox="0 0 64 64" fill="none" xmlns="http://www.w3.org/2000/svg">
<path d="M45.9165 48.724C45.3838 48.724 44.8511 48.5224 44.4336 48.1337C43.5698 47.3131 43.5266 45.9453 44.3472 45.0815L56.8583 31.8218L44.3472 18.562C43.5266 17.6982 43.5698 16.3305 44.4336 15.5098C45.2974 14.6892 46.6652 14.7324 47.4858 15.5962L61.4078 30.3389C62.1997 31.1739 62.1997 32.4696 61.4078 33.3047L47.4858 48.0473C47.0539 48.4936 46.478 48.724 45.9165 48.724Z" fill="#111111"/>
<path d="M18.0852 48.724C17.5093 48.724 16.9334 48.4936 16.5159 48.0473L2.59388 33.3047C1.80204 32.4696 1.80204 31.1739 2.59388 30.3389L16.5159 15.5962C17.3365 14.7324 18.7043 14.6892 19.5681 15.5098C20.4319 16.3305 20.4751 17.6982 19.6545 18.562L7.12897 31.8218L19.6401 45.0815C20.4607 45.9453 20.4175 47.3131 19.5537 48.1337C19.1362 48.5224 18.6035 48.724 18.0852 48.724Z" fill="#111111"/>
<path d="M28.6802 55.649C28.565 55.649 28.4642 55.6346 28.3491 55.6202C27.1685 55.433 26.3623 54.3388 26.535 53.1583L33.1577 9.83734C33.3449 8.65677 34.439 7.85053 35.6196 8.0233C36.8002 8.21046 37.6064 9.30464 37.4336 10.4852L30.811 53.8061C30.6526 54.8859 29.7312 55.649 28.6802 55.649Z" fill="#F6911D"/>
</svg>
