<svg width="64" height="64" viewBox="0 0 64 64" fill="none" xmlns="http://www.w3.org/2000/svg">
<path d="M4.72707 32.0042C4.72634 26.882 6.16814 21.8631 8.88738 17.5222C11.6066 13.1814 15.4934 9.69404 20.1025 7.45959C24.7117 5.22514 29.857 4.33389 34.9492 4.88789C40.0414 5.4419 44.8746 7.41877 48.8954 10.5921H44.7463C44.3868 10.5956 44.0433 10.7408 43.7904 10.9962C43.5375 11.2516 43.3956 11.5965 43.3956 11.9559C43.3956 12.3154 43.5375 12.6603 43.7904 12.9157C44.0433 13.1711 44.3868 13.3163 44.7463 13.3198H52.4612C52.8229 13.3198 53.1698 13.1761 53.4256 12.9203C53.6813 12.6645 53.825 12.3176 53.825 11.9559V4.24072C53.8216 3.8813 53.6763 3.53779 53.4209 3.28487C53.1656 3.03194 52.8207 2.89005 52.4612 2.89005C52.1018 2.89005 51.7569 3.03194 51.5015 3.28487C51.2461 3.53779 51.1009 3.8813 51.0974 4.24072V8.859C45.1505 3.95321 37.5434 1.52471 29.854 2.0772C22.1645 2.62969 14.9828 6.12077 9.79826 11.8264C4.61376 17.532 1.82435 25.0142 2.00858 32.7213C2.19281 40.4284 5.33653 47.7688 10.7877 53.2202C11.0445 53.471 11.3898 53.6106 11.7487 53.6085C12.1077 53.6064 12.4514 53.4629 12.7052 53.2091C12.959 52.9553 13.1025 52.6116 13.1046 52.2527C13.1067 51.8937 12.9671 51.5484 12.7162 51.2917C10.1754 48.7647 8.16107 45.7589 6.78973 42.4482C5.41839 39.1375 4.71731 35.5877 4.72707 32.0042Z" fill="#111111"/>
<path d="M20.0846 56.5472C19.3108 56.1709 18.5449 55.7521 17.8087 55.3033C17.5 55.1148 17.1291 55.0567 16.7775 55.1417C16.426 55.2268 16.1226 55.448 15.9341 55.7567C15.7457 56.0654 15.6876 56.4364 15.7726 56.7879C15.8576 57.1395 16.0789 57.4429 16.3876 57.6313C17.1981 58.1261 18.0411 58.5863 18.8929 59.0004C19.0539 59.0787 19.2289 59.1245 19.4076 59.1352C19.5864 59.1458 19.7655 59.1212 19.9348 59.0626C20.104 59.0041 20.2601 58.9127 20.394 58.7939C20.528 58.675 20.6372 58.5309 20.7155 58.3698C20.7938 58.2088 20.8395 58.0338 20.8502 57.8551C20.8609 57.6763 20.8362 57.4972 20.7777 57.3279C20.7191 57.1587 20.6278 57.0026 20.5089 56.8687C20.3901 56.7347 20.246 56.6255 20.0849 56.5472H20.0846Z" fill="#111111"/>
<path d="M56.5608 20.1093C56.6389 20.2705 56.7479 20.4147 56.8817 20.5338C57.0156 20.6528 57.1715 20.7443 57.3407 20.8031C57.5099 20.8619 57.689 20.8868 57.8678 20.8763C58.0466 20.8659 58.2216 20.8203 58.3828 20.7422C58.544 20.6641 58.6882 20.5551 58.8072 20.4213C58.9263 20.2874 59.0178 20.1315 59.0766 19.9623C59.1353 19.7931 59.1602 19.614 59.1498 19.4352C59.1393 19.2564 59.0938 19.0814 59.0157 18.9202C58.6047 18.0711 58.1453 17.2281 57.6505 16.4142C57.5574 16.2611 57.4351 16.1279 57.2905 16.0222C57.146 15.9164 56.982 15.8402 56.8079 15.7978C56.4564 15.7122 56.0853 15.7697 55.7762 15.9577C55.4672 16.1457 55.2454 16.4488 55.1598 16.8003C55.0742 17.1518 55.1318 17.5229 55.3198 17.832C55.7696 18.5719 56.1872 19.3382 56.5608 20.1093Z" fill="#111111"/>
<path d="M35.2412 59.0898C34.3802 59.1921 33.5091 59.253 32.6514 59.2737C32.2963 59.2873 31.9605 59.439 31.7155 59.6965C31.4706 59.954 31.3358 60.2969 31.3399 60.6523C31.3441 61.0077 31.4868 61.3474 31.7377 61.5991C31.9885 61.8508 32.3278 61.9947 32.6831 62C32.6938 62 32.7051 62 32.7158 61.9994C33.6587 61.9774 34.6156 61.9099 35.5613 61.7983C35.9202 61.7555 36.2474 61.572 36.4711 61.2881C36.6949 61.0042 36.7967 60.6431 36.7544 60.2841C36.712 59.9252 36.5289 59.5977 36.2453 59.3737C35.9616 59.1496 35.6006 59.0474 35.2416 59.0893L35.2412 59.0898Z" fill="#111111"/>
<path d="M27.4782 58.9047C26.6298 58.7629 25.7768 58.5784 24.943 58.3549C24.5935 58.2614 24.2211 58.3107 23.9079 58.4918C23.5947 58.6729 23.3663 58.971 23.2728 59.3205C23.1794 59.67 23.2287 60.0424 23.4098 60.3556C23.5909 60.6688 23.889 60.8973 24.2385 60.9907C25.1561 61.2358 26.0951 61.4388 27.0294 61.5947C27.2061 61.6242 27.3868 61.6185 27.5613 61.5782C27.7358 61.5378 27.9006 61.4634 28.0463 61.3594C28.1921 61.2553 28.3159 61.1235 28.4107 60.9716C28.5056 60.8196 28.5695 60.6505 28.599 60.4739C28.6285 60.2972 28.6228 60.1165 28.5825 59.942C28.5421 59.7675 28.4677 59.6027 28.3637 59.4569C28.2596 59.3112 28.1278 59.1874 27.9759 59.0925C27.824 58.9977 27.6548 58.9337 27.4782 58.9043V58.9047Z" fill="#111111"/>
<path d="M60.6681 31.3466C60.3065 31.3378 59.9563 31.4729 59.6943 31.7223C59.4323 31.9716 59.28 32.3148 59.271 32.6763C59.249 33.5387 59.1865 34.4097 59.0838 35.2661C59.041 35.6253 59.1427 35.9868 59.3663 36.2711C59.5899 36.5554 59.9173 36.7393 60.2765 36.7824C60.3308 36.7885 60.3855 36.7916 60.4402 36.7917C60.7736 36.7912 61.0952 36.6687 61.3444 36.4473C61.5936 36.2258 61.7531 35.9208 61.7927 35.5899C61.9046 34.6489 61.9739 33.6919 61.9973 32.7444C62.0019 32.5653 61.9711 32.3871 61.9068 32.2199C61.8424 32.0527 61.7458 31.8999 61.6223 31.7701C61.4989 31.6403 61.3511 31.536 61.1873 31.4634C61.0236 31.3907 60.8472 31.351 60.6681 31.3466Z" fill="#111111"/>
<path d="M56.4853 46.9465C56.186 46.7436 55.8184 46.6677 55.4632 46.7355C55.108 46.8033 54.7942 47.0092 54.5907 47.3081C54.1058 48.0213 53.5817 48.7199 53.0317 49.3837C52.9147 49.5213 52.8263 49.6807 52.7714 49.8527C52.7166 50.0248 52.6965 50.206 52.7122 50.3858C52.728 50.5657 52.7793 50.7406 52.8632 50.9005C52.9471 51.0604 53.0619 51.202 53.201 51.3171C53.3401 51.4323 53.5006 51.5186 53.6734 51.5712C53.8461 51.6238 54.0275 51.6416 54.2072 51.6235C54.3868 51.6054 54.5611 51.5518 54.7198 51.4658C54.8786 51.3798 55.0187 51.2632 55.132 51.1226C55.7367 50.3928 56.3141 49.6249 56.8467 48.8405C56.9474 48.6924 57.0179 48.5259 57.0542 48.3506C57.0905 48.1753 57.0919 47.9945 57.0583 47.8186C57.0247 47.6427 56.9569 47.4752 56.8585 47.3256C56.7602 47.1759 56.6334 47.0471 56.4853 46.9465Z" fill="#111111"/>
<path d="M58.3621 24.968C58.5832 25.7984 58.767 26.6515 58.9088 27.5038C58.9617 27.8222 59.1257 28.1115 59.3717 28.3204C59.6178 28.5293 59.9299 28.6441 60.2526 28.6446C60.3278 28.6444 60.4028 28.6382 60.477 28.6259C60.6537 28.5966 60.8229 28.5328 60.975 28.4381C61.127 28.3434 61.2589 28.2196 61.3631 28.0739C61.4673 27.9282 61.5418 27.7634 61.5823 27.5889C61.6228 27.4144 61.6285 27.2337 61.5991 27.057C61.4439 26.1194 61.2411 25.18 60.9982 24.266C60.9051 23.9165 60.677 23.6183 60.364 23.4369C60.051 23.2556 59.6788 23.206 59.3293 23.2991C58.9797 23.3922 58.6815 23.6203 58.5002 23.9333C58.3188 24.2463 58.2693 24.6185 58.3623 24.968H58.3621Z" fill="#111111"/>
<path d="M49.3616 53.0484C48.695 53.5998 47.9965 54.1238 47.286 54.6053C47.1377 54.7058 47.0108 54.8345 46.9123 54.9841C46.8138 55.1336 46.7457 55.3011 46.712 55.477C46.6782 55.6528 46.6794 55.8336 46.7155 56.009C46.7516 56.1844 46.8219 56.351 46.9224 56.4992C47.0229 56.6475 47.1516 56.7744 47.3012 56.8729C47.4507 56.9714 47.6182 57.0395 47.7941 57.0733C47.9699 57.107 48.1507 57.1058 48.3261 57.0697C48.5015 57.0336 48.6681 56.9633 48.8163 56.8628C49.5982 56.3333 50.366 55.7573 51.0998 55.1514C51.3786 54.9209 51.5545 54.5891 51.5888 54.2289C51.623 53.8687 51.5127 53.5097 51.2822 53.2308C51.0517 52.9519 50.7199 52.7761 50.3597 52.7418C49.9995 52.7076 49.6405 52.8179 49.3616 53.0484Z" fill="#111111"/>
<path d="M59.697 39.4473C59.3525 39.3379 58.9786 39.3696 58.6574 39.5356C58.3361 39.7015 58.0939 39.988 57.9837 40.3324C57.7226 41.1507 57.4177 41.968 57.0773 42.7624C57.0029 42.9275 56.9622 43.1058 56.9575 43.2869C56.9528 43.468 56.9842 43.6482 57.0499 43.817C57.1156 43.9858 57.2143 44.1398 57.3402 44.2701C57.4661 44.4003 57.6167 44.5042 57.7832 44.5756C57.9496 44.647 58.1287 44.6845 58.3098 44.6859C58.491 44.6874 58.6706 44.6527 58.8382 44.584C59.0058 44.5152 59.158 44.4138 59.2859 44.2855C59.4139 44.1573 59.515 44.0049 59.5834 43.8371C59.959 42.9627 60.2946 42.0618 60.5816 41.1608C60.6361 40.9902 60.6564 40.8106 60.6415 40.6321C60.6265 40.4536 60.5766 40.2799 60.4944 40.1208C60.4123 39.9616 60.2996 39.8202 60.1627 39.7047C60.0259 39.5891 59.8677 39.5017 59.697 39.4473Z" fill="#111111"/>
<path d="M42.7355 57.0879C41.9491 57.4248 41.1313 57.7293 40.3049 57.9929C40.1343 58.0473 39.9761 58.1348 39.8393 58.2503C39.7025 58.3659 39.5897 58.5072 39.5076 58.6663C39.4254 58.8254 39.3753 58.9992 39.3603 59.1776C39.3452 59.3561 39.3655 59.5357 39.4199 59.7064C39.4743 59.877 39.5618 60.0352 39.6773 60.172C39.7928 60.3088 39.9342 60.4216 40.0933 60.5037C40.2524 60.5859 40.4262 60.636 40.6046 60.651C40.7831 60.666 40.9627 60.6458 41.1333 60.5914C42.0423 60.3017 42.9427 59.9668 43.8091 59.5959C44.1416 59.4535 44.404 59.1848 44.5385 58.8489C44.6729 58.513 44.6684 58.1375 44.526 57.8049C44.3836 57.4723 44.1149 57.2099 43.779 57.0755C43.4431 56.941 43.0676 56.9455 42.735 57.0879H42.7355Z" fill="#111111"/>
<path d="M20.4706 29.2179C20.4706 26.9827 19.0009 25.1916 16.7261 24.6546C15.4764 24.3586 14.1634 24.495 13.0012 25.0414C11.839 25.5878 10.8964 26.5121 10.3271 27.6632C10.2458 27.8236 10.197 27.9984 10.1835 28.1777C10.17 28.3569 10.1921 28.5371 10.2485 28.7078C10.3048 28.8785 10.3944 29.0364 10.512 29.1723C10.6296 29.3083 10.7729 29.4197 10.9337 29.5001C11.0944 29.5805 11.2695 29.6283 11.4489 29.6408C11.6282 29.6533 11.8082 29.6302 11.9786 29.5729C12.149 29.5156 12.3064 29.4251 12.4417 29.3068C12.577 29.1884 12.6876 29.0445 12.7671 28.8833C13.0583 28.279 13.5481 27.7929 14.1547 27.5064C14.7612 27.2199 15.4478 27.1504 16.0995 27.3093C16.4851 27.4002 17.743 27.8071 17.743 29.2179C17.743 30.6403 16.1001 31.7375 14.3607 32.8992C12.4022 34.2064 10.1833 35.6882 10.1833 38.1414C10.1833 38.5031 10.327 38.85 10.5827 39.1058C10.8385 39.3616 11.1853 39.5053 11.547 39.5053H19.1067C19.4661 39.5018 19.8097 39.3566 20.0626 39.1012C20.3155 38.8458 20.4574 38.5009 20.4574 38.1415C20.4574 37.7821 20.3155 37.4372 20.0626 37.1818C19.8097 36.9264 19.4661 36.7812 19.1067 36.7777H13.7034C14.2748 36.2363 15.0825 35.6969 15.8749 35.1674C18.0295 33.729 20.4706 32.0988 20.4706 29.2179Z" fill="#F6911D"/>
<path d="M33.3693 33.709C33.3693 33.3473 33.2256 33.0004 32.9698 32.7447C32.714 32.4889 32.3671 32.3452 32.0054 32.3452H30.8973V25.0998C30.8972 24.8174 30.8095 24.5419 30.6462 24.3114C30.4829 24.081 30.2521 23.9069 29.9856 23.8133C29.7191 23.7196 29.4301 23.711 29.1585 23.7886C28.8869 23.8662 28.6461 24.0262 28.4694 24.2465L21.565 32.856C21.4043 33.0566 21.3036 33.2985 21.2745 33.5538C21.2453 33.8091 21.2888 34.0674 21.4 34.2991C21.5112 34.5307 21.6856 34.7263 21.903 34.8632C22.1205 35.0001 22.3722 35.0728 22.6291 35.0729H28.1697V38.9087C28.1679 39.0889 28.2019 39.2676 28.2697 39.4346C28.3374 39.6016 28.4376 39.7535 28.5644 39.8816C28.6912 40.0096 28.8422 40.1113 29.0085 40.1806C29.1748 40.25 29.3533 40.2857 29.5335 40.2857C29.7137 40.2857 29.8921 40.25 30.0585 40.1806C30.2248 40.1113 30.3757 40.0096 30.5025 39.8816C30.6294 39.7535 30.7295 39.6016 30.7973 39.4346C30.8651 39.2676 30.899 39.0889 30.8973 38.9087V35.0729H32.0054C32.3672 35.0729 32.7141 34.9292 32.9699 34.6734C33.2256 34.4176 33.3693 34.0707 33.3693 33.709ZM28.1697 32.3452H25.4718L28.1697 28.9802V32.3452Z" fill="#F6911D"/>
<path d="M40.3485 22.9955C40.1728 22.96 39.9919 22.9595 39.8161 22.9941C39.6402 23.0287 39.473 23.0977 39.3239 23.1971C39.1748 23.2965 39.0467 23.4243 38.9472 23.5733C38.8476 23.7223 38.7784 23.8895 38.7436 24.0653L35.675 39.4084C35.604 39.763 35.6768 40.1314 35.8774 40.4323C36.0779 40.7333 36.3899 40.9423 36.7445 41.0133C36.8329 41.0309 36.9229 41.0398 37.013 41.0399C37.328 41.0395 37.6332 40.9302 37.8767 40.7304C38.1202 40.5305 38.2871 40.2526 38.3489 39.9437L41.4175 24.6006C41.4528 24.425 41.4531 24.2442 41.4184 24.0685C41.3838 23.8928 41.3149 23.7256 41.2156 23.5765C41.1163 23.4275 40.9886 23.2994 40.8399 23.1997C40.6911 23.1 40.5241 23.0306 40.3485 22.9955Z" fill="#F6911D"/>
<path d="M47.3471 39.5059C47.6164 39.5058 47.8797 39.426 48.1038 39.2765C48.3278 39.1271 48.5027 38.9147 48.6064 38.6662L53.7207 26.3917C53.8072 26.1844 53.8412 25.959 53.8196 25.7355C53.798 25.512 53.7216 25.2973 53.597 25.1104C53.4725 24.9235 53.3038 24.7703 53.1058 24.6644C52.9078 24.5584 52.6867 24.503 52.4621 24.5031H45.5577C45.1983 24.5065 44.8548 24.6518 44.6018 24.9071C44.3489 25.1625 44.207 25.5074 44.207 25.8669C44.207 26.2263 44.3489 26.5712 44.6018 26.8266C44.8548 27.082 45.1983 27.2272 45.5577 27.2307H50.4164L46.0891 37.6172C46.003 37.8244 45.9694 38.0497 45.9911 38.2731C46.0128 38.4964 46.0892 38.711 46.2136 38.8978C46.338 39.0845 46.5065 39.2378 46.7042 39.344C46.9019 39.4501 47.1227 39.5059 47.3471 39.5064V39.5059Z" fill="#F6911D"/>
</svg>
