<svg width="50" height="50" viewBox="0 0 50 50" fill="none" xmlns="http://www.w3.org/2000/svg">
<mask id="mask0_1472_1855" style="mask-type:luminance" maskUnits="userSpaceOnUse" x="1" y="1" width="48" height="48">
<path d="M1.5625 1.5625H48.4375V48.4375H1.5625V1.5625Z" fill="white"/>
</mask>
<g mask="url(#mask0_1472_1855)">
<path d="M35.5681 24.0915C35.5681 18.3514 30.8752 13.7074 25.1169 13.787C19.53 13.8643 14.9856 18.4507 14.9572 24.0379C14.9477 25.9079 15.4364 27.663 16.2982 29.1782C18.1601 32.4518 18.8788 34.3371 19.6071 36.1251H30.918C31.5341 34.6125 32.3089 32.5962 34.2559 29.1267C35.0915 27.6378 35.5681 25.9204 35.5681 24.0915Z" fill="#FCDAB4"/>
<path d="M25.9496 25.9179L25.2629 26.2209L24.5763 25.9179H22.3555V44.3976H28.1703V25.9179H25.9496Z" fill="#EB5569"/>
<path d="M25.1145 13.787C24.7939 13.7914 24.477 13.8114 24.1641 13.8448C29.3378 14.3944 33.3684 18.7719 33.3684 24.0915C33.3684 25.9204 32.8919 27.6378 32.0563 29.1266C30.1093 32.5961 29.3345 34.6125 28.7184 36.1251H30.9156C31.5318 34.6125 32.3066 32.5961 34.2535 29.1266C35.0891 27.6378 35.5657 25.9204 35.5657 24.0915C35.5657 18.3514 30.8728 13.7074 25.1145 13.787Z" fill="#F6911D"/>
<path d="M28.1689 44.3976H27.0703V25.9179H28.1689V44.3976Z" fill="#F9B668"/>
<path d="M25.9496 25.9179L25.2629 26.2209L24.5763 25.9179H22.3555V44.3976H27.0717V25.9179H25.9496Z" fill="white"/>
<path d="M25.2596 10.0273C24.6309 10.0273 24.1211 9.51767 24.1211 8.88889V3.64712C24.1211 3.01834 24.6309 2.50867 25.2596 2.50867C25.8882 2.50867 26.398 3.01834 26.398 3.64712V8.88889C26.398 9.51767 25.8882 10.0273 25.2596 10.0273Z" fill="#F9B668"/>
<path d="M44.3215 23.3002H39.0798C38.4511 23.3002 37.9414 22.7905 37.9414 22.1617C37.9414 21.533 38.4511 21.0233 39.0798 21.0233H44.3215C44.9502 21.0233 45.46 21.533 45.46 22.1617C45.46 22.7905 44.9502 23.3002 44.3215 23.3002Z" fill="#F9B668"/>
<path d="M11.4426 23.3002H6.20087C5.57217 23.3002 5.0625 22.7905 5.0625 22.1617C5.0625 21.533 5.57217 21.0233 6.20087 21.0233H11.4426C12.0713 21.0233 12.5811 21.533 12.5811 22.1617C12.5811 22.7905 12.0713 23.3002 11.4426 23.3002Z" fill="#F9B668"/>
<path d="M15.0712 13.5815L11.3648 9.87497C10.9201 9.43039 10.9201 8.7096 11.3648 8.26502C11.8092 7.82044 12.53 7.82044 12.9747 8.26502L16.6811 11.9715C17.1257 12.4161 17.1257 13.1369 16.6811 13.5815C16.2366 14.026 15.5158 14.0262 15.0712 13.5815Z" fill="#F9B668"/>
<path d="M33.8412 13.5815C33.3967 13.1369 33.3967 12.4161 33.8412 11.9715L37.5477 8.26502C37.9922 7.82044 38.7132 7.82044 39.1576 8.26502C39.6023 8.7096 39.6023 9.43039 39.1576 9.87497L35.4512 13.5815C35.0066 14.0261 34.2857 14.0261 33.8412 13.5815Z" fill="#F9B668"/>
<path d="M25.9475 44.3976H24.5742V25.9179H25.9475V44.3976Z" fill="#F07181"/>
<path d="M29.7249 43.2279L28.7683 40.9457H20.6236L20.0273 43.337C20.3501 45.6065 22.0711 47.4253 24.2907 47.8927C26.1847 48.2917 29.3276 46.4934 29.7249 43.2279Z" fill="#EBEBEB"/>
<path d="M19.9688 40.3301V42.5637C19.9688 42.8263 19.9884 43.0842 20.0243 43.3369C20.2593 43.3869 19.695 43.3719 28.6043 43.3719C28.2675 45.6352 26.5394 47.4444 24.3169 47.8996C27.4532 48.542 30.4392 46.3619 30.8205 43.2279C30.8458 43.021 30.8622 42.7747 30.8622 42.5637V40.3301H19.9688Z" fill="#F8F8F8"/>
<path d="M28.8842 35.5995H20.3542C19.4833 35.5995 18.7773 36.3054 18.7773 37.1764C18.7773 38.0472 19.4833 38.7532 20.3542 38.7532H28.8842C29.7552 38.7532 30.4611 38.0472 30.4611 37.1764C30.4611 36.3054 29.7552 35.5995 28.8842 35.5995Z" fill="#EBEBEB"/>
<path d="M28.8844 38.7533H20.3542C19.4832 38.7533 18.7773 39.4593 18.7773 40.3302C18.7773 41.201 19.4832 41.9071 20.3542 41.9071H28.8845C29.7552 41.9069 30.461 41.201 30.461 40.3302C30.461 39.4594 29.7552 38.7534 28.8844 38.7533Z" fill="#EBEBEB"/>
<path d="M30.166 35.5995H27.9688C28.8397 35.5995 29.5457 36.3054 29.5457 37.1764C29.5457 38.0472 28.8397 38.7532 27.9688 38.7532H30.166C31.037 38.7532 31.7429 38.0472 31.7429 37.1764C31.7429 36.3054 31.037 35.5995 30.166 35.5995Z" fill="#F8F8F8"/>
<path d="M30.166 38.7533H27.9688C28.8397 38.7533 29.5457 39.4593 29.5457 40.3302C29.5457 41.201 28.8397 41.9071 27.9688 41.9071H30.166C31.037 41.9071 31.7429 41.201 31.7429 40.3302C31.7429 39.4593 31.037 38.7533 30.166 38.7533Z" fill="#F8F8F8"/>
<path d="M25.2629 22.9402L23.6524 23.5102L22.3555 25.918H27.0717L26.1327 23.5102L25.2629 22.9402Z" fill="white"/>
<path d="M26.8731 23.5102L25.5156 23.0298L27.0714 25.918H28.17L26.8731 23.5102Z" fill="white"/>
<path d="M24.7135 21.5402L23.6523 23.5103H25.7747L25.2628 21.5402H24.7135Z" fill="white"/>
<path d="M24.8108 3.64713C24.8108 3.39801 25.0135 3.19531 25.2626 3.19531C25.5116 3.19531 25.7143 3.39801 25.7143 3.64713V8.88889C25.7143 9.138 25.5116 9.3407 25.2626 9.3407C25.0135 9.3407 24.8108 9.138 24.8108 8.88889V3.64713ZM25.2626 10.714C26.269 10.714 27.0876 9.89523 27.0876 8.88889V3.64713C27.0876 2.64078 26.269 1.82202 25.2626 1.82202C24.2562 1.82202 23.4375 2.64078 23.4375 3.64713V8.88889C23.4375 9.89523 24.2562 10.714 25.2626 10.714Z" fill="black"/>
<path d="M44.3207 22.6135H39.0789C38.8298 22.6135 38.6272 22.4108 38.6272 22.1617C38.6272 21.9127 38.8298 21.71 39.0789 21.71H44.3207C44.5698 21.71 44.7725 21.9127 44.7725 22.1617C44.7725 22.4108 44.5698 22.6135 44.3207 22.6135ZM44.3207 20.3367H39.0789C38.0726 20.3367 37.2539 21.1554 37.2539 22.1617C37.2539 23.1682 38.0726 23.9868 39.0789 23.9868H44.3207C45.327 23.9868 46.1458 23.1682 46.1458 22.1617C46.1458 21.1554 45.327 20.3367 44.3207 20.3367Z" fill="black"/>
<path d="M11.4418 22.6135H6.20001C5.9509 22.6135 5.74829 22.4108 5.74829 22.1617C5.74829 21.9127 5.9509 21.71 6.20001 21.71H11.4418C11.6909 21.71 11.8936 21.9127 11.8936 22.1617C11.8936 22.4108 11.6909 22.6135 11.4418 22.6135ZM11.4418 20.3367H6.20001C5.19366 20.3367 4.375 21.1554 4.375 22.1617C4.375 23.1682 5.19366 23.9868 6.20001 23.9868H11.4418C12.4481 23.9868 13.2669 23.1682 13.2669 22.1617C13.2669 21.1554 12.4481 20.3367 11.4418 20.3367Z" fill="black"/>
<path d="M11.8498 8.75044C12.0264 8.57383 12.3123 8.57393 12.4887 8.75044L16.1952 12.457C16.3718 12.6336 16.3719 12.9193 16.1951 13.0959C16.0187 13.2724 15.7329 13.2725 15.5562 13.0958L15.5563 13.0959L11.8497 9.38939C11.673 9.21269 11.6732 8.92704 11.8498 8.75044ZM14.5852 14.0669L14.5853 14.067C15.2984 14.7801 16.4528 14.7804 17.1661 14.067C17.8795 13.3537 17.8796 12.1992 17.1662 11.4859L13.4597 7.77943C12.7465 7.06614 11.5911 7.06688 10.8788 7.77943C10.1654 8.49272 10.1655 9.64711 10.8787 10.3604L14.5852 14.0669Z" fill="black"/>
<path d="M34.3264 12.457L38.0328 8.75052C38.2092 8.57419 38.4951 8.57382 38.6718 8.75061C38.8484 8.92722 38.8484 9.21286 38.6717 9.38947L34.9652 13.096C34.7887 13.2725 34.5029 13.2726 34.3264 13.096C34.1498 12.9194 34.1496 12.6336 34.3264 12.457ZM34.6457 14.6016C35.1332 14.6016 35.5916 14.4118 35.9363 14.067L39.6427 10.3606C40.356 9.64737 40.3561 8.49298 39.6429 7.7796C38.9298 7.06632 37.775 7.06613 37.0617 7.77951L33.3554 11.4859C32.6419 12.1993 32.642 13.3537 33.3554 14.0671C33.7 14.4118 34.1583 14.6016 34.6457 14.6016Z" fill="black"/>
<path d="M20.3543 41.2204C19.8795 41.2204 19.4641 40.8339 19.4641 40.3301C19.4641 39.8392 19.8635 39.4399 20.3543 39.4399C20.7336 39.4399 21.041 39.1324 21.041 38.7532C21.041 38.374 20.7336 38.0666 20.3543 38.0666C19.8635 38.0666 19.4641 37.6672 19.4641 37.1764C19.4641 36.7904 19.7114 36.4621 20.0554 36.3389C20.3778 36.264 20.6283 36.2862 30.166 36.2862C30.6466 36.2862 31.0563 36.6776 31.0563 37.1764C31.0563 37.6672 30.6568 38.0666 30.166 38.0666C29.7867 38.0666 29.4794 38.374 29.4794 38.7532C29.4794 39.1324 29.7867 39.4399 30.166 39.4399C30.6568 39.4399 31.0563 39.8392 31.0563 40.3301C31.0563 40.8324 30.6415 41.2204 30.166 41.2204H20.3543ZM25.7208 22.8236H24.7996L25.2602 21.9684L25.7208 22.8236ZM25.9468 34.9076V26.6046H27.481V34.9107C26.9313 34.9098 26.4218 34.9088 25.9468 34.9076ZM24.5735 26.6046V34.9039C23.9929 34.9023 23.485 34.901 23.0394 34.9002V26.6046H24.5735ZM24.0598 24.1969H26.4605L27.0178 25.2314H23.5025L24.0598 24.1969ZM25.105 13.1004C21.8856 13.1449 18.9689 14.5258 16.8924 16.9888C16.6479 17.2787 16.6848 17.7119 16.9746 17.9564C17.2646 18.2008 17.6977 18.1638 17.9422 17.874C19.7583 15.7201 22.3089 14.5125 25.1241 14.4736C30.7363 14.3923 34.8891 19.0027 34.8891 24.125C34.8891 25.7614 34.4738 27.3312 33.6547 28.7907C32.0512 31.6481 31.2266 33.5483 30.6462 34.9643C30.4845 34.9294 30.3165 34.9129 30.166 34.9129C29.7071 34.9129 29.2709 34.9127 28.8542 34.9123V25.918C28.8542 25.7979 28.8204 25.6801 28.7696 25.5878L26.3359 21.0696C26.1187 20.6664 25.7065 20.416 25.2602 20.416C24.8146 20.416 24.402 20.6658 24.1844 21.0696C23.1801 22.9341 22.0187 25.0903 21.7508 25.5878C21.6994 25.6812 21.6661 25.7986 21.6661 25.918V34.9011C20.7647 34.905 21.0854 34.9129 20.3543 34.9129C20.1897 34.9129 20.0293 34.931 19.8746 34.9645C19.2419 33.413 18.4663 31.6054 16.8927 28.8388C16.0556 27.3668 15.6311 25.7841 15.6311 24.1345C15.631 22.8627 15.8848 21.6129 16.3852 20.42C16.532 20.0703 16.3674 19.6679 16.0177 19.5211C15.6683 19.3746 15.2656 19.5389 15.1189 19.8887C14.5474 21.2508 14.2577 22.6793 14.2578 24.1345C14.2578 26.025 14.7427 27.8362 15.6989 29.5177C17.2892 32.3136 18.0443 34.1074 18.675 35.6604C18.3121 36.062 18.0908 36.5938 18.0908 37.1764C18.0908 37.7889 18.3353 38.3454 18.7319 38.7532C18.3353 39.1612 18.0908 39.7177 18.0908 40.3301C18.0908 41.1909 18.5738 41.9408 19.283 42.3235V42.5637C19.283 45.9456 22.0344 48.6971 25.4164 48.6971C26.3729 48.6971 27.2896 48.4828 28.1409 48.0601C28.4805 47.8915 28.6191 47.4794 28.4506 47.1397C28.2819 46.8001 27.8698 46.6615 27.5302 46.83C26.8703 47.1577 26.1591 47.3239 25.4164 47.3239C22.8015 47.3239 20.6725 45.2048 20.6563 42.5937C20.662 42.5937 30.1707 42.5937 30.1764 42.5937C30.1711 43.4189 29.9521 44.2293 29.5423 44.9394C29.3528 45.2678 29.4654 45.6877 29.7938 45.8772C30.122 46.0667 30.5421 45.9542 30.7318 45.6258C31.2668 44.6988 31.5497 43.64 31.5497 42.5637V42.1195C32.0844 41.7052 32.4296 41.0573 32.4296 40.3301C32.4296 39.7177 32.185 39.1612 31.7884 38.7532C32.185 38.3454 32.4296 37.7889 32.4296 37.1764C32.4296 36.5938 32.2082 36.062 31.8454 35.6605C32.4161 34.26 33.222 32.3679 34.8522 29.4627C35.788 27.7956 36.2624 25.9997 36.2624 24.125C36.2624 18.2733 31.5131 13.0117 25.105 13.1004Z" fill="black"/>
</g>
</svg>
