<svg width="50" height="50" viewBox="0 0 50 50" fill="none" xmlns="http://www.w3.org/2000/svg">
<path d="M34.8436 33.0273L26.9336 41.6601C25.8203 42.871 24.2579 43.5548 22.6171 43.5548H19.3358C15.0196 43.5548 11.5234 40.0586 11.5234 35.7421V27.9297C11.5234 26.8554 12.4025 25.9767 13.4764 25.9767C13.828 25.9767 14.1602 26.0743 14.4531 26.2499C15.0389 26.5821 15.4298 27.2069 15.4298 27.9297V25.9767C15.4298 24.9024 16.3085 24.0233 17.3828 24.0233C17.7344 24.0233 18.0662 24.121 18.3595 24.2969C18.9453 24.6288 19.3358 25.2539 19.3358 25.9767V24.0233C19.3358 22.9494 20.2149 22.0703 21.2892 22.0703C21.6407 22.0703 21.9726 22.1679 22.2655 22.3439C22.8517 22.6758 23.2422 23.3009 23.2422 24.0233V18.1639C23.2422 17.09 24.1212 16.2109 25.1952 16.2109C26.2695 16.2109 27.1486 17.09 27.1486 18.1639V31.8361L30.2928 29.7461C31.8163 28.7304 33.8673 29.082 34.9609 30.5468C35.5274 31.2889 35.4688 32.3439 34.8436 33.0273Z" fill="#FED2A4"/>
<path d="M27.1484 42.5781H13.4763C12.9374 42.5781 12.5 43.0155 12.5 43.5548V47.4608C12.5 48.0001 12.9374 48.4375 13.4763 48.4375H27.1484C27.6874 48.4375 28.1248 48.0001 28.1248 47.4608V43.5548C28.1248 43.0155 27.6874 42.5781 27.1484 42.5781Z" fill="#F9B668"/>
<path d="M25.1951 7.42188C24.6561 7.42188 24.2188 6.9845 24.2188 6.44519V2.53918C24.2188 1.99988 24.6561 1.5625 25.1951 1.5625C25.7344 1.5625 26.1718 1.99988 26.1718 2.53918V6.44519C26.1718 6.9845 25.7344 7.42188 25.1951 7.42188Z" fill="black"/>
<path d="M40.8202 19.1406H36.9138C36.3749 19.1406 35.9375 18.7032 35.9375 18.1639C35.9375 17.625 36.3749 17.1876 36.9138 17.1876H40.8202C41.3591 17.1876 41.7969 17.625 41.7969 18.1639C41.7969 18.7032 41.3591 19.1406 40.8202 19.1406Z" fill="black"/>
<path d="M13.4764 19.1406H9.57043C9.03113 19.1406 8.59375 18.7032 8.59375 18.1639C8.59375 17.625 9.03113 17.1876 9.57043 17.1876H13.4764C14.0157 17.1876 14.4531 17.625 14.4531 18.1639C14.4531 18.7032 14.0157 19.1406 13.4764 19.1406Z" fill="black"/>
<path d="M33.4809 10.8555C33.2309 10.8555 32.9809 10.7596 32.7896 10.5705C32.4087 10.1896 32.4087 9.57018 32.7896 9.18966L35.5533 6.42591C35.9342 6.04504 36.5532 6.04504 36.9341 6.42591C37.315 6.80679 37.315 7.42584 36.9341 7.80672L34.1704 10.5705C33.9808 10.7596 33.7308 10.8555 33.4809 10.8555Z" fill="black"/>
<path d="M16.9087 10.8554C16.6587 10.8554 16.4087 10.7596 16.2174 10.5704L13.4536 7.80452C13.0728 7.42364 13.0728 6.80459 13.4536 6.42372C13.8345 6.04284 14.4536 6.04284 14.8344 6.42372L17.5982 9.18747C17.979 9.56834 17.979 10.1874 17.5982 10.5683C17.4086 10.7596 17.1586 10.8554 16.9087 10.8554Z" fill="black"/>
<path d="M22.6193 44.5311H19.3359C14.4904 44.5311 10.5469 40.5879 10.5469 35.7421V27.9297C10.5469 26.3143 11.8615 25 13.4766 25C13.8574 25 14.2229 25.0722 14.5566 25.2049C14.8967 23.9629 16.0354 23.047 17.3829 23.047C17.7638 23.047 18.1289 23.1192 18.463 23.2519C18.8027 22.0099 19.9414 21.0936 21.2893 21.0936C21.6308 21.0936 21.9609 21.1523 22.2656 21.2617V18.1639C22.2656 16.5489 23.5803 15.2343 25.1953 15.2343C26.8107 15.2343 28.125 16.5489 28.125 18.1639V30.0097L29.7522 28.9257C31.7031 27.6211 34.3381 28.0702 35.7443 29.951C36.5918 31.0761 36.5157 32.6504 35.5608 33.6875L27.6544 42.3124C26.3673 43.7225 24.5294 44.5311 22.6193 44.5311ZM13.4766 26.953C12.9394 26.953 12.5002 27.3925 12.5002 27.9297V35.7421C12.5002 39.5118 15.5665 42.5781 19.3359 42.5781H22.6193C23.9844 42.5781 25.2951 42.002 26.2188 40.9942L34.1253 32.3693C34.4414 32.0235 34.4668 31.4999 34.1857 31.1251C33.3986 30.0744 31.9298 29.8223 30.8362 30.5507L27.6916 32.6464C27.3908 32.8478 27.0042 32.8653 26.6877 32.6933C26.3712 32.5234 26.172 32.1933 26.172 31.8339V18.1622C26.172 17.6268 25.7325 17.1876 25.1953 17.1876C24.6582 17.1876 24.219 17.6268 24.219 18.1639V28.9064C24.219 29.4453 23.7813 29.8827 23.2423 29.8827C22.7034 29.8827 22.2656 29.4453 22.2656 28.9064V24.0233C22.2656 23.4862 21.8265 23.047 21.2893 23.047C20.7521 23.047 20.3126 23.4862 20.3126 24.0233V28.9064C20.3126 29.4453 19.8752 29.8827 19.3359 29.8827C18.797 29.8827 18.3596 29.4453 18.3596 28.9064V25.9767C18.3596 25.4395 17.9201 25 17.3829 25C16.8458 25 16.4063 25.4395 16.4063 25.9767V28.9064C16.4063 29.4453 15.9689 29.8827 15.4299 29.8827C14.8906 29.8827 14.4532 29.4453 14.4532 28.9064V27.9297C14.4532 27.3925 14.0137 26.953 13.4766 26.953Z" fill="black"/>
<path d="M27.1484 48.4375C26.6091 48.4375 26.1718 48.0001 26.1718 47.4608V44.5311H14.453V47.4608C14.453 48.0001 14.0156 48.4375 13.4763 48.4375C12.9374 48.4375 12.5 48.0001 12.5 47.4608V43.5548C12.5 43.0155 12.9374 42.5781 13.4763 42.5781H27.1484C27.6874 42.5781 28.1248 43.0155 28.1248 43.5548V47.4608C28.1248 48.0001 27.6874 48.4375 27.1484 48.4375Z" fill="black"/>
<path d="M31.0545 19.1406C30.5155 19.1406 30.0781 18.7033 30.0781 18.1639C30.0781 15.4707 27.8887 13.2813 25.1951 13.2813C22.5018 13.2813 20.3124 15.4707 20.3124 18.1639C20.3124 18.7033 19.875 19.1406 19.3357 19.1406C18.7968 19.1406 18.3594 18.7033 18.3594 18.1639C18.3594 14.3945 21.4257 11.3282 25.1951 11.3282C28.9648 11.3282 32.0311 14.3945 32.0311 18.1639C32.0311 18.7033 31.5938 19.1406 31.0545 19.1406Z" fill="black"/>
</svg>
