<svg width="50" height="50" viewBox="0 0 50 50" fill="none" xmlns="http://www.w3.org/2000/svg">
<path fill-rule="evenodd" clip-rule="evenodd" d="M36.8389 46.8065L46.7212 36.9362C47.5592 36.0992 47.5592 34.7284 46.7212 33.8914L45.0919 32.2666C44.2539 31.4295 42.884 31.4295 42.046 32.2666L42.0019 32.308L32.2052 42.0929L32.1636 42.1369C31.3257 42.9739 31.3257 44.3422 32.1636 45.1792L33.793 46.8065C33.9591 46.9724 34.1484 47.1072 34.3508 47.2082H36.2811C36.4835 47.1072 36.6703 46.9724 36.8389 46.8065Z" fill="#FCDAB4"/>
<path fill-rule="evenodd" clip-rule="evenodd" d="M32.2067 42.0929L42.0034 32.3081L37.7174 28.0271C31.2987 24.3916 26.102 32.7253 27.5315 37.4233L32.2067 42.0929Z" fill="#FFDCD5"/>
<path fill-rule="evenodd" clip-rule="evenodd" d="M13.3889 47.2082H15.3193C15.5217 47.1072 15.7084 46.9724 15.8771 46.8065L17.5065 45.1792C18.3444 44.3422 18.3444 42.9739 17.5065 42.137L17.4623 42.0929L7.66559 32.3081L7.62403 32.2667C6.78604 31.4296 5.41357 31.4296 4.57559 32.2667L2.94887 33.8915C2.11079 34.7285 2.11079 36.0993 2.94887 36.9363L12.8285 46.8066C12.9972 46.9724 13.1865 47.1072 13.3889 47.2082Z" fill="#F9B668"/>
<path fill-rule="evenodd" clip-rule="evenodd" d="M29.1178 36.6123L35.168 30.5719L37.7158 28.0272L38.5175 27.2266C39.4021 26.3403 39.4021 24.8944 38.5175 24.0107C37.6329 23.1245 36.1825 23.1245 35.2978 24.0107L36.1047 23.2022C36.9919 22.3186 36.9919 20.8701 36.1047 19.9864C35.2199 19.1002 33.7696 19.1002 32.8849 19.9864L33.6918 19.1779C34.5791 18.2943 34.5791 16.8458 33.6918 15.9621C32.8071 15.0784 31.3568 15.0784 30.472 15.9621L31.2816 15.1562C32.1662 14.27 32.1662 12.824 31.2816 11.9378C30.7445 11.4039 30.0026 11.1915 29.3046 11.3055C28.8479 11.3781 28.4094 11.588 28.0592 11.9378L24.8343 15.1614L24.938 15.265L24.9562 15.2832C25.8409 16.1668 25.8409 17.6154 24.9562 18.499C24.0715 19.3853 22.6212 19.3853 21.7364 18.499C22.6212 19.3853 22.6212 20.8312 21.7364 21.7174C20.8492 22.6011 19.4014 22.6011 18.5141 21.7174C19.4014 22.6011 19.4014 24.0496 18.5141 24.9333C17.6294 25.8169 16.1817 25.8169 15.2944 24.9333C16.1817 25.8169 16.1817 27.2655 15.2944 28.1491C14.4097 29.0353 12.9594 29.0353 12.0746 28.1491L11.9527 28.0272L7.66406 32.3082L17.4607 42.093L21.5548 38.0039C22.7145 36.8042 25.4309 37.8536 27.5298 37.4234C28.1267 37.3017 28.6715 37.058 29.1178 36.6123Z" fill="#FFD0C7"/>
<path fill-rule="evenodd" clip-rule="evenodd" d="M21.7364 18.499C22.6212 19.3853 24.0715 19.3853 24.9562 18.499C25.8409 17.6154 25.8409 16.1668 24.9562 15.2832L24.9381 15.265C23.5708 15.1666 20.9556 12.7955 20.7999 11.1318C19.9125 10.2456 18.4649 10.2456 17.5776 11.1318C16.6929 12.0155 16.6929 13.4641 17.5776 14.3476L18.3871 15.1561L21.7364 18.499Z" fill="#FFDCD5"/>
<path fill-rule="evenodd" clip-rule="evenodd" d="M18.5162 21.7173C19.4036 22.601 20.8513 22.601 21.7385 21.7173C22.6233 20.831 22.6233 19.3852 21.7385 18.4989L18.3891 15.1561C17.5018 14.2699 16.0541 14.2699 15.1694 15.1561C14.2821 16.0397 14.2821 17.4857 15.1694 18.3719L15.9763 19.1779L18.5162 21.7173Z" fill="#FFDCD5"/>
<path fill-rule="evenodd" clip-rule="evenodd" d="M15.2952 24.9332C16.1826 25.8168 17.6303 25.8168 18.515 24.9332C19.4023 24.0495 19.4023 22.601 18.515 21.7173L15.975 19.1778C15.0903 18.2942 13.64 18.2942 12.7553 19.1778C11.868 20.0641 11.868 21.51 12.7553 22.3963L14.3716 24.0106L15.2952 24.9332Z" fill="#FFDCD5"/>
<path fill-rule="evenodd" clip-rule="evenodd" d="M12.078 28.149C12.9628 29.0352 14.4131 29.0352 15.2977 28.149C16.1851 27.2654 16.1851 25.8168 15.2977 24.9332L14.3742 24.0106C13.4868 23.1244 12.0391 23.1244 11.1519 24.0106C10.2671 24.8943 10.2671 26.3402 11.1519 27.2265L11.9562 28.0271L12.078 28.149Z" fill="#FFDCD5"/>
<path fill-rule="evenodd" clip-rule="evenodd" d="M24.8358 15.1613L28.0607 11.9377C28.4109 11.5879 28.8494 11.3781 29.3061 11.3055L23.0767 10.1264C21.847 9.89316 20.682 9.88547 20.8014 11.1319C20.9571 12.7955 23.5723 15.1665 24.9395 15.265L24.8358 15.1613Z" fill="#FFDCD5"/>
<path d="M24.8361 7.51894C25.3453 7.51894 25.7581 7.10613 25.7581 6.59691V2.48453C25.7581 1.97531 25.3453 1.5625 24.8361 1.5625C24.3269 1.5625 23.9141 1.97531 23.9141 2.48453V6.59691C23.9142 7.10613 24.327 7.51894 24.8361 7.51894Z" fill="black"/>
<path d="M47.3744 33.2385L45.7456 31.6142C45.1661 31.0355 44.3939 30.7167 43.571 30.7167C43.0448 30.7167 42.5397 30.8476 42.0921 31.0929L39.0227 28.0272L39.1722 27.8778C40.4175 26.6302 40.417 24.6027 39.1721 23.3592C38.7273 22.9136 38.1722 22.6164 37.5671 22.4913C37.6504 22.2038 37.6943 21.9025 37.6943 21.5943C37.6943 20.7378 37.3616 19.9347 36.7594 19.3349C36.3144 18.8893 35.7594 18.5921 35.1543 18.467C35.2377 18.1794 35.2815 17.8783 35.2815 17.57C35.2815 16.7134 34.9488 15.9104 34.3456 15.3097C33.89 14.8547 33.33 14.5667 32.7419 14.4441C33.0565 13.3594 32.7877 12.1391 31.9344 11.2844C31.2242 10.5772 30.2604 10.2732 29.3316 10.3717L23.2492 9.22042C22.3216 9.04446 21.1632 8.9281 20.4321 9.59506C20.3859 9.63717 20.3389 9.68561 20.2924 9.73953C19.1586 9.32626 17.8363 9.57235 16.9283 10.4793C16.326 11.0809 15.9942 11.8836 15.9942 12.7396C15.9942 13.048 16.0379 13.3491 16.1211 13.6368C15.5167 13.7617 14.9623 14.0585 14.5189 14.5028C13.9154 15.1038 13.5826 15.9056 13.582 16.7606C13.5817 17.0697 13.6255 17.3719 13.7092 17.6602C13.1045 17.7849 12.5498 18.0812 12.105 18.5254C11.5015 19.1283 11.1692 19.9315 11.1692 20.7871C11.1692 21.4425 11.3648 22.0667 11.7274 22.594C11.2696 22.7492 10.8503 23.0075 10.4992 23.3582C9.25314 24.6027 9.25269 26.6303 10.5 27.8798L10.649 28.0281L7.57919 31.0923C6.43834 30.5551 5.03273 30.7564 4.09129 31.6966L2.46146 33.3219C1.88175 33.9008 1.56259 34.6732 1.5625 35.4965C1.5625 36.32 1.88175 37.0924 2.46146 37.6715L4.4955 39.703C4.85576 40.0629 5.43959 40.0626 5.79939 39.7023C6.15929 39.342 6.15892 38.7582 5.79866 38.3984L3.76463 36.3668C3.53373 36.1362 3.40656 35.8271 3.40656 35.4966C3.40656 35.1662 3.53373 34.8572 3.76408 34.6271L5.394 33.0018C5.80123 32.5949 6.42452 32.5344 6.89785 32.8174C6.93117 32.8675 6.96972 32.9152 7.01385 32.9593C7.09276 33.0385 7.18294 33.0992 7.2788 33.1436L16.6257 42.4768C16.6701 42.5736 16.7311 42.6647 16.8107 42.7443C16.8881 42.822 16.9765 42.8818 17.0702 42.926C17.2679 43.1495 17.3771 43.4349 17.3771 43.7394C17.3771 44.0699 17.2499 44.3789 17.019 44.6095L15.3908 46.2359C14.9097 46.7149 14.1271 46.7148 13.6474 46.2374L11.6133 44.2031C11.2532 43.8431 10.6695 43.8431 10.3094 44.203C9.94931 44.5631 9.94922 45.1469 10.3093 45.5069L12.3448 47.5426C12.944 48.1392 13.7308 48.4375 14.5179 48.4375C15.3053 48.4375 16.093 48.1388 16.6928 47.5416L18.3221 45.9143C18.9018 45.3352 19.2211 44.5628 19.2211 43.7393C19.2211 43.1516 19.0577 42.5904 18.7537 42.1065L22.2085 38.6558C22.2122 38.6521 22.216 38.6483 22.2196 38.6447C22.6152 38.2357 23.7169 38.3122 24.7823 38.3862C25.5392 38.4388 26.3832 38.4974 27.2077 38.4023L30.9911 42.1812C30.746 42.6281 30.6151 43.1325 30.6151 43.6578C30.6151 44.4804 30.9344 45.2523 31.5141 45.8314L33.1435 47.4588C33.7228 48.0375 34.4951 48.3563 35.3179 48.3563C36.1407 48.3563 36.913 48.0375 37.4924 47.4588L47.3748 37.5884C47.9545 37.0094 48.2737 36.2371 48.2737 35.4137C48.2739 34.5903 47.9547 33.818 47.3744 33.2385ZM22.9059 11.0323L26.9056 11.7893L24.5116 14.1824C24.1412 14.0044 23.6337 13.6725 23.0768 13.1398C22.3147 12.4107 21.7694 11.5689 21.7198 11.0438C21.7197 11.0435 21.7197 11.0432 21.7197 11.043C21.7197 11.0429 21.7197 11.0428 21.7197 11.0427C21.7162 11.005 21.7153 10.9749 21.7157 10.9519C21.8361 10.9226 22.1565 10.8901 22.9059 11.0323ZM18.2314 11.784C18.6985 11.3174 19.4241 11.2635 19.9519 11.6209C20.2511 12.875 21.3208 14.0117 21.8021 14.4722C22.1588 14.8135 23.3033 15.8368 24.4586 16.118C24.6148 16.3421 24.6999 16.6091 24.6999 16.8909C24.6999 17.2539 24.5603 17.5933 24.3058 17.8475C24.0522 18.1016 23.7122 18.2415 23.3486 18.2415C22.9848 18.2415 22.6449 18.1016 22.39 17.8463L22.3899 17.8462L22.3895 17.8457L18.2313 13.6951C17.9778 13.4419 17.8382 13.1026 17.8382 12.7396C17.8383 12.3766 17.9779 12.0372 18.2314 11.784ZM15.8221 15.8075C16.0758 15.5534 16.4153 15.4134 16.7784 15.4134C17.142 15.4134 17.4827 15.5537 17.738 15.8088L21.0863 19.1504C21.6135 19.6784 21.6135 20.5378 21.0881 21.064C20.8331 21.3181 20.4919 21.458 20.1276 21.458C19.7633 21.458 19.4222 21.3181 19.1683 21.0651L19.1682 21.065L16.628 18.5254C16.6241 18.5215 16.6198 18.5178 16.6158 18.5138L15.8211 17.7195C15.5661 17.4648 15.4257 17.1248 15.426 16.762C15.4264 16.4005 15.5663 16.0622 15.8221 15.8075ZM13.4082 19.8301C13.6621 19.5766 14.0024 19.437 14.3666 19.437C14.7277 19.437 15.0651 19.5746 15.3179 19.8237L17.8658 22.3705C18.1199 22.6235 18.2599 22.9625 18.2599 23.3251C18.2599 23.6876 18.1199 24.0266 17.8648 24.2806C17.611 24.5341 17.2711 24.6737 16.9075 24.6737C16.5434 24.6737 16.2024 24.5337 15.9482 24.2806L15.0246 23.3581C15.0244 23.3578 15.0241 23.3576 15.0239 23.3574L13.4083 21.7437C13.1536 21.4893 13.0133 21.1494 13.0133 20.7869C13.0133 20.4244 13.1536 20.0845 13.4082 19.8301ZM11.8023 24.663C12.0573 24.4083 12.3981 24.268 12.7618 24.268C13.1254 24.268 13.4661 24.4082 13.721 24.6627L14.646 25.5865C14.9 25.8396 15.04 26.1786 15.04 26.5412C15.04 26.9037 14.9 27.2427 14.6441 27.4977C14.3904 27.7518 14.0504 27.8918 13.6868 27.8918C13.323 27.8918 12.9831 27.7519 12.7276 27.4959L12.6118 27.3805C12.6102 27.379 12.609 27.3773 12.6076 27.3759C12.6058 27.3742 12.604 27.3727 12.6022 27.3711L11.8033 26.5752C11.276 26.0468 11.2756 25.189 11.8023 24.663ZM30.5922 35.1419C30.2323 34.7815 29.6484 34.7812 29.2883 35.141L28.4679 35.9602C27.6885 36.7397 26.2761 36.6416 24.9101 36.5468C23.4268 36.4437 21.8931 36.3374 20.9005 37.3563L17.5044 40.7484L9.01163 32.2681L12.0171 29.268C12.5139 29.5725 13.0871 29.7357 13.6869 29.7357C14.5436 29.7357 15.3472 29.4036 15.9473 28.8023C16.5515 28.2007 16.8843 27.3977 16.8843 26.5411C16.8843 26.5331 16.8837 26.5252 16.8837 26.5173C16.8917 26.5174 16.8997 26.5178 16.9076 26.5178C17.7633 26.5178 18.5661 26.1867 19.1671 25.5865C19.7712 24.9848 20.104 24.1817 20.104 23.3252C20.104 23.3172 20.1035 23.3093 20.1035 23.3014C20.1115 23.3014 20.1196 23.3019 20.1277 23.3019C20.9831 23.3019 21.7864 22.9711 22.3914 22.3686C23.0194 21.7396 23.3301 20.9114 23.3241 20.0849C23.3324 20.0849 23.3406 20.0855 23.3488 20.0855C24.2057 20.0855 25.0091 19.7533 25.6101 19.1512C26.2124 18.5496 26.5442 17.7469 26.5442 16.8908C26.5442 16.2923 26.3814 15.72 26.0779 15.2241L28.7122 12.591C28.9085 12.3955 29.1506 12.2728 29.4043 12.2222C29.4317 12.2192 29.4588 12.2149 29.4856 12.2095C29.8927 12.1534 30.3202 12.2789 30.6314 12.589C31.1587 13.1172 31.1587 13.9765 30.6334 14.5028L29.8311 15.3017C29.8284 15.3044 29.8256 15.3068 29.8229 15.3095L28.899 16.232C28.5386 16.5918 28.5383 17.1757 28.8981 17.5359C29.2581 17.8963 29.8419 17.8965 30.202 17.5367L31.0075 16.7324C31.0077 16.7322 31.0079 16.732 31.0081 16.7318L31.1298 16.6105C31.6586 16.0866 32.5151 16.0877 33.0433 16.6152C33.2975 16.8682 33.4374 17.2072 33.4374 17.5698C33.4374 17.9323 33.2975 18.2713 33.0413 18.5263L32.2344 19.3348C32.2343 19.3349 32.2343 19.335 32.2342 19.3352L31.3102 20.2554C30.9494 20.6148 30.9482 21.1986 31.3076 21.5593C31.6669 21.9201 32.2506 21.9212 32.6115 21.562L33.5396 20.6376C33.7933 20.3834 34.1332 20.2435 34.4969 20.2435C34.8606 20.2435 35.2007 20.3834 35.4562 20.6394C35.7103 20.8925 35.8502 21.2315 35.8502 21.594C35.8502 21.9565 35.7103 22.2955 35.4547 22.55L33.8461 24.1592C33.4861 24.5194 33.4862 25.1031 33.8463 25.4631C34.0264 25.6431 34.2622 25.733 34.4982 25.733C34.7342 25.733 34.9702 25.6429 35.1502 25.4629L35.9386 24.6742C35.9431 24.6699 35.9479 24.6662 35.9524 24.6617C36.2061 24.4075 36.546 24.2676 36.9097 24.2676C37.2733 24.2676 37.6134 24.4075 37.868 24.6626C38.3947 25.1887 38.3942 26.0466 37.8681 26.5738L37.0665 27.3744C37.0662 27.3747 37.0659 27.3749 37.0656 27.3752C37.0653 27.3755 37.0651 27.3759 37.0648 27.3761L35.7926 28.6468C35.4323 29.0067 35.4319 29.5904 35.7917 29.9508C35.9718 30.1311 36.208 30.2212 36.4441 30.2212C36.68 30.2212 36.9157 30.1313 37.0957 29.9516L37.718 29.3301L40.7005 32.3091L32.2085 40.7908L29.1658 37.7518C29.378 37.6153 29.581 37.4549 29.7715 37.2644L30.5913 36.4456C30.9517 36.0859 30.9521 35.5021 30.5922 35.1419ZM46.0718 36.2837L36.1894 46.154C35.9583 46.3849 35.6488 46.5121 35.3181 46.5121C34.9874 46.5121 34.678 46.3849 34.4467 46.1539L32.8174 44.5266C32.5865 44.2961 32.4593 43.9875 32.4593 43.6578C32.4593 43.3283 32.5865 43.0197 32.8174 42.7891L42.6997 32.9188C42.931 32.6878 43.2404 32.5606 43.5711 32.5606C43.9018 32.5606 44.2112 32.6878 44.4429 32.9193L46.0718 34.5436C46.3027 34.7742 46.4298 35.0831 46.4298 35.4136C46.4298 35.7442 46.3027 36.0532 46.0718 36.2837Z" fill="black"/>
<path d="M12.5915 6.74161C12.7714 6.92124 13.0071 7.01096 13.2428 7.01096C13.479 7.01096 13.7153 6.92069 13.8954 6.74024C14.2551 6.37979 14.2545 5.79605 13.8941 5.43634L10.5343 2.08321C10.1739 1.7234 9.59007 1.72395 9.23036 2.08449C8.87064 2.44493 8.87119 3.02868 9.23164 3.38839L12.5915 6.74161Z" fill="black"/>
<path d="M36.4298 7.01105C36.6656 7.01105 36.9014 6.92114 37.0814 6.74143L40.4387 3.3882C40.7989 3.0284 40.7993 2.44456 40.4394 2.0843C40.0796 1.72395 39.4958 1.72367 39.1355 2.08357L35.7782 5.43679C35.418 5.7966 35.4176 6.38043 35.7775 6.74069C35.9576 6.92087 36.1937 7.01105 36.4298 7.01105Z" fill="black"/>
<path d="M7.23326 41.2236C6.87629 41.5867 6.88124 42.1706 7.24443 42.5275L7.24708 42.5301C7.42625 42.7063 7.65889 42.794 7.89143 42.794C8.13011 42.794 8.36879 42.7016 8.54961 42.5177C8.90657 42.1546 8.90026 41.5694 8.53716 41.2125C8.17406 40.8555 7.59031 40.8605 7.23326 41.2236Z" fill="black"/>
<path d="M32.8462 33.8136C32.9865 33.8136 33.1288 33.7816 33.2624 33.7143C33.717 33.485 33.8997 32.9306 33.6704 32.4759C33.4411 32.0213 32.8865 31.8385 32.432 32.0679L32.4268 32.0704C31.9722 32.2998 31.7921 32.8529 32.0214 33.3076C32.1832 33.6287 32.5088 33.8136 32.8462 33.8136Z" fill="black"/>
</svg>
