<svg width="50" height="50" viewBox="0 0 50 50" fill="none" xmlns="http://www.w3.org/2000/svg">
<path d="M11.543 11.4668H41.4069" stroke="#111111" stroke-width="1.5121" stroke-miterlimit="10" stroke-linecap="round" stroke-linejoin="round"/>
<path d="M5.11593 40.0454H4.6623C2.92339 40.0454 1.5625 38.6845 1.5625 36.9456V14.5666C1.5625 12.8277 2.92339 11.4668 4.6623 11.4668H5.87198" stroke="#111111" stroke-width="1.5121" stroke-miterlimit="10" stroke-linecap="round" stroke-linejoin="round"/>
<path d="M41.4074 30.1411H43.4487C44.8096 30.1411 46.0949 30.6703 46.9265 31.5776C47.8338 32.4849 48.363 33.6945 48.363 35.0554C48.363 37.7772 46.1705 40.0453 43.3731 40.0453H20.4648" stroke="#111111" stroke-width="1.5121" stroke-miterlimit="10" stroke-linecap="round" stroke-linejoin="round"/>
<path d="M48.4361 7.15723V35.131C48.4361 33.7701 47.9069 32.5605 46.9996 31.6532C46.0924 30.7459 44.8827 30.2167 43.5218 30.2167H41.4805V2.24292H43.5218C44.8827 2.24292 46.168 2.84776 47.0752 3.67941C47.9069 4.51107 48.4361 5.72074 48.4361 7.15723Z" fill="#F9B668" stroke="#111111" stroke-width="1.5121" stroke-miterlimit="10" stroke-linecap="round" stroke-linejoin="round"/>
<path d="M37.6367 2.48413V8.2301H14.2748V2.48413H37.6367Z" stroke="#111111" stroke-width="1.5121" stroke-miterlimit="10" stroke-linecap="round" stroke-linejoin="round"/>
<path d="M34.5273 8.21566V5.7207" stroke="#111111" stroke-width="1.5121" stroke-miterlimit="10" stroke-linecap="round" stroke-linejoin="round"/>
<path d="M31.6523 8.21564V6.40112" stroke="#111111" stroke-width="1.5121" stroke-miterlimit="10" stroke-linecap="round" stroke-linejoin="round"/>
<path d="M28.7812 8.21566V5.7207" stroke="#111111" stroke-width="1.5121" stroke-miterlimit="10" stroke-linecap="round" stroke-linejoin="round"/>
<path d="M25.9102 8.21564V6.40112" stroke="#111111" stroke-width="1.5121" stroke-miterlimit="10" stroke-linecap="round" stroke-linejoin="round"/>
<path d="M23.1094 8.21566V5.7207" stroke="#111111" stroke-width="1.5121" stroke-miterlimit="10" stroke-linecap="round" stroke-linejoin="round"/>
<path d="M20.2383 8.21564V6.40112" stroke="#111111" stroke-width="1.5121" stroke-miterlimit="10" stroke-linecap="round" stroke-linejoin="round"/>
<path d="M17.3633 8.21566V5.7207" stroke="#111111" stroke-width="1.5121" stroke-miterlimit="10" stroke-linecap="round" stroke-linejoin="round"/>
<path d="M12.5252 23.1099L16.8347 20.6149L5.87198 1.5625C3.98185 1.6381 2.54536 2.46976 1.5625 4.05746L12.5252 23.1099Z" fill="#F9B668" stroke="#111111" stroke-width="1.5121" stroke-miterlimit="10" stroke-linecap="round" stroke-linejoin="round"/>
<path d="M16.8329 20.615L12.5234 23.1099L17.0597 26.0585L16.8329 20.615Z" fill="#FCDAB4" stroke="#111111" stroke-width="1.5121" stroke-miterlimit="10" stroke-linecap="round" stroke-linejoin="round"/>
<path d="M7.30809 4.20874L3.07422 6.6281Z" fill="#EF6561"/>
<path d="M7.30809 4.20874L3.07422 6.6281" stroke="#111111" stroke-width="1.5121" stroke-miterlimit="10" stroke-linecap="round" stroke-linejoin="round"/>
<path d="M28.252 47.8326H5.34375V24.9243L28.252 47.8326Z" fill="#F9B668" stroke="#111111" stroke-width="1.5121" stroke-miterlimit="10" stroke-linecap="round" stroke-linejoin="round"/>
<path d="M9.87891 43.2965V35.8872L17.2882 43.2965H9.87891Z" fill="white" stroke="#111111" stroke-width="1.5121" stroke-miterlimit="10" stroke-linecap="round" stroke-linejoin="round"/>
<path d="M8.89453 46.4717V47.8326Z" fill="#64C4F6"/>
<path d="M8.89453 46.4717V47.8326" stroke="#111111" stroke-width="1.5121" stroke-miterlimit="10" stroke-linecap="round" stroke-linejoin="round"/>
<path d="M12.5234 46.4717V47.8326Z" fill="#64C4F6"/>
<path d="M12.5234 46.4717V47.8326" stroke="#111111" stroke-width="1.5121" stroke-miterlimit="10" stroke-linecap="round" stroke-linejoin="round"/>
<path d="M16.0781 46.4717V47.8326Z" fill="#64C4F6"/>
<path d="M16.0781 46.4717V47.8326" stroke="#111111" stroke-width="1.5121" stroke-miterlimit="10" stroke-linecap="round" stroke-linejoin="round"/>
<path d="M19.707 46.4717V47.8326Z" fill="#64C4F6"/>
<path d="M19.707 46.4717V47.8326" stroke="#111111" stroke-width="1.5121" stroke-miterlimit="10" stroke-linecap="round" stroke-linejoin="round"/>
<path d="M23.2617 46.4717V47.8326Z" fill="#64C4F6"/>
<path d="M23.2617 46.4717V47.8326" stroke="#111111" stroke-width="1.5121" stroke-miterlimit="10" stroke-linecap="round" stroke-linejoin="round"/>
<path d="M25.3799 22.8074L28.9333 24.2439V32.7116L22.1289 29.9898V23.4122" fill="white"/>
<path d="M25.3799 22.8074L28.9333 24.2439V32.7116L22.1289 29.9898V23.4122" stroke="#111111" stroke-width="1.5121" stroke-miterlimit="10" stroke-linecap="round" stroke-linejoin="round"/>
<path d="M28.9336 32.7115L35.738 29.9897V21.522L28.9336 24.2437V32.7115Z" fill="white" stroke="#111111" stroke-width="1.5121" stroke-miterlimit="10" stroke-linecap="round" stroke-linejoin="round"/>
<path d="M25.2305 20.3124L28.9351 18.8003L35.7395 21.5221L28.9351 24.2438L25.3817 22.8073" fill="white"/>
<path d="M25.2305 20.3124L28.9351 18.8003L35.7395 21.5221L28.9351 24.2438L25.3817 22.8073" stroke="#111111" stroke-width="1.5121" stroke-miterlimit="10" stroke-linecap="round" stroke-linejoin="round"/>
<path d="M22.1289 23.4123C22.5069 23.7147 22.9606 23.8659 23.4898 23.8659C24.3214 23.8659 25.0019 23.4123 25.3799 22.8075C25.6067 22.505 25.6823 22.0514 25.6823 21.6734C25.6823 21.1442 25.5311 20.6905 25.1531 20.3125" stroke="#111111" stroke-width="1.5121" stroke-miterlimit="10" stroke-linecap="round" stroke-linejoin="round"/>
</svg>
