<svg width="50" height="50" viewBox="0 0 50 50" fill="none" xmlns="http://www.w3.org/2000/svg">
<path d="M34.346 39.8701L41.0929 36.6834C42.5804 35.9322 44.3956 36.4829 45.2152 37.9336L31.501 46.8047C29.6625 47.6532 27.5991 47.8867 25.6172 47.4707L16.1589 44.816C15.2883 44.572 14.3572 44.6737 13.5602 45.1006L11.582 46.159L11.8482 36.5122L11.9271 36.5141C14.7537 34.5059 18.4656 34.2461 21.5441 35.8413L22.1103 36.1345C22.9952 36.5929 23.9728 36.8456 24.9696 36.8726L30.5294 37.0262C32.2744 37.0739 33.8016 38.2118 34.346 39.8701Z" fill="#F7CAA5"/>
<path d="M36.1958 22.9471C36.1958 28.6804 31.5479 33.3282 25.8147 33.3282C20.0814 33.3282 15.4336 28.6804 15.4336 22.9471C15.4336 17.2139 20.0814 12.566 25.8147 12.566C31.5479 12.566 36.1958 17.2139 36.1958 22.9471Z" fill="#F9B668"/>
<path d="M11.583 46.159L11.5533 47.2447L5.45703 47.0777L5.82496 33.698L11.9224 33.8654L11.8491 36.5122L11.583 46.159Z" fill="white"/>
<path d="M25.8787 27.1449C25.7927 27.1261 25.7041 27.1227 25.6166 27.1351C24.7336 27.0386 24.0661 26.2908 24.0695 25.4025C24.0695 24.9779 23.7252 24.6336 23.3006 24.6336C22.876 24.6336 22.5317 24.9779 22.5317 25.4025C22.5264 26.8847 23.5191 28.1844 24.9499 28.5704V29.3385C24.9499 29.7631 25.2941 30.1074 25.7188 30.1074C26.1434 30.1074 26.4876 29.7631 26.4876 29.3385V28.6162C28.1343 28.2715 29.2538 26.7375 29.0804 25.0642C28.9073 23.3909 27.4972 22.119 25.8149 22.1186C24.8508 22.1186 24.0695 21.3373 24.0695 20.3732C24.0695 19.4095 24.8508 18.6278 25.8149 18.6278C26.779 18.6278 27.5602 19.4095 27.5602 20.3732C27.5602 20.7978 27.9045 21.1421 28.3291 21.1421C28.7537 21.1421 29.098 20.7978 29.098 20.3732C29.0958 18.82 28.0074 17.4801 26.4876 17.1599V16.4597C26.4876 16.0351 26.1434 15.6908 25.7188 15.6908C25.2941 15.6908 24.9499 16.0351 24.9499 16.4597V17.2068C23.3633 17.6397 22.3421 19.1801 22.5606 20.8098C22.7795 22.4399 24.1705 23.6567 25.8149 23.6563C26.7715 23.6488 27.5561 24.4128 27.5734 25.3691C27.591 26.3257 26.8353 27.1178 25.8787 27.1452V27.1449Z" fill="#111111"/>
<path d="M14.668 22.9471C14.668 29.1049 19.6601 34.0971 25.8179 34.0971C31.9758 34.0971 36.9679 29.1049 36.9679 22.9471C36.9679 16.7892 31.9758 11.7971 25.8179 11.7971C19.6631 11.8043 14.6751 16.7922 14.668 22.9471ZM25.8179 13.3349C31.1266 13.3349 35.4301 17.6385 35.4301 22.9471C35.4301 28.2557 31.1266 32.5593 25.8179 32.5593C20.5093 32.5593 16.2057 28.2557 16.2057 22.9471C16.2117 17.6411 20.512 13.3409 25.8179 13.3349Z" fill="#111111"/>
<path d="M40.7563 35.9919L34.7348 38.8362C33.9006 37.2913 32.3057 36.3088 30.551 36.2577L24.9904 36.1042C24.11 36.0786 23.2466 35.856 22.4638 35.4517L21.898 35.1588C19.0012 33.6485 15.5487 33.6522 12.6548 35.1682L12.6901 33.8861C12.7022 33.4619 12.3673 33.1082 11.9427 33.0966L5.84525 32.9291C5.64139 32.9235 5.44354 32.999 5.29562 33.139C5.14732 33.2794 5.06097 33.4728 5.05572 33.6766L4.68779 47.0563C4.67616 47.4809 5.01067 47.8342 5.43528 47.8458L11.5316 48.0133H11.553C11.9693 48.0129 12.3098 47.6814 12.3211 47.2654L12.3387 46.626L13.9234 45.7779C14.5448 45.4438 15.272 45.3642 15.9511 45.556L25.4098 48.2104C25.4259 48.2152 25.4425 48.219 25.4594 48.2227C26.1434 48.3658 26.8406 48.4379 27.5392 48.4375C29.0181 48.4382 30.4796 48.1195 31.8233 47.5023C31.8563 47.4869 31.8883 47.4693 31.9187 47.4497L45.6328 38.5786C45.9745 38.3579 46.0849 37.9092 45.8848 37.5548C44.8666 35.7482 42.6087 35.0605 40.7563 35.9919ZM10.8231 46.1376L10.8096 46.4548L6.24847 46.3298L6.57284 34.4875L11.137 34.6126L10.8231 46.1376ZM31.1306 46.129C29.4603 46.8828 27.5952 47.0908 25.7999 46.7233L16.3668 44.0757C15.3054 43.7761 14.169 43.9004 13.1977 44.4226L12.3875 44.8562L12.6049 36.9819C15.1695 35.276 18.4594 35.1006 21.1907 36.5243L21.7568 36.8171C22.7453 37.3277 23.8364 37.6096 24.9484 37.6412L30.5085 37.7951C31.9288 37.8357 33.1715 38.7618 33.616 40.1112C33.6558 40.2328 33.6888 40.3563 33.7147 40.4817L25.4319 40.2531C25.0073 40.2414 24.654 40.5759 24.642 41.0006C24.6304 41.4252 24.9653 41.7784 25.3895 41.7905L34.5287 42.042H34.5501C34.9664 42.0424 35.3073 41.7109 35.319 41.2941C35.328 40.96 35.3028 40.6259 35.2442 40.2966L41.422 37.378C41.428 37.3754 41.434 37.3724 41.44 37.3694C42.3163 36.926 43.3757 37.0743 44.0966 37.7414L31.1306 46.129Z" fill="#111111"/>
<path d="M26.5846 9.6358V2.33139C26.5846 1.90677 26.2404 1.5625 25.8158 1.5625C25.3911 1.5625 25.0469 1.90677 25.0469 2.33139V9.6358C25.0469 10.0604 25.3911 10.4047 25.8158 10.4047C26.2404 10.4047 26.5846 10.0604 26.5846 9.6358Z" fill="#111111"/>
<path d="M32.3503 9.63585V6.17587C32.3503 5.75125 32.006 5.40698 31.5814 5.40698C31.1568 5.40698 30.8125 5.75125 30.8125 6.17587V9.63585C30.8125 10.0605 31.1568 10.4047 31.5814 10.4047C32.006 10.4047 32.3503 10.0605 32.3503 9.63585Z" fill="#111111"/>
<path d="M20.819 9.63585V6.17587C20.819 5.75125 20.4748 5.40698 20.0501 5.40698C19.6255 5.40698 19.2812 5.75125 19.2812 6.17587V9.63585C19.2812 10.0605 19.6255 10.4047 20.0501 10.4047C20.4748 10.4047 20.819 10.0605 20.819 9.63585Z" fill="#111111"/>
</svg>
