<svg width="50" height="50" viewBox="0 0 50 50" fill="none" xmlns="http://www.w3.org/2000/svg">
<path d="M40.5668 14.175C37.7834 14.175 35.5308 11.9224 35.5308 9.1391C35.5308 8.31505 35.7322 7.50923 36.1167 6.77673H6.76213C5.44343 6.77673 4.36328 7.85724 4.36328 9.17559V41.0392C4.36328 42.3579 5.44343 43.4384 6.76213 43.4384H39.8343C41.1526 43.4384 42.2331 42.3579 42.2331 41.0392V13.8821C41.702 14.0835 41.1344 14.175 40.5668 14.175Z" fill="white"/>
<path d="M7.90004 16.1711H38.9031C39.2511 16.1711 39.5258 16.4458 39.5258 16.7938V23.0015C39.5258 23.3495 39.2511 23.6241 38.9031 23.6241H7.90004C7.55203 23.6241 7.27734 23.3495 7.27734 23.0015V16.7938C7.29594 16.4641 7.57063 16.1711 7.90004 16.1711Z" fill="#F9B668"/>
<path d="M7.90004 28.3672H15.2618C15.6095 28.3672 15.8842 28.6419 15.8842 28.9899V32.0479C15.8842 32.3959 15.6095 32.6706 15.2618 32.6706H7.90004C7.55203 32.6706 7.27734 32.3959 7.27734 32.0479V28.9899C7.29594 28.6419 7.57063 28.3672 7.90004 28.3672Z" fill="#56AF44"/>
<path d="M19.7278 28.3672H27.0896C27.4376 28.3672 27.7123 28.6419 27.7123 28.9899V32.0479C27.7123 32.3959 27.4376 32.6706 27.0896 32.6706H19.7278C19.3802 32.6706 19.1055 32.3959 19.1055 32.0479V28.9899C19.1055 28.6419 19.3802 28.3672 19.7278 28.3672Z" fill="#008ED3"/>
<path d="M31.5403 28.3672H38.9021C39.2501 28.3672 39.5248 28.6419 39.5248 28.9899V32.0479C39.5248 32.3959 39.2501 32.6706 38.9021 32.6706H31.5403C31.1927 32.6706 30.918 32.3959 30.918 32.0479V28.9899C30.918 28.6419 31.1927 28.3672 31.5403 28.3672Z" fill="#F6911D"/>
<path d="M45.6031 9.12087C45.6031 11.9021 43.3484 14.1568 40.5672 14.1568C37.786 14.1568 35.5312 11.9021 35.5312 9.12087C35.5312 6.33968 37.786 4.08496 40.5672 4.08496C43.3484 4.08496 45.6031 6.33968 45.6031 9.12087Z" fill="#F9B668"/>
<path d="M35.5126 9.12092C35.5126 8.29686 35.714 7.49104 36.0985 6.75854H6.76213C5.44343 6.75854 4.36328 7.83905 4.36328 9.1574V11.5931H36.1718C35.7504 10.8606 35.5126 9.9997 35.5126 9.12092Z" fill="#F9B668"/>
<path d="M17.7322 46.7346H17.4024V46.4048C17.4024 46.1484 17.2011 45.947 16.9446 45.947C16.6882 45.947 16.4868 46.1484 16.4868 46.4048V46.7346H16.157C15.9009 46.7346 15.6992 46.936 15.6992 47.1924C15.6992 47.4485 15.9009 47.6502 16.157 47.6502H16.4868V47.9796C16.4868 48.2361 16.6882 48.4374 16.9446 48.4374C17.2011 48.4374 17.4024 48.2361 17.4024 47.9796V47.6502H17.7322C17.9883 47.6502 18.19 47.4485 18.19 47.1924C18.19 46.936 17.9883 46.7346 17.7322 46.7346Z" fill="#FFCD29"/>
<path d="M35.258 1.92401C35.258 1.88753 35.2398 1.86929 35.2398 1.83245C35.2216 1.81421 35.2216 1.77772 35.203 1.75913C35.1847 1.74088 35.1665 1.7044 35.1482 1.68616C34.9651 1.52128 34.6904 1.52128 34.5073 1.68616C34.4891 1.7044 34.4705 1.72264 34.4522 1.75913C34.434 1.77772 34.4157 1.81421 34.4157 1.83245C34.3975 1.86929 34.3975 1.88753 34.3975 1.92401C34.3975 1.96085 34.3789 1.97909 34.3789 2.01557C34.3789 2.05241 34.3789 2.07065 34.3975 2.10713C34.3975 2.14397 34.4157 2.16221 34.4157 2.1987C34.434 2.23553 34.434 2.25378 34.4522 2.27202C34.4705 2.29026 34.4891 2.3271 34.5073 2.34534C34.6904 2.52846 34.9651 2.52846 35.1482 2.34534C35.1665 2.3271 35.1847 2.3085 35.203 2.27202C35.2216 2.25378 35.2398 2.21694 35.2398 2.1987C35.258 2.18045 35.258 2.14397 35.258 2.10713C35.258 2.07065 35.258 2.05241 35.2763 2.01557C35.258 1.97909 35.258 1.94225 35.258 1.92401Z" fill="#EA4647"/>
<path d="M13.3927 45.7457C13.3927 45.7088 13.3745 45.6906 13.3745 45.6541C13.3562 45.6359 13.3562 45.599 13.338 45.5808C13.3194 45.5625 13.3012 45.5257 13.2829 45.5075C13.0998 45.3426 12.8251 45.3426 12.642 45.5075C12.6238 45.5257 12.6055 45.5443 12.5869 45.5808C12.5504 45.6359 12.5322 45.6906 12.5139 45.7457C12.4954 45.8004 12.4954 45.8737 12.5139 45.9288C12.5139 45.9653 12.5322 45.9835 12.5322 46.0203C12.5504 46.0568 12.5504 46.0751 12.5687 46.0937C12.5869 46.1119 12.6055 46.1484 12.6238 46.1666C12.8069 46.3498 13.0816 46.3498 13.2647 46.1666C13.2829 46.1484 13.3012 46.1301 13.3194 46.0937C13.338 46.0751 13.3562 46.0386 13.3562 46.0203C13.3745 46.0021 13.3745 45.9653 13.3745 45.9288C13.3927 45.8737 13.3927 45.8004 13.3927 45.7457Z" fill="#6DCC6D"/>
<path d="M31.7408 3.95665C31.1363 3.84684 30.6603 3.37079 30.5319 2.7481C30.5319 2.72986 30.5136 2.72986 30.4954 2.72986C30.4771 2.72986 30.4771 2.7481 30.4771 2.7481C30.3673 3.35255 29.8909 3.8286 29.2686 3.95665C29.25 3.95665 29.25 3.97524 29.25 3.99349C29.25 4.01173 29.2686 4.01173 29.2686 4.01173C29.8727 4.12153 30.3487 4.59758 30.4771 5.22027C30.4771 5.23851 30.4954 5.23851 30.5136 5.23851C30.5319 5.23851 30.5319 5.22027 30.5319 5.22027C30.642 4.61618 31.1181 4.13977 31.7408 4.01173C31.759 4.01173 31.759 3.99349 31.759 3.97524C31.759 3.95665 31.759 3.95665 31.7408 3.95665Z" fill="#55ACD5"/>
<path d="M39.835 43.8962H6.76291C5.18812 43.8962 3.90625 42.6144 3.90625 41.0392V9.17563C3.90625 7.60084 5.18812 6.31897 6.76291 6.31897H36.0992C36.3557 6.31897 36.557 6.52033 36.557 6.77678C36.557 6.8501 36.5388 6.92342 36.5023 6.99674C36.1543 7.65592 35.9712 8.38841 35.9712 9.13915C35.9712 11.6664 38.022 13.7172 40.5675 13.7172C41.0804 13.7172 41.593 13.6257 42.0876 13.4608C42.3254 13.3692 42.5819 13.4976 42.6735 13.7355C42.6917 13.7906 42.6917 13.8271 42.6917 13.8821V41.0392C42.6917 42.6144 41.4098 43.8962 39.835 43.8962ZM6.76291 7.23459C5.68241 7.23459 4.82187 8.11373 4.82187 9.17563V41.0392C4.82187 42.1197 5.70065 42.9806 6.76291 42.9806H39.835C40.9155 42.9806 41.7761 42.1015 41.7761 41.0392V14.5048C38.8096 15.1822 35.8614 13.3145 35.2019 10.3477C34.964 9.30403 35.0373 8.22353 35.4036 7.23459H6.76291Z" fill="#231F20"/>
<path d="M36.1726 12.0691H4.36406C4.10761 12.0691 3.90625 11.8678 3.90625 11.6113V9.17563C3.90625 7.60084 5.18812 6.31897 6.76291 6.31897H36.0992C36.3557 6.31897 36.557 6.52033 36.557 6.77678C36.557 6.8501 36.5388 6.92342 36.5023 6.99674C36.1543 7.65592 35.9712 8.38841 35.9712 9.13915C35.9712 9.92673 36.1726 10.7139 36.5753 11.3917C36.7037 11.6113 36.6304 11.886 36.4108 12.0141C36.3374 12.0509 36.2459 12.0691 36.1726 12.0691ZM4.82187 11.1535H35.4583C34.964 9.88989 34.9458 8.49822 35.4036 7.23459H6.76291C5.68241 7.23459 4.82187 8.11373 4.82187 9.17563V11.1535Z" fill="#231F20"/>
<path d="M7.29504 9.65203C7.2582 9.65203 7.23996 9.65203 7.20348 9.65203C7.16664 9.65203 7.1484 9.63343 7.11191 9.63343C7.09332 9.61519 7.05683 9.61519 7.03859 9.59695C7.02035 9.57871 6.98351 9.56046 6.96527 9.54187C6.94703 9.52363 6.92879 9.48714 6.91019 9.4689C6.89195 9.4503 6.87371 9.41382 6.87371 9.39558C6.85547 9.37734 6.85547 9.3405 6.85547 9.30402C6.85547 9.26718 6.85547 9.24894 6.85547 9.21246C6.85547 9.17562 6.85547 9.15738 6.85547 9.1209C6.87371 9.06582 6.89195 9.01109 6.92879 8.95601C6.94703 8.93777 6.96527 8.90093 6.98351 8.88269C7.00175 8.86445 7.02035 8.84621 7.05683 8.82797C7.11191 8.79113 7.16664 8.77289 7.22172 8.75465C7.27644 8.73641 7.34976 8.73641 7.40484 8.75465C7.45956 8.77289 7.51464 8.79113 7.56972 8.82797C7.58796 8.84621 7.62445 8.86445 7.64269 8.88269C7.66129 8.90093 7.67953 8.91953 7.69777 8.95601C7.73425 9.01109 7.75285 9.06582 7.77109 9.1209V9.21246C7.77109 9.3405 7.71601 9.4503 7.64269 9.54187C7.62445 9.56046 7.60621 9.57871 7.56972 9.59695C7.55113 9.61519 7.51464 9.63343 7.4964 9.63343C7.45956 9.65203 7.44132 9.65203 7.40484 9.65203C7.34976 9.65203 7.31328 9.65203 7.29504 9.65203Z" fill="#231F20"/>
<path d="M9.05156 9.65205C8.79511 9.65205 8.59375 9.45033 8.59375 9.19424C8.59375 9.06584 8.64847 8.95604 8.72179 8.86447C8.74003 8.84623 8.75863 8.82799 8.79511 8.80939C8.81336 8.79115 8.8502 8.77291 8.86844 8.77291C8.90492 8.75467 8.92316 8.75467 8.96 8.75467C9.19784 8.69959 9.45429 8.86447 9.49113 9.10268C9.49113 9.13916 9.50937 9.1574 9.50937 9.19424C9.50937 9.45033 9.30801 9.65205 9.05156 9.65205Z" fill="#231F20"/>
<path d="M10.8263 9.65195C10.6982 9.65195 10.5884 9.59687 10.4969 9.52355C10.4783 9.50531 10.46 9.48706 10.4418 9.45023C10.4236 9.43198 10.4053 9.3955 10.4053 9.37726C10.3867 9.35866 10.3867 9.32218 10.3867 9.2857C10.3867 9.24886 10.3867 9.23062 10.3867 9.19414C10.3867 8.93769 10.5884 8.73633 10.8445 8.73633C10.8814 8.73633 10.8996 8.73633 10.9361 8.75457C10.9912 8.77281 11.0463 8.79105 11.101 8.82789C11.1192 8.84613 11.1561 8.86437 11.1743 8.88261C11.2659 8.97417 11.3023 9.08398 11.3023 9.21238V9.30394C11.3023 9.34042 11.2841 9.35866 11.2841 9.3955C11.2659 9.43198 11.2659 9.45023 11.2476 9.46882C11.2294 9.48706 11.2108 9.52355 11.1925 9.54179C11.1743 9.56039 11.1561 9.57863 11.1192 9.59687C11.101 9.61511 11.0645 9.63335 11.0463 9.63335C11.0094 9.65195 10.9912 9.65195 10.9547 9.65195C10.8814 9.65195 10.8445 9.65195 10.8263 9.65195Z" fill="#231F20"/>
<path d="M21.5242 26.5724C21.2678 26.5724 21.0664 26.371 21.0664 26.1146C21.0664 25.9865 21.1215 25.8767 21.1944 25.7852C21.3776 25.6203 21.6523 25.6203 21.8354 25.7852C21.854 25.8034 21.8722 25.8216 21.8905 25.8585C21.9269 25.9132 21.9455 25.9683 21.9638 26.023C21.9638 26.0598 21.9638 26.0781 21.982 26.1146C21.982 26.3528 21.7807 26.5724 21.5242 26.5724Z" fill="#231F20"/>
<path d="M23.3003 26.5724C23.1722 26.5724 23.0624 26.5177 22.9709 26.4443C22.9526 26.4261 22.934 26.4079 22.9158 26.371C22.8793 26.3163 22.8611 26.2612 22.8425 26.2061C22.8425 26.1697 22.8425 26.1514 22.8242 26.1146C22.8242 25.9865 22.8793 25.8767 22.9526 25.7852C23.1357 25.6203 23.4104 25.6203 23.5936 25.7852C23.7767 25.9683 23.7767 26.2612 23.5936 26.4261C23.5385 26.5177 23.4287 26.5724 23.3003 26.5724Z" fill="#231F20"/>
<path d="M25.057 26.5724C25.0201 26.5724 25.0019 26.5724 24.9654 26.5542C24.9286 26.5542 24.9103 26.5359 24.8738 26.5359C24.837 26.5177 24.8187 26.5177 24.8005 26.4994C24.7823 26.4808 24.7454 26.4626 24.7272 26.4444C24.5441 26.2612 24.5441 25.9683 24.7272 25.8034C24.7454 25.7852 24.7637 25.7669 24.8005 25.7483C24.9836 25.6203 25.2215 25.6568 25.3864 25.8034C25.5695 25.9865 25.5695 26.2795 25.3864 26.4444C25.2948 26.5177 25.185 26.5724 25.057 26.5724Z" fill="#231F20"/>
<path d="M33.7352 9.65195H16.2469C15.9908 9.65195 15.7891 9.45023 15.7891 9.19414C15.7891 8.93769 15.9908 8.73633 16.2469 8.73633H33.7352C33.9917 8.73633 34.193 8.93769 34.193 9.19414C34.193 9.45023 33.9917 9.65195 33.7352 9.65195Z" fill="#231F20"/>
<path d="M40.5679 14.6328C37.5282 14.6328 35.0742 12.1607 35.0742 9.13911C35.0742 6.11756 37.5464 3.64539 40.5679 3.64539C43.5895 3.64539 46.0617 6.11756 46.0617 9.13911C46.0617 12.1607 43.6077 14.6328 40.5679 14.6328ZM40.5679 4.54276C38.0407 4.54276 35.9898 6.59361 35.9898 9.12086C35.9898 11.6478 38.0407 13.699 40.5679 13.699C43.0952 13.699 45.146 11.6478 45.146 9.12086C45.146 6.59361 43.0952 4.54276 40.5679 4.54276Z" fill="#231F20"/>
<path d="M40.5672 11.7944C40.3107 11.7944 40.1094 11.593 40.1094 11.3366V6.92339C40.1094 6.66694 40.3107 6.46558 40.5672 6.46558C40.8236 6.46558 41.025 6.66694 41.025 6.92339V11.3548C41.025 11.593 40.8236 11.7944 40.5672 11.7944Z" fill="#231F20"/>
<path d="M42.7838 9.57871H38.3523C38.0959 9.57871 37.8945 9.37734 37.8945 9.1209C37.8945 8.86445 38.0959 8.66309 38.3523 8.66309H42.7838C43.0402 8.66309 43.2416 8.86445 43.2416 9.1209C43.2416 9.37734 43.022 9.57871 42.7838 9.57871Z" fill="#231F20"/>
<path d="M38.8999 24.082H7.89691C7.31106 24.082 6.81641 23.606 6.81641 23.0015V16.7939C6.81641 16.2077 7.29281 15.7134 7.89691 15.7134H38.8999C39.4858 15.7134 39.9804 16.1894 39.9804 16.7939V23.0015C39.9618 23.606 39.4858 24.082 38.8999 24.082ZM7.89691 16.629C7.80535 16.629 7.73203 16.7023 7.73203 16.7939V23.0015C7.73203 23.0931 7.80535 23.1664 7.89691 23.1664H38.8999C38.9915 23.1664 39.0648 23.0931 39.0648 23.0015V16.7939C39.0648 16.7023 38.9915 16.629 38.8999 16.629H7.89691Z" fill="#231F20"/>
<path d="M15.2587 33.1283H7.89691C7.31106 33.1283 6.81641 32.6523 6.81641 32.0478V28.9898C6.81641 28.4036 7.29281 27.9093 7.89691 27.9093H15.2587C15.8446 27.9093 16.3389 28.3854 16.3389 28.9898V32.0478C16.3389 32.634 15.8628 33.1283 15.2587 33.1283ZM7.89691 28.8249C7.80535 28.8249 7.73203 28.8982 7.73203 28.9898V32.0478C7.73203 32.1394 7.80535 32.2127 7.89691 32.2127H15.2587C15.3503 32.2127 15.4232 32.1394 15.4232 32.0478V28.9898C15.4232 28.8982 15.3503 28.8249 15.2587 28.8249H7.89691Z" fill="#231F20"/>
<path d="M27.0904 33.1283H19.7286C19.1427 33.1283 18.6484 32.6523 18.6484 32.0478V28.9898C18.6484 28.4036 19.1245 27.9093 19.7286 27.9093H27.0904C27.6762 27.9093 28.1709 28.3854 28.1709 28.9898V32.0478C28.1523 32.634 27.6762 33.1283 27.0904 33.1283ZM19.7286 28.8249C19.637 28.8249 19.5641 28.8982 19.5641 28.9898V32.0478C19.5641 32.1394 19.637 32.2127 19.7286 32.2127H27.0904C27.1819 32.2127 27.2553 32.1394 27.2553 32.0478V28.9898C27.2553 28.8982 27.1819 28.8249 27.0904 28.8249H19.7286Z" fill="#231F20"/>
<path d="M38.9029 33.1283H31.5411C30.9552 33.1283 30.4609 32.6523 30.4609 32.0478V28.9898C30.4609 28.4036 30.937 27.9093 31.5411 27.9093H38.9029C39.4887 27.9093 39.9834 28.3854 39.9834 28.9898V32.0478C39.9648 32.634 39.4887 33.1283 38.9029 33.1283ZM31.5411 28.8249C31.4495 28.8249 31.3766 28.8982 31.3766 28.9898V32.0478C31.3766 32.1394 31.4495 32.2127 31.5411 32.2127H38.9029C38.9944 32.2127 39.0678 32.1394 39.0678 32.0478V28.9898C39.0678 28.8982 38.9944 28.8249 38.9029 28.8249H31.5411Z" fill="#231F20"/>
<path d="M39.507 35.3991H30.9187C30.6623 35.3991 30.4609 35.1978 30.4609 34.9413C30.4609 34.6849 30.6623 34.4835 30.9187 34.4835H39.507C39.7634 34.4835 39.9648 34.6849 39.9648 34.9413C39.9648 35.1978 39.7634 35.3991 39.507 35.3991Z" fill="#231F20"/>
<path d="M39.507 37.6148H30.9187C30.6623 37.6148 30.4609 37.4135 30.4609 37.157C30.4609 36.9006 30.6623 36.6992 30.9187 36.6992H39.507C39.7634 36.6992 39.9648 36.9006 39.9648 37.157C39.9648 37.4135 39.7634 37.6148 39.507 37.6148Z" fill="#231F20"/>
<path d="M39.507 39.8123H30.9187C30.6623 39.8123 30.4609 39.611 30.4609 39.3545C30.4609 39.0981 30.6623 38.8967 30.9187 38.8967H39.507C39.7634 38.8967 39.9648 39.0981 39.9648 39.3545C39.9648 39.611 39.7634 39.8123 39.507 39.8123Z" fill="#231F20"/>
<path d="M27.6945 35.3991H19.1062C18.8498 35.3991 18.6484 35.1978 18.6484 34.9413C18.6484 34.6849 18.8498 34.4835 19.1062 34.4835H27.6945C27.9509 34.4835 28.1523 34.6849 28.1523 34.9413C28.1523 35.1978 27.9509 35.3991 27.6945 35.3991Z" fill="#231F20"/>
<path d="M27.6945 37.6148H19.1062C18.8498 37.6148 18.6484 37.4135 18.6484 37.157C18.6484 36.9006 18.8498 36.6992 19.1062 36.6992H27.6945C27.9509 36.6992 28.1523 36.9006 28.1523 37.157C28.1523 37.4135 27.9509 37.6148 27.6945 37.6148Z" fill="#231F20"/>
<path d="M27.6945 39.8123H19.1062C18.8498 39.8123 18.6484 39.611 18.6484 39.3545C18.6484 39.0981 18.8498 38.8967 19.1062 38.8967H27.6945C27.9509 38.8967 28.1523 39.0981 28.1523 39.3545C28.1523 39.611 27.9509 39.8123 27.6945 39.8123Z" fill="#231F20"/>
<path d="M15.882 35.3991H7.29375C7.0373 35.3991 6.83594 35.1978 6.83594 34.9413C6.83594 34.6849 7.0373 34.4835 7.29375 34.4835H15.882C16.1384 34.4835 16.3398 34.6849 16.3398 34.9413C16.3398 35.1978 16.1384 35.3991 15.882 35.3991Z" fill="#231F20"/>
<path d="M15.882 37.6148H7.29375C7.0373 37.6148 6.83594 37.4135 6.83594 37.157C6.83594 36.9006 7.0373 36.6992 7.29375 36.6992H15.882C16.1384 36.6992 16.3398 36.9006 16.3398 37.157C16.3398 37.4135 16.1384 37.6148 15.882 37.6148Z" fill="#231F20"/>
<path d="M15.882 39.8123H7.29375C7.0373 39.8123 6.83594 39.611 6.83594 39.3545C6.83594 39.0981 7.0373 38.8967 7.29375 38.8967H15.882C16.1384 38.8967 16.3398 39.0981 16.3398 39.3545C16.3398 39.611 16.1384 39.8123 15.882 39.8123Z" fill="#231F20"/>
</svg>
