<svg width="50" height="51" viewBox="0 0 50 51" fill="none" xmlns="http://www.w3.org/2000/svg">
<mask id="mask0_1472_2055" style="mask-type:luminance" maskUnits="userSpaceOnUse" x="1" y="2" width="48" height="47">
<path d="M1.5625 2.0625H48.4375V48.9375H1.5625V2.0625Z" fill="white"/>
</mask>
<g mask="url(#mask0_1472_2055)">
<path d="M12.9141 15.0715C12.9141 21.7459 18.3246 27.1565 24.999 27.1565C31.6734 27.1565 37.084 21.7459 37.084 15.0715C37.084 8.39715 31.6734 2.98657 24.999 2.98657C18.3246 2.98657 12.9141 8.39715 12.9141 15.0715Z" fill="#F9B668"/>
<path d="M12.9141 15.0715C12.9141 21.7459 18.3246 27.1565 24.999 27.1565C31.6734 27.1565 37.084 21.7459 37.084 15.0715C37.084 8.39715 31.6734 2.98657 24.999 2.98657C18.3246 2.98657 12.9141 8.39715 12.9141 15.0715Z" stroke="black" stroke-width="1.83105" stroke-miterlimit="10" stroke-linecap="round" stroke-linejoin="round"/>
<path d="M33.9729 15.0815H33.1953" stroke="black" stroke-width="1.83105" stroke-miterlimit="10" stroke-linecap="round" stroke-linejoin="round"/>
<path d="M16.0234 15.0613H16.801" stroke="black" stroke-width="1.83105" stroke-miterlimit="10" stroke-linecap="round" stroke-linejoin="round"/>
<path d="M25.0078 6.09769V6.87524" stroke="black" stroke-width="1.83105" stroke-miterlimit="10" stroke-linecap="round" stroke-linejoin="round"/>
<path d="M24.9883 24.0452V23.2676" stroke="black" stroke-width="1.83105" stroke-miterlimit="10" stroke-linecap="round" stroke-linejoin="round"/>
<path d="M31.3279 8.74234L24.9989 15.0713L24.9886 15.061L21.0508 11.1233" stroke="black" stroke-width="1.83105" stroke-miterlimit="10" stroke-linecap="round" stroke-linejoin="round"/>
<path d="M10.311 32.4981L5.06116 35.5292C4.80472 35.6772 4.71683 36.0052 4.86487 36.2616L11.4949 47.7452C11.6431 48.0017 11.9709 48.0896 12.2275 47.9415L17.4773 44.9105C17.7337 44.7624 17.8216 44.4345 17.6735 44.1781L11.0434 32.6944C10.8954 32.438 10.5674 32.3501 10.311 32.4981Z" fill="#009FFF"/>
<path d="M10.311 32.4981L5.06116 35.5292C4.80472 35.6772 4.71683 36.0052 4.86487 36.2616L11.4949 47.7452C11.6431 48.0017 11.9709 48.0896 12.2275 47.9415L17.4773 44.9105C17.7337 44.7624 17.8216 44.4345 17.6735 44.1781L11.0434 32.6944C10.8954 32.438 10.5674 32.3501 10.311 32.4981Z" fill="white"/>
<path d="M11.9766 34.3166L18.0602 31.1858C19.5129 30.4382 21.188 30.2449 22.7727 30.642L31.4308 32.8111C32.4244 33.0601 33.1213 33.9532 33.1213 34.9775C33.1213 36.2109 32.1215 37.2109 30.888 37.2109H24.0829H29.8986H31.6761C32.3156 37.2109 32.929 36.9568 33.3811 36.5046L41.1086 28.7771C41.9777 27.908 43.3618 27.8331 44.3196 28.6033C45.436 29.5009 45.5262 31.1689 44.5133 32.1818L36.3697 40.3254C35.0955 41.5997 33.3671 42.3157 31.565 42.3157H16.7704L11.9766 34.3166Z" fill="#FED2A4"/>
<path d="M10.311 32.4981L5.06116 35.5292C4.80472 35.6772 4.71683 36.0052 4.86487 36.2616L11.4949 47.7452C11.6431 48.0017 11.9709 48.0896 12.2275 47.9415L17.4773 44.9105C17.7337 44.7624 17.8216 44.4345 17.6735 44.1781L11.0434 32.6944C10.8954 32.438 10.5674 32.3501 10.311 32.4981Z" stroke="black" stroke-width="1.83105" stroke-miterlimit="10" stroke-linecap="round" stroke-linejoin="round"/>
<path d="M24.0977 42.3157H31.568C33.3702 42.3157 35.0984 41.5997 36.3728 40.3255L44.5164 32.1819C45.5293 31.1689 45.4391 29.5009 44.3227 28.6034C43.3649 27.8331 41.9807 27.9081 41.1117 28.7771L33.3842 36.5046C32.9319 36.9568 32.3187 37.2109 31.6792 37.2109H29.9016" stroke="black" stroke-width="1.83105" stroke-miterlimit="10" stroke-linecap="round" stroke-linejoin="round"/>
<path d="M11.9766 34.3167L18.0602 31.1859C19.5129 30.4382 21.188 30.245 22.7727 30.642L31.4308 32.8112C32.4244 33.0602 33.1213 33.9532 33.1213 34.9776C33.1213 36.211 32.1215 37.2109 30.888 37.2109H24.0829" stroke="black" stroke-width="1.83105" stroke-miterlimit="10" stroke-linecap="round" stroke-linejoin="round"/>
<path d="M43.8594 4.25098V2.98654" stroke="black" stroke-width="1.83105" stroke-miterlimit="10" stroke-linecap="round" stroke-linejoin="round"/>
<path d="M43.8594 10.3108V9.04636" stroke="black" stroke-width="1.83105" stroke-miterlimit="10" stroke-linecap="round" stroke-linejoin="round"/>
<path d="M46.2578 6.64868H47.5222" stroke="black" stroke-width="1.83105" stroke-miterlimit="10" stroke-linecap="round" stroke-linejoin="round"/>
<path d="M40.1953 6.64868H41.4597" stroke="black" stroke-width="1.83105" stroke-miterlimit="10" stroke-linecap="round" stroke-linejoin="round"/>
<path d="M6.14062 23.1108V21.8464" stroke="black" stroke-width="1.83105" stroke-miterlimit="10" stroke-linecap="round" stroke-linejoin="round"/>
<path d="M6.14062 29.1707V27.9062" stroke="black" stroke-width="1.83105" stroke-miterlimit="10" stroke-linecap="round" stroke-linejoin="round"/>
<path d="M8.53516 25.5085H9.79959" stroke="black" stroke-width="1.83105" stroke-miterlimit="10" stroke-linecap="round" stroke-linejoin="round"/>
<path d="M2.47656 25.5085H3.741" stroke="black" stroke-width="1.83105" stroke-miterlimit="10" stroke-linecap="round" stroke-linejoin="round"/>
<path d="M14.89 46.4031L12.1562 41.6682" stroke="black" stroke-width="1.83105" stroke-miterlimit="10" stroke-linecap="round" stroke-linejoin="round"/>
</g>
</svg>
