<svg width="368" height="147" viewBox="0 0 368 147" fill="none" xmlns="http://www.w3.org/2000/svg">
<g filter="url(#filter0_d_1472_3521)">
<path d="M6.56486 10.0345C4.98277 7.35639 4.19173 6.01733 4.76738 5.00866C5.34304 4 6.89829 4 10.0088 4H344C353.428 4 358.142 4 361.071 6.92893C364 9.85786 364 14.5719 364 24V123C364 132.428 364 137.142 361.071 140.071C358.142 143 353.428 143 344 143H43.5284C34.1003 143 29.3863 143 26.4574 140.071C23.5284 137.142 23.5284 132.428 23.5284 123V73.5V44.2162C23.5284 41.4995 23.5284 40.1412 23.1746 38.8467C22.8209 37.5522 22.13 36.3827 20.7482 34.0437L6.56486 10.0345Z" fill="white"/>
</g>
<defs>
<filter id="filter0_d_1472_3521" x="0.578125" y="0" width="367.422" height="147" filterUnits="userSpaceOnUse" color-interpolation-filters="sRGB">
<feFlood flood-opacity="0" result="BackgroundImageFix"/>
<feColorMatrix in="SourceAlpha" type="matrix" values="0 0 0 0 0 0 0 0 0 0 0 0 0 0 0 0 0 0 127 0" result="hardAlpha"/>
<feOffset/>
<feGaussianBlur stdDeviation="2"/>
<feComposite in2="hardAlpha" operator="out"/>
<feColorMatrix type="matrix" values="0 0 0 0 0 0 0 0 0 0 0 0 0 0 0 0 0 0 0.14 0"/>
<feBlend mode="normal" in2="BackgroundImageFix" result="effect1_dropShadow_1472_3521"/>
<feBlend mode="normal" in="SourceGraphic" in2="effect1_dropShadow_1472_3521" result="shape"/>
</filter>
</defs>
</svg>
