<svg width="26" height="26" viewBox="0 0 26 26" fill="none" xmlns="http://www.w3.org/2000/svg">
<path d="M4.42578 6.57157C4.42578 6.00325 4.65155 5.4582 5.05341 5.05634C5.45527 4.65448 6.00032 4.42871 6.56864 4.42871H19.4258C19.9941 4.42871 20.5391 4.65448 20.941 5.05634C21.3429 5.4582 21.5686 6.00325 21.5686 6.57157V19.4287C21.5686 19.997 21.3429 20.5421 20.941 20.9439C20.5391 21.3458 19.9941 21.5716 19.4258 21.5716H6.56864C6.00032 21.5716 5.45527 21.3458 5.05341 20.9439C4.65155 20.5421 4.42578 19.997 4.42578 19.4287V6.57157Z" stroke="white" stroke-width="1.60714" stroke-linecap="round" stroke-linejoin="round"/>
<path d="M8.71094 11.9287V17.2859" stroke="white" stroke-width="1.60714" stroke-linecap="round" stroke-linejoin="round"/>
<path d="M8.71094 8.71484V8.72484" stroke="white" stroke-width="1.60714" stroke-linecap="round" stroke-linejoin="round"/>
<path d="M12.9961 17.2859V11.9287" stroke="white" stroke-width="1.60714" stroke-linecap="round" stroke-linejoin="round"/>
<path d="M17.2818 17.2859V14.0716C17.2818 13.5032 17.056 12.9582 16.6542 12.5563C16.2523 12.1545 15.7073 11.9287 15.139 11.9287C14.5706 11.9287 14.0256 12.1545 13.6237 12.5563C13.2219 12.9582 12.9961 13.5032 12.9961 14.0716" stroke="white" stroke-width="1.60714" stroke-linecap="round" stroke-linejoin="round"/>
</svg>
