<svg width="26" height="26" viewBox="0 0 26 26" fill="none" xmlns="http://www.w3.org/2000/svg">
<path d="M4.42578 8.71443C4.42578 7.57778 4.87731 6.48769 5.68104 5.68397C6.48476 4.88024 7.57485 4.42871 8.7115 4.42871H17.2829C18.4196 4.42871 19.5097 4.88024 20.3134 5.68397C21.1171 6.48769 21.5686 7.57778 21.5686 8.71443V17.2859C21.5686 18.4225 21.1171 19.5126 20.3134 20.3163C19.5097 21.12 18.4196 21.5716 17.2829 21.5716H8.7115C7.57485 21.5716 6.48476 21.12 5.68104 20.3163C4.87731 19.5126 4.42578 18.4225 4.42578 17.2859V8.71443Z" stroke="white" stroke-width="1.60714" stroke-linecap="round" stroke-linejoin="round"/>
<path d="M9.78125 13.0004C9.78125 13.8529 10.1199 14.6705 10.7227 15.2733C11.3255 15.8761 12.1431 16.2147 12.9955 16.2147C13.848 16.2147 14.6656 15.8761 15.2684 15.2733C15.8712 14.6705 16.2098 13.8529 16.2098 13.0004C16.2098 12.1479 15.8712 11.3304 15.2684 10.7276C14.6656 10.1248 13.848 9.78613 12.9955 9.78613C12.1431 9.78613 11.3255 10.1248 10.7227 10.7276C10.1199 11.3304 9.78125 12.1479 9.78125 13.0004Z" stroke="white" stroke-width="1.60714" stroke-linecap="round" stroke-linejoin="round"/>
<path d="M17.8203 8.17871V8.18871" stroke="white" stroke-width="1.60714" stroke-linecap="round" stroke-linejoin="round"/>
</svg>
