<svg width="204" height="61" viewBox="0 0 204 61" fill="none" xmlns="http://www.w3.org/2000/svg">
<path d="M196.8 0.334961H7.2C3.22355 0.334961 0 3.57652 0 7.57518V53.4299C0 57.4286 3.22355 60.6702 7.2 60.6702H196.8C200.776 60.6702 204 57.4286 204 53.4299V7.57518C204 3.57652 200.776 0.334961 196.8 0.334961Z" fill="white"/>
<path d="M102.209 34.3491C98.6923 34.3658 95.8532 37.2432 95.8642 40.7798C95.8752 44.3163 98.7322 47.1758 102.249 47.1703C105.766 47.1648 108.614 44.2963 108.614 40.7597C108.639 39.0468 107.971 37.3971 106.764 36.1886C105.556 34.9801 103.912 34.3162 102.209 34.3491ZM102.209 44.6514C100.624 44.7628 99.1322 43.8886 98.4472 42.4468C97.7622 41.005 98.0233 39.2886 99.1056 38.1186C100.188 36.9487 101.871 36.5629 103.351 37.1458C104.83 37.7287 105.805 39.1618 105.809 40.7597C105.858 41.7593 105.503 42.7363 104.825 43.4691C104.148 44.2018 103.204 44.6282 102.209 44.6514ZM88.2442 34.3491C84.7253 34.3575 81.8787 37.2313 81.8842 40.7698C81.8897 44.3083 84.7453 47.1731 88.2642 47.1703C91.783 47.1676 94.6342 44.2983 94.6342 40.7597C94.6589 39.0468 93.991 37.3971 92.7836 36.1886C91.5761 34.9801 89.9325 34.3162 88.2292 34.3491H88.2442ZM88.2442 44.6514C86.6582 44.7691 85.162 43.8992 84.4722 42.4583C83.7824 41.0174 84.0394 39.2988 85.1201 38.1257C86.2009 36.9525 87.8853 36.5636 89.3667 37.1452C90.8481 37.7268 91.8249 39.1606 91.8292 40.7597C91.878 41.7593 91.5232 42.7363 90.8454 43.4691C90.1675 44.2018 89.2241 44.6282 88.2292 44.6514H88.2442ZM71.6092 36.3251V39.0402H78.0892C77.9876 40.319 77.4589 41.5257 76.5892 42.4642C75.2782 43.807 73.464 44.5302 71.5942 44.4553C67.6177 44.4553 64.3942 41.2137 64.3942 37.2151C64.3942 33.2164 67.6177 29.9748 71.5942 29.9748C73.4209 29.9449 75.1848 30.6446 76.4992 31.9206L78.4042 30.005C76.6115 28.1796 74.1602 27.1621 71.6092 27.1843C67.9776 27.0422 64.5598 28.9094 62.702 32.0505C60.8441 35.1915 60.8441 39.1029 62.702 42.2439C64.5598 45.3849 67.9776 47.2522 71.6092 47.11C74.2068 47.2281 76.7283 46.2105 78.5242 44.3195C80.0957 42.5833 80.9347 40.3008 80.8642 37.9542C80.869 37.3825 80.8188 36.8116 80.7142 36.2497L71.6092 36.3251ZM139.574 38.4368C138.773 36.0675 136.601 34.4412 134.114 34.3491C132.456 34.3459 130.87 35.033 129.733 36.2475C128.597 37.4619 128.011 39.0953 128.114 40.7597C128.077 42.4632 128.731 44.1084 129.925 45.3174C131.119 46.5265 132.75 47.1953 134.444 47.1704C136.575 47.1819 138.57 46.1167 139.754 44.3346L137.579 42.8262C136.919 43.9333 135.728 44.6094 134.444 44.6061C133.115 44.6571 131.889 43.8854 131.354 42.6603L139.889 39.1156L139.574 38.4368ZM130.874 40.5787C130.813 39.6363 131.131 38.7086 131.758 38.0048C132.384 37.3011 133.266 36.8805 134.204 36.838C135.193 36.7724 136.126 37.3066 136.574 38.1955L130.874 40.5787ZM123.944 46.7933H126.749V27.9385H123.944V46.7933ZM119.354 35.7821H119.249C118.394 34.8208 117.172 34.272 115.889 34.2737C112.484 34.4397 109.809 37.264 109.809 40.6919C109.809 44.1197 112.484 46.944 115.889 47.11C117.176 47.1318 118.406 46.5795 119.249 45.6016H119.339V46.5218C119.339 48.9804 118.034 50.2927 115.934 50.2927C114.504 50.259 113.235 49.3591 112.724 48.0151L110.279 49.0408C111.221 51.3438 113.458 52.8417 115.934 52.8269C119.219 52.8269 121.934 50.881 121.934 46.1447V34.7262H119.354V35.7821ZM116.144 44.6514C114.138 44.4736 112.6 42.7844 112.6 40.7597C112.6 38.7351 114.138 37.0459 116.144 36.8681C117.113 36.9181 118.021 37.3595 118.662 38.0922C119.303 38.8248 119.623 39.7867 119.549 40.7597C119.632 41.7373 119.313 42.7062 118.667 43.4413C118.021 44.1764 117.104 44.6137 116.129 44.6514H116.144ZM152.714 27.9385H146.009V46.7933H148.814V39.6435H152.729C154.908 39.801 156.992 38.7212 158.129 36.8455C159.267 34.9697 159.267 32.6123 158.129 30.7366C156.992 28.8609 154.908 27.7811 152.729 27.9385H152.714ZM152.714 36.9888H148.799V30.5631H152.774C154.551 30.5631 155.992 32.0117 155.992 33.7986C155.992 35.5855 154.551 37.0341 152.774 37.0341L152.714 36.9888ZM170.009 34.2737C167.922 34.1483 165.96 35.2799 165.014 37.1547L167.504 38.1955C168.006 37.2658 169.006 36.7216 170.054 36.8078C170.773 36.7233 171.496 36.9329 172.06 37.3896C172.625 37.8462 172.983 38.5116 173.054 39.2363V39.4324C172.153 38.9527 171.149 38.704 170.129 38.7084C167.444 38.7084 164.729 40.2167 164.729 42.9469C164.783 44.123 165.307 45.2273 166.183 46.0086C167.059 46.7899 168.212 47.1817 169.379 47.0949C170.818 47.1988 172.199 46.5047 172.979 45.2849H173.069V46.7933H175.769V39.538C175.769 36.2346 173.279 34.319 170.084 34.319L170.009 34.2737ZM169.664 44.6061C168.749 44.6061 167.474 44.1385 167.474 43.0072C167.474 41.4989 169.064 41.0011 170.474 41.0011C171.365 40.979 172.246 41.1978 173.024 41.6346C172.83 43.3231 171.429 44.6099 169.739 44.6514L169.664 44.6061ZM185.609 34.7262L182.399 42.9017H182.309L178.979 34.7262H175.979L180.974 46.1597L178.124 52.51H181.049L188.729 34.7262H185.609ZM160.394 46.7933H163.199V27.9385H160.394V46.7933Z" fill="#111111"/>
<path d="M71.1288 16.9872C71.1803 18.1053 70.7737 19.1957 70.0038 20.004C69.1435 20.9027 67.9435 21.3908 66.7038 21.3464C64.8023 21.3315 63.095 20.1717 62.3713 18.4034C61.6476 16.6352 62.0486 14.6029 63.3888 13.2464C64.2596 12.3524 65.4597 11.861 66.7038 11.8889C67.3379 11.8868 67.9658 12.0151 68.5488 12.266C69.0916 12.4861 69.5748 12.8325 69.9588 13.2766L69.1638 14.076C68.5568 13.35 67.6456 12.9533 66.7038 13.0051C65.7571 13.0004 64.8493 13.3838 64.1898 14.0669C63.5304 14.75 63.1761 15.6737 63.2088 16.6252C63.1887 18.063 64.0307 19.3717 65.3432 19.9425C66.6556 20.5133 68.1807 20.2341 69.2088 19.2347C69.6703 18.7317 69.9366 18.0785 69.9588 17.3945H66.7038V16.3084H71.0688C71.1088 16.5325 71.1289 16.7596 71.1288 16.9872ZM77.9988 13.2163H73.9488V16.0822H77.6388V17.1682H73.9488V20.0341H77.9988V21.1503H72.7488V12.1001H77.9988V13.2163ZM82.9188 21.1503H81.7638V13.2163H79.2438V12.1001H85.4988V13.2163H82.9188V21.1503ZM89.9088 21.1503V12.1001H91.0638V21.1503H89.9088ZM96.1938 21.1503H95.0388V13.2163H92.5188V12.1001H98.6988V13.2163H96.1938V21.1503ZM110.414 19.9738C108.588 21.7993 105.639 21.7993 103.814 19.9738C102.044 18.0902 102.044 15.1451 103.814 13.2615C104.687 12.3772 105.875 11.8799 107.114 11.8799C108.353 11.8799 109.541 12.3772 110.414 13.2615C112.191 15.1421 112.191 18.0932 110.414 19.9738ZM104.669 19.2196C106.021 20.5735 108.207 20.5735 109.559 19.2196C110.887 17.7477 110.887 15.5027 109.559 14.0308C108.207 12.6769 106.021 12.6769 104.669 14.0308C103.341 15.5027 103.341 17.7477 104.669 19.2196ZM113.369 21.1503V12.1001H114.779L119.159 19.1442V12.1001H120.314V21.1503H119.114L114.539 13.7744V21.1503H113.369Z" fill="#111111"/>
<path d="M15.6563 12.9142C15.1674 13.5041 14.9206 14.2593 14.9663 15.0259V48.3913C14.9206 49.1578 15.1674 49.9131 15.6563 50.503L15.7613 50.6086L34.3463 31.9349V31.4974L15.7613 12.8086L15.6563 12.9142Z" fill="url(#paint0_linear_1472_2344)"/>
<path d="M40.4977 38.1647L34.3477 31.9351V31.4976L40.4977 25.2529L40.6327 25.3283L47.9977 29.5367C50.0977 30.7283 50.0977 32.6892 47.9977 33.8959L40.6627 38.0892L40.4977 38.1647Z" fill="url(#paint1_linear_1472_2344)"/>
<path d="M40.6763 38.0743L34.3463 31.709L15.6562 50.5034C16.5393 51.284 17.8499 51.322 18.7763 50.5939L40.6913 38.0743" fill="url(#paint2_linear_1472_2344)"/>
<path d="M40.6756 25.3438L18.7606 12.8243C17.8343 12.0962 16.5237 12.1342 15.6406 12.9148L34.3456 31.7092L40.6756 25.3438Z" fill="url(#paint3_linear_1472_2344)"/>
<path opacity="0.2" d="M40.4963 37.9385L18.7612 50.3826C17.8718 51.0513 16.6507 51.0513 15.7613 50.3826L15.6562 50.4882L15.7613 50.5938C16.649 51.2675 17.8735 51.2675 18.7612 50.5938L40.6763 38.0742L40.4963 37.9385Z" fill="black"/>
<path opacity="0.12" d="M15.6563 50.2922C15.1674 49.7023 14.9206 48.9471 14.9663 48.1805V48.4067C14.9206 49.1733 15.1674 49.9285 15.6563 50.5185L15.7613 50.4129L15.6563 50.2922ZM47.9963 33.6699L40.4963 37.9386L40.6313 38.0743L47.9963 33.8811C48.8469 33.4792 49.419 32.6508 49.4963 31.709C49.3254 32.561 48.7714 33.2852 47.9963 33.6699Z" fill="black"/>
<path opacity="0.25" d="M18.7631 13.0352L47.9981 29.748C48.7732 30.1327 49.3272 30.8569 49.4981 31.7089C49.4208 30.7671 48.8487 29.9387 47.9981 29.5369L18.7631 12.824C16.6631 11.6324 14.9531 12.6279 14.9531 15.0413V15.2676C14.9981 12.8391 16.6781 11.8436 18.7631 13.0352Z" fill="white"/>
<defs>
<linearGradient id="paint0_linear_1472_2344" x1="26.7926" y1="14.679" x2="10.7718" y2="30.6107" gradientUnits="userSpaceOnUse">
<stop stop-color="#00A0FF"/>
<stop offset="0.01" stop-color="#00A1FF"/>
<stop offset="0.26" stop-color="#00BEFF"/>
<stop offset="0.51" stop-color="#00D2FF"/>
<stop offset="0.76" stop-color="#00DFFF"/>
<stop offset="1" stop-color="#00E3FF"/>
</linearGradient>
<linearGradient id="paint1_linear_1472_2344" x1="50.7427" y1="31.7088" x2="14.4577" y2="31.7088" gradientUnits="userSpaceOnUse">
<stop stop-color="#FFE000"/>
<stop offset="0.41" stop-color="#FFBD00"/>
<stop offset="0.78" stop-color="#FFA500"/>
<stop offset="1" stop-color="#FF9C00"/>
</linearGradient>
<linearGradient id="paint2_linear_1472_2344" x1="37.2413" y1="37.7078" x2="9.87304" y2="64.912" gradientUnits="userSpaceOnUse">
<stop stop-color="#FF3A44"/>
<stop offset="1" stop-color="#C31162"/>
</linearGradient>
<linearGradient id="paint3_linear_1472_2344" x1="10.9456" y1="10.0066" x2="23.1614" y2="22.1545" gradientUnits="userSpaceOnUse">
<stop stop-color="#32A071"/>
<stop offset="0.07" stop-color="#2DA771"/>
<stop offset="0.48" stop-color="#15CF74"/>
<stop offset="0.8" stop-color="#06E775"/>
<stop offset="1" stop-color="#00F076"/>
</linearGradient>
</defs>
</svg>
