<svg width="204" height="61" viewBox="0 0 204 61" fill="none" xmlns="http://www.w3.org/2000/svg">
<path d="M13.0994 60.332C12.5723 60.332 12.0579 60.3259 11.5349 60.3152C10.4516 60.3023 9.37072 60.2163 8.30129 60.0579C7.30409 59.9013 6.33807 59.61 5.4351 59.1937C4.54041 58.7808 3.72438 58.2394 3.01827 57.5902C2.30194 56.9487 1.70556 56.2046 1.25277 55.3875C0.794993 54.5651 0.478181 53.6835 0.313375 52.7736C0.135399 51.7958 0.0391059 50.8072 0.0253274 49.8161C0.0143591 49.4835 0 48.3759 0 48.3759V11.9392C0 11.9392 0.0152933 10.8486 0.0254139 10.5282C0.0386067 9.53874 0.134339 8.55162 0.311783 7.57539C0.476894 6.66294 0.79395 5.77886 1.25198 4.95374C1.7031 4.13719 2.29617 3.39257 3.00818 2.74874C3.7194 2.0988 4.53804 1.5546 5.43425 1.13599C6.33515 0.720978 7.29934 0.431761 8.29452 0.278032C9.36747 0.11804 10.4521 0.03154 11.5392 0.0192589L13.1002 0H190.891L192.471 0.0200318C193.548 0.0317026 194.623 0.117431 195.686 0.276486C196.691 0.432143 197.666 0.723378 198.577 1.14061C200.372 1.98423 201.833 3.31891 202.755 4.95759C203.205 5.77701 203.518 6.65389 203.681 7.55845C203.86 8.54269 203.961 9.53757 203.981 10.5352C203.986 10.9819 203.986 11.4617 203.986 11.9392C204 12.5307 204 13.0937 204 13.6613V46.6722C204 47.2453 204 47.8044 203.986 48.3682C203.986 48.8811 203.986 49.351 203.98 49.8346C203.959 50.8144 203.861 51.7915 203.684 52.7581C203.523 53.6746 203.207 54.5631 202.75 55.3922C202.294 56.2005 201.701 56.9381 200.993 57.5779C200.286 58.2306 199.469 58.7751 198.572 59.1907C197.663 59.6103 196.69 59.9026 195.686 60.0579C194.617 60.2171 193.536 60.3031 192.452 60.3152C191.946 60.3259 191.415 60.332 190.9 60.332L189.024 60.3352L13.0994 60.332Z" fill="white"/>
<path d="M62.2539 42.1437H55.1538L53.4487 47.2065H50.4414L57.1665 28.4754H60.291L67.0161 47.2065H63.9575L62.2539 42.1437ZM55.8892 39.8074H61.5171L58.7427 31.5909H58.6651L55.8892 39.8074ZM81.54 40.379C81.54 44.6228 79.2812 47.3493 75.8726 47.3493C74.1106 47.442 72.451 46.514 71.5996 44.9601H71.5351V51.7242H68.7475V33.55H71.4458V35.8214H71.4971C72.3863 34.2772 74.0477 33.3496 75.8213 33.4071C79.268 33.4071 81.54 36.147 81.54 40.379ZM78.6748 40.379C78.6748 37.6141 77.2539 35.7964 75.0859 35.7964C72.956 35.7964 71.5234 37.6524 71.5234 40.379C71.5234 43.1306 72.956 44.9734 75.0859 44.9734C77.2539 44.9734 78.6748 43.1689 78.6748 40.379ZM96.4873 40.379C96.4873 44.6228 94.2285 47.3493 90.8198 47.3493C89.0579 47.442 87.3983 46.514 86.5469 44.9601H86.4824V51.7242H83.6948V33.55H86.393V35.8214H86.4443C87.3335 34.2772 88.9949 33.3496 90.7685 33.4071C94.2153 33.4071 96.4873 36.147 96.4873 40.379ZM93.6221 40.379C93.6221 37.6141 92.2012 35.7964 90.0332 35.7964C87.9033 35.7964 86.4707 37.6524 86.4707 40.379C86.4707 43.1306 87.9033 44.9734 90.0332 44.9734C92.2012 44.9734 93.6221 43.1689 93.6221 40.379ZM106.366 41.9875C106.573 43.845 108.367 45.0646 110.819 45.0646C113.169 45.0646 114.859 43.845 114.859 42.1701C114.859 40.7162 113.84 39.8457 111.426 39.2491L109.012 38.6643C105.591 37.8335 104.003 36.225 104.003 33.6148C104.003 30.3829 106.804 28.1631 110.781 28.1631C114.717 28.1631 117.416 30.3829 117.506 33.6148H114.692C114.524 31.7455 112.987 30.6172 110.742 30.6172C108.496 30.6172 106.959 31.7588 106.959 33.4203C106.959 34.7446 107.941 35.5238 110.342 36.1203L112.394 36.6271C116.216 37.5359 117.804 39.0797 117.804 41.8195C117.804 45.3238 115.028 47.5186 110.613 47.5186C106.482 47.5186 103.693 45.3754 103.513 41.9874L106.366 41.9875ZM123.82 30.3182V33.55H126.402V35.7699H123.82V43.2985C123.82 44.4681 124.337 45.0131 125.472 45.0131C125.779 45.0077 126.085 44.9861 126.389 44.9483V47.1549C125.879 47.2508 125.36 47.2942 124.841 47.2845C122.091 47.2845 121.019 46.246 121.019 43.5975V35.7699H119.044V33.55H121.019V30.3182H123.82ZM127.898 40.379C127.898 36.0822 130.415 33.3821 134.339 33.3821C138.276 33.3821 140.781 36.0821 140.781 40.379C140.781 44.6876 138.29 47.3759 134.339 47.3759C130.39 47.3759 127.898 44.6876 127.898 40.379ZM137.941 40.379C137.941 37.4315 136.598 35.6918 134.339 35.6918C132.08 35.6918 130.738 37.4447 130.738 40.379C130.738 43.3383 132.08 45.0647 134.339 45.0647C136.598 45.0647 137.941 43.3383 137.941 40.379ZM143.08 33.55H145.738V35.8744H145.803C146.174 34.3781 147.537 33.3483 149.069 33.4071C149.391 33.406 149.711 33.4411 150.024 33.5117V36.1337C149.619 36.0091 149.196 35.9519 148.772 35.9643C147.952 35.9309 147.159 36.2593 146.601 36.8634C146.042 37.4674 145.774 38.2868 145.867 39.1063V47.2064H143.08V33.55ZM162.877 43.1954C162.502 45.6745 160.101 47.3758 157.029 47.3758C153.079 47.3758 150.626 44.7141 150.626 40.4438C150.626 36.1602 153.092 33.3821 156.912 33.3821C160.669 33.3821 163.032 35.9776 163.032 40.1182V41.0787H153.44V41.2481C153.351 42.2648 153.7 43.2711 154.399 44.0112C155.098 44.7513 156.079 45.1538 157.094 45.1162C158.447 45.2437 159.722 44.4625 160.23 43.1954L162.877 43.1954ZM153.454 39.1195H160.243C160.294 38.206 159.963 37.3126 159.331 36.6546C158.698 35.9967 157.822 35.6339 156.912 35.6535C155.995 35.648 155.114 36.011 154.465 36.6619C153.815 37.3128 153.451 38.1975 153.454 39.1195Z" fill="#111111"/>
<path d="M55.5376 14.3761C56.721 14.2907 57.8801 14.7434 58.696 15.6097C59.5118 16.476 59.8982 17.6646 59.749 18.8482C59.749 21.7235 58.2036 23.3763 55.5376 23.3763H52.3047V14.3761H55.5376ZM53.6948 22.1035H55.3823C56.228 22.1543 57.0515 21.8193 57.6241 21.1913C58.1967 20.5634 58.4575 19.7094 58.334 18.8665C58.4485 18.0272 58.184 17.1802 57.6128 16.5574C57.0416 15.9346 56.2236 15.601 55.3823 15.648H53.6948V22.1035ZM61.3193 19.9772C61.2035 18.7598 61.784 17.5816 62.8174 16.9367C63.8508 16.2918 65.1584 16.2918 66.1918 16.9367C67.2252 17.5816 67.8058 18.7598 67.6899 19.9772C67.808 21.196 67.228 22.3765 66.1936 23.0227C65.1593 23.6689 63.8499 23.6689 62.8156 23.0227C61.7813 22.3765 61.2013 21.196 61.3193 19.9772ZM66.3188 19.9772C66.3188 18.5049 65.6611 17.6439 64.5068 17.6439C63.3481 17.6439 62.6963 18.5049 62.6963 19.9772C62.6963 21.4613 63.3482 22.3156 64.5068 22.3156C65.6611 22.3156 66.3188 21.4554 66.3188 19.9772ZM76.1582 23.3762H74.7754L73.3794 18.3738H73.2739L71.8838 23.3762H70.5142L68.6523 16.5841H70.0044L71.2144 21.7669H71.314L72.7026 16.5841H73.9815L75.3701 21.7669H75.4756L76.6797 16.5841H78.0127L76.1582 23.3762ZM79.5786 16.5841H80.8618V17.6631H80.9614C81.3078 16.8686 82.1173 16.3827 82.977 16.453C83.6428 16.4026 84.2951 16.6595 84.7499 17.1509C85.2048 17.6423 85.4127 18.3151 85.3149 18.9792V23.3761H83.9819V19.3158C83.9819 18.2243 83.5103 17.6815 82.5244 17.6815C82.0729 17.6603 81.6346 17.8385 81.3246 18.1694C81.0146 18.5002 80.8638 18.9507 80.9116 19.4027V23.3762H79.5786V16.5841ZM87.439 13.9326H88.772V23.3762H87.439V13.9326ZM90.625 19.9772C90.5093 18.7597 91.0899 17.5814 92.1234 16.9366C93.1568 16.2917 94.4645 16.2917 95.498 16.9366C96.5314 17.5814 97.1121 18.7597 96.9963 19.9772C97.1142 21.196 96.5341 22.3765 95.4997 23.0227C94.4654 23.6689 93.156 23.6689 92.1216 23.0227C91.0872 22.3765 90.5071 21.196 90.625 19.9772ZM95.6245 19.9772C95.6245 18.5049 94.9668 17.6439 93.8125 17.6439C92.6538 17.6439 92.002 18.5049 92.002 19.9772C92.002 21.4613 92.6539 22.3156 93.8125 22.3156C94.9668 22.3156 95.6245 21.4554 95.6245 19.9772ZM98.3997 21.4554C98.3997 20.2328 99.3049 19.5279 100.912 19.4278L102.741 19.3217V18.7354C102.741 18.0181 102.27 17.613 101.359 17.613C100.615 17.613 100.099 17.8877 99.9509 18.3679H98.6604C98.7966 17.2013 99.8879 16.453 101.42 16.453C103.114 16.453 104.069 17.3007 104.069 18.7354V23.3762H102.785V22.4217H102.68C102.244 23.1188 101.469 23.5262 100.651 23.4881C100.078 23.5481 99.5059 23.3614 99.0769 22.9741C98.6479 22.5868 98.4019 22.0351 98.3997 21.4554ZM102.741 20.875V20.3072L101.092 20.4132C100.162 20.4758 99.74 20.794 99.74 21.3928C99.74 22.0041 100.267 22.3598 100.992 22.3598C101.422 22.4035 101.85 22.2701 102.18 21.9903C102.51 21.7104 102.712 21.3079 102.741 20.875ZM105.821 19.9772C105.821 17.831 106.918 16.4714 108.624 16.4714C109.486 16.4315 110.293 16.8958 110.696 17.663H110.795V13.9326H112.128V23.3762H110.851V22.3031H110.745C110.312 23.064 109.495 23.5204 108.624 23.4881C106.906 23.4882 105.821 22.1286 105.821 19.9772ZM107.198 19.9772C107.198 21.4178 107.873 22.2847 109.002 22.2847C110.126 22.2847 110.82 21.4053 110.82 19.9831C110.82 18.5675 110.118 17.6756 109.002 17.6756C107.88 17.6756 107.198 18.5484 107.198 19.9772H107.198ZM117.643 19.9772C117.527 18.7598 118.108 17.5816 119.141 16.9367C120.175 16.2918 121.482 16.2918 122.516 16.9367C123.549 17.5816 124.13 18.7598 124.014 19.9772C124.132 21.196 123.552 22.3765 122.518 23.0227C121.483 23.6689 120.174 23.6689 119.14 23.0227C118.105 22.3765 117.525 21.196 117.643 19.9772ZM122.643 19.9772C122.643 18.5049 121.985 17.6439 120.831 17.6439C119.672 17.6439 119.02 18.5049 119.02 19.9772C119.02 21.4613 119.672 22.3156 120.831 22.3156C121.985 22.3156 122.643 21.4554 122.643 19.9772ZM125.802 16.5841H127.086V17.6631H127.185C127.532 16.8686 128.341 16.3827 129.201 16.453C129.867 16.4026 130.519 16.6595 130.974 17.1509C131.429 17.6423 131.637 18.3151 131.539 18.9792V23.3761H130.206V19.3158C130.206 18.2243 129.734 17.6815 128.748 17.6815C128.297 17.6603 127.859 17.8385 127.549 18.1694C127.239 18.5002 127.088 18.9507 127.135 19.4027V23.3762H125.802V16.5841ZM139.071 14.893V16.615H140.534V17.7441H139.071V21.2366C139.071 21.9481 139.363 22.2597 140.026 22.2597C140.196 22.2591 140.366 22.2488 140.534 22.2287V23.3453C140.295 23.3883 140.053 23.4112 139.809 23.4138C138.327 23.4138 137.737 22.8894 137.737 21.5798V17.744H136.664V16.615H137.737V14.893H139.071ZM142.355 13.9326H143.677V17.6756H143.782C144.145 16.8742 144.969 16.3876 145.841 16.4589C146.503 16.4226 147.147 16.6851 147.597 17.1748C148.047 17.6644 148.256 18.3303 148.168 18.991V23.3762H146.833V19.3217C146.833 18.2368 146.331 17.6874 145.389 17.6874C144.925 17.6491 144.468 17.8186 144.14 18.1506C143.813 18.4826 143.647 18.9432 143.688 19.4093V23.3762H142.355L142.355 13.9326ZM155.94 21.5423C155.566 22.8235 154.333 23.6513 153.013 23.5073C152.113 23.5312 151.247 23.1558 150.646 22.4807C150.046 21.8056 149.77 20.899 149.893 20.0015C149.773 19.1015 150.048 18.1935 150.645 17.5127C151.243 16.8319 152.105 16.4452 153.008 16.453C154.887 16.453 156.021 17.7442 156.021 19.877V20.3447H151.251V20.4199C151.209 20.9239 151.38 21.4224 151.723 21.7928C152.065 22.1633 152.547 22.3713 153.05 22.3657C153.702 22.4444 154.337 22.1191 154.657 21.5422L155.94 21.5423ZM151.251 19.3534H154.663C154.697 18.8924 154.536 18.4385 154.219 18.1034C153.902 17.7683 153.46 17.5833 153 17.5938C152.534 17.588 152.086 17.7715 151.757 18.1028C151.427 18.434 151.245 18.885 151.251 19.3534H151.251Z" fill="#111111"/>
<path d="M35.9538 31.828C35.9866 29.2691 37.3206 26.9054 39.4886 25.5651C38.1147 23.592 35.8961 22.3858 33.5019 22.3105C30.983 22.0447 28.5411 23.8262 27.2575 23.8262C25.9491 23.8262 23.9729 22.3369 21.8448 22.3809C19.0448 22.4719 16.4977 24.034 15.1354 26.4956C12.2344 31.5463 14.3983 38.9691 17.1772 43.0517C18.5676 45.0508 20.1925 47.2839 22.3186 47.2047C24.3992 47.118 25.1763 45.8706 27.6877 45.8706C30.1759 45.8706 30.9049 47.2047 33.0742 47.1544C35.3068 47.1179 36.7134 45.1464 38.055 43.1283C39.054 41.7039 39.8227 40.1295 40.3326 38.4636C37.681 37.3359 35.9569 34.7231 35.9538 31.828ZM31.8563 19.6255C33.0736 18.1561 33.6733 16.2673 33.5281 14.3604C31.6684 14.5568 29.9505 15.4506 28.7167 16.8637C27.4985 18.2579 26.8813 20.0819 27.0012 21.9339C28.8859 21.9534 30.6753 21.1026 31.8563 19.6255Z" fill="#111111"/>
</svg>
