<svg width="26" height="26" viewBox="0 0 26 26" fill="none" xmlns="http://www.w3.org/2000/svg">
<path d="M3.35547 9.78571C3.35547 8.64907 3.807 7.55898 4.61073 6.75526C5.41445 5.95153 6.50454 5.5 7.64118 5.5H18.3555C19.4921 5.5 20.5822 5.95153 21.3859 6.75526C22.1897 7.55898 22.6412 8.64907 22.6412 9.78571V16.2143C22.6412 17.3509 22.1897 18.441 21.3859 19.2447C20.5822 20.0485 19.4921 20.5 18.3555 20.5H7.64118C6.50454 20.5 5.41445 20.0485 4.61073 19.2447C3.807 18.441 3.35547 17.3509 3.35547 16.2143V9.78571Z" stroke="white" stroke-width="1.60714" stroke-linecap="round" stroke-linejoin="round"/>
<path d="M10.8555 9.78613L16.2126 13.0004L10.8555 16.2147V9.78613Z" stroke="white" stroke-width="1.60714" stroke-linecap="round" stroke-linejoin="round"/>
</svg>
