<svg width="204" height="60" viewBox="0 0 204 60" fill="none" xmlns="http://www.w3.org/2000/svg">
<path d="M196.8 0H7.2C3.22355 0 0 3.22355 0 7.2V52.8C0 56.7765 3.22355 60 7.2 60H196.8C200.776 60 204 56.7765 204 52.8V7.2C204 3.22355 200.776 0 196.8 0Z" fill="#111111"/>
<path d="M102.209 33.8249C98.6923 33.8415 95.8532 36.7029 95.8642 40.2198C95.8752 43.7367 98.7322 46.5803 102.249 46.5748C105.766 46.5693 108.614 43.7168 108.614 40.1999C108.639 38.4965 107.971 36.856 106.764 35.6542C105.556 34.4524 103.912 33.7922 102.209 33.8249ZM102.209 44.0699C100.624 44.1808 99.1322 43.3114 98.4472 41.8776C97.7622 40.4438 98.0233 38.7369 99.1056 37.5735C100.188 36.41 101.871 36.0264 103.351 36.606C104.83 37.1857 105.805 38.6109 105.809 40.1999C105.858 41.1939 105.503 42.1655 104.825 42.8942C104.148 43.6229 103.204 44.0468 102.209 44.0699ZM88.2442 33.8249C84.7253 33.8332 81.8787 36.691 81.8842 40.2099C81.8897 43.7287 84.7453 46.5776 88.2642 46.5749C91.783 46.5721 94.6342 43.7188 94.6342 40.1999C94.6589 38.4965 93.991 36.856 92.7836 35.6542C91.5761 34.4524 89.9325 33.7922 88.2292 33.8249H88.2442ZM88.2442 44.0699C86.6582 44.187 85.162 43.322 84.4722 41.8891C83.7824 40.4561 84.0394 38.7471 85.1201 37.5805C86.2009 36.4138 87.8853 36.0271 89.3667 36.6055C90.8481 37.1838 91.8249 38.6096 91.8292 40.1999C91.878 41.1939 91.5232 42.1655 90.8454 42.8942C90.1675 43.6229 89.2241 44.0468 88.2292 44.0699H88.2442ZM71.6092 35.7899V38.4899H78.0892C77.9876 39.7616 77.4589 40.9616 76.5892 41.8949C75.2782 43.2302 73.464 43.9494 71.5942 43.8749C67.6177 43.8749 64.3942 40.6514 64.3942 36.6749C64.3942 32.6985 67.6177 29.4749 71.5942 29.4749C73.4209 29.4451 75.1848 30.141 76.4992 31.4099L78.4042 29.5049C76.6115 27.6897 74.1602 26.6778 71.6092 26.6999C67.9776 26.5586 64.5598 28.4154 62.702 31.539C60.8441 34.6626 60.8441 38.5522 62.702 41.6758C64.5598 44.7994 67.9776 46.6562 71.6092 46.5149C74.2068 46.6323 76.7283 45.6204 78.5242 43.7399C80.0957 42.0133 80.9347 39.7436 80.8642 37.4099C80.869 36.8414 80.8188 36.2737 80.7142 35.7149L71.6092 35.7899ZM139.574 37.8899C138.773 35.5337 136.601 33.9165 134.114 33.8249C132.456 33.8217 130.87 34.505 129.733 35.7127C128.597 36.9204 128.011 38.5447 128.114 40.1999C128.077 41.8939 128.731 43.53 129.925 44.7323C131.119 45.9346 132.75 46.5998 134.444 46.5749C136.575 46.5864 138.57 45.5271 139.754 43.7549L137.579 42.2549C136.919 43.3558 135.728 44.0282 134.444 44.0249C133.115 44.0756 131.889 43.3082 131.354 42.0899L139.889 38.5649L139.574 37.8899ZM130.874 40.0199C130.813 39.0827 131.131 38.1601 131.758 37.4603C132.384 36.7605 133.266 36.3422 134.204 36.2999C135.193 36.2347 136.126 36.7659 136.574 37.6499L130.874 40.0199ZM123.944 46.1999H126.749V27.4499H123.944V46.1999ZM119.354 35.2499H119.249C118.394 34.2939 117.172 33.7482 115.889 33.7499C112.484 33.915 109.809 36.7236 109.809 40.1324C109.809 43.5412 112.484 46.3498 115.889 46.5149C117.176 46.5366 118.406 45.9873 119.249 45.0149H119.339V45.9299C119.339 48.3749 118.034 49.6799 115.934 49.6799C114.504 49.6464 113.235 48.7515 112.724 47.4149L110.279 48.4349C111.221 50.7251 113.458 52.2147 115.934 52.2C119.219 52.2 121.934 50.2649 121.934 45.5549V34.1999H119.354V35.2499ZM116.144 44.0699C114.138 43.8932 112.6 42.2134 112.6 40.1999C112.6 38.1865 114.138 36.5067 116.144 36.3299C117.113 36.3796 118.021 36.8186 118.662 37.5472C119.303 38.2757 119.623 39.2323 119.549 40.1999C119.632 41.172 119.313 42.1356 118.667 42.8666C118.021 43.5976 117.104 44.0324 116.129 44.0699H116.144ZM152.714 27.4499H146.009V46.1999H148.814V39.0899H152.729C154.908 39.2465 156.992 38.1727 158.129 36.3074C159.267 34.4421 159.267 32.0978 158.129 30.2325C156.992 28.3672 154.908 27.2934 152.729 27.4499H152.714ZM152.714 36.4499H148.799V30.0599H152.774C154.551 30.0599 155.992 31.5004 155.992 33.2774C155.992 35.0544 154.551 36.4949 152.774 36.4949L152.714 36.4499ZM170.009 33.7499C167.922 33.6252 165.96 34.7505 165.014 36.6149L167.504 37.6499C168.006 36.7254 169.006 36.1842 170.054 36.2699C170.773 36.1859 171.496 36.3944 172.06 36.8485C172.625 37.3026 172.983 37.9643 173.054 38.6849V38.8799C172.153 38.4029 171.149 38.1556 170.129 38.1599C167.444 38.1599 164.729 39.6599 164.729 42.3749C164.783 43.5445 165.307 44.6427 166.183 45.4196C167.059 46.1966 168.212 46.5862 169.379 46.4999C170.818 46.6032 172.199 45.913 172.979 44.6999H173.069V46.1999H175.769V38.9849C175.769 35.6999 173.279 33.7949 170.084 33.7949L170.009 33.7499ZM169.664 44.0249C168.749 44.0249 167.474 43.5599 167.474 42.4349C167.474 40.9349 169.064 40.4399 170.474 40.4399C171.365 40.4179 172.246 40.6355 173.024 41.0699C172.83 42.749 171.429 44.0287 169.739 44.0699L169.664 44.0249ZM185.609 34.1999L182.399 42.3299H182.309L178.979 34.1999H175.979L180.974 45.5699L178.124 51.8849H181.049L188.729 34.1999H185.609ZM160.394 46.1999H163.199V27.4499H160.394V46.1999Z" fill="white"/>
<path d="M71.1288 16.5601C71.1803 17.6719 70.7737 18.7563 70.0038 19.5601C69.1435 20.4538 67.9435 20.9392 66.7038 20.8951C64.8023 20.8802 63.095 19.7269 62.3713 17.9685C61.6476 16.21 62.0486 14.1891 63.3888 12.8401C64.2596 11.9511 65.4597 11.4624 66.7038 11.4901C67.3379 11.488 67.9658 11.6156 68.5488 11.8651C69.0916 12.084 69.5748 12.4284 69.9588 12.8701L69.1638 13.6651C68.5568 12.9431 67.6456 12.5486 66.7038 12.6001C65.7571 12.5954 64.8493 12.9767 64.1898 13.656C63.5304 14.3353 63.1761 15.2539 63.2088 16.2001C63.1887 17.6299 64.0307 18.9313 65.3432 19.499C66.6556 20.0666 68.1807 19.7889 69.2088 18.7951C69.6703 18.2949 69.9366 17.6453 69.9588 16.9651H66.7038V15.8851H71.0688C71.1088 16.1079 71.1289 16.3338 71.1288 16.5601ZM77.9988 12.8101H73.9488V15.6601H77.6388V16.7401H73.9488V19.5901H77.9988V20.7001H72.7488V11.7001H77.9988V12.8101ZM82.9188 20.7001H81.7638V12.8101H79.2438V11.7001H85.4988V12.8101H82.9188V20.7001ZM89.9088 20.7001V11.7001H91.0638V20.7001H89.9088ZM96.1938 20.7001H95.0388V12.8101H92.5188V11.7001H98.6988V12.8101H96.1938V20.7001ZM110.414 19.5301C108.588 21.3454 105.639 21.3454 103.814 19.5301C102.044 17.6569 102.044 14.7282 103.814 12.8551C104.687 11.9757 105.875 11.4811 107.114 11.4811C108.353 11.4811 109.541 11.9757 110.414 12.8551C112.191 14.7252 112.191 17.66 110.414 19.5301ZM104.669 18.7801C106.021 20.1264 108.207 20.1264 109.559 18.7801C110.887 17.3163 110.887 15.0838 109.559 13.6201C108.207 12.2737 106.021 12.2737 104.669 13.6201C103.341 15.0838 103.341 17.3163 104.669 18.7801ZM113.369 20.7001V11.7001H114.779L119.159 18.7051V11.7001H120.314V20.7001H119.114L114.539 13.3651V20.7001H113.369Z" fill="white" stroke="white" stroke-width="0.5"/>
<path d="M15.6563 12.5098C15.1674 13.0964 14.9206 13.8475 14.9663 14.6098V47.7898C14.9206 48.5521 15.1674 49.3031 15.6563 49.8898L15.7613 49.9948L34.3463 31.4248V30.9898L15.7613 12.4048L15.6563 12.5098Z" fill="url(#paint0_linear_1472_1481)"/>
<path d="M40.4977 37.6198L34.3477 31.4248V30.9898L40.4977 24.7798L40.6327 24.8548L47.9977 29.0398C50.0977 30.2248 50.0977 32.1748 47.9977 33.3748L40.6627 37.5448L40.4977 37.6198Z" fill="url(#paint1_linear_1472_1481)"/>
<path d="M40.6763 37.5299L34.3463 31.1999L15.6562 49.8899C16.5393 50.6662 17.8499 50.704 18.7763 49.9799L40.6913 37.5299" fill="url(#paint2_linear_1472_1481)"/>
<path d="M40.6795 24.8698L18.7645 12.4198C17.8382 11.6958 16.5276 11.7336 15.6445 12.5098L34.3495 31.1998L40.6795 24.8698Z" fill="url(#paint3_linear_1472_1481)"/>
<path opacity="0.2" d="M40.4963 37.3947L18.7612 49.7697C17.8718 50.4348 16.6507 50.4348 15.7613 49.7697L15.6562 49.8747L15.7613 49.9797C16.649 50.6498 17.8735 50.6498 18.7612 49.9797L40.6763 37.5297L40.4963 37.3947Z" fill="black"/>
<path opacity="0.12" d="M15.6563 49.6799C15.1674 49.0933 14.9206 48.3422 14.9663 47.5799V47.8049C14.9206 48.5672 15.1674 49.3183 15.6563 49.9049L15.7613 49.7999L15.6563 49.6799ZM47.9963 33.1499L40.4963 37.3949L40.6313 37.5299L47.9963 33.3599C48.8469 32.9603 49.419 32.1365 49.4963 31.1999C49.3254 32.0472 48.7714 32.7674 47.9963 33.1499Z" fill="black"/>
<path opacity="0.25" d="M18.7631 12.6299L47.9981 29.2499C48.7732 29.6325 49.3272 30.3527 49.4981 31.1999C49.4208 30.2634 48.8487 29.4395 47.9981 29.0399L18.7631 12.4199C16.6631 11.2349 14.9531 12.2249 14.9531 14.6249V14.8499C14.9981 12.4349 16.6781 11.4449 18.7631 12.6299Z" fill="white"/>
<defs>
<linearGradient id="paint0_linear_1472_1481" x1="26.7926" y1="14.2648" x2="10.8606" y2="30.1968" gradientUnits="userSpaceOnUse">
<stop stop-color="#00A0FF"/>
<stop offset="0.01" stop-color="#00A1FF"/>
<stop offset="0.26" stop-color="#00BEFF"/>
<stop offset="0.51" stop-color="#00D2FF"/>
<stop offset="0.76" stop-color="#00DFFF"/>
<stop offset="1" stop-color="#00E3FF"/>
</linearGradient>
<linearGradient id="paint1_linear_1472_1481" x1="50.7427" y1="31.1998" x2="14.4577" y2="31.1998" gradientUnits="userSpaceOnUse">
<stop stop-color="#FFE000"/>
<stop offset="0.41" stop-color="#FFBD00"/>
<stop offset="0.78" stop-color="#FFA500"/>
<stop offset="1" stop-color="#FF9C00"/>
</linearGradient>
<linearGradient id="paint2_linear_1472_1481" x1="37.2413" y1="37.1654" x2="10.0246" y2="64.3701" gradientUnits="userSpaceOnUse">
<stop stop-color="#FF3A44"/>
<stop offset="1" stop-color="#C31162"/>
</linearGradient>
<linearGradient id="paint3_linear_1472_1481" x1="10.9495" y1="9.61785" x2="23.0976" y2="21.7659" gradientUnits="userSpaceOnUse">
<stop stop-color="#32A071"/>
<stop offset="0.07" stop-color="#2DA771"/>
<stop offset="0.48" stop-color="#15CF74"/>
<stop offset="0.8" stop-color="#06E775"/>
<stop offset="1" stop-color="#00F076"/>
</linearGradient>
</defs>
</svg>
