<svg width="204" height="60" viewBox="0 0 204 60" fill="none" xmlns="http://www.w3.org/2000/svg">
<path d="M13.0994 59.9969C12.5723 59.9969 12.0579 59.9907 11.5349 59.9801C10.4516 59.9673 9.37072 59.8818 8.30129 59.7243C7.30409 59.5685 6.33807 59.2789 5.4351 58.8648C4.54041 58.4542 3.72438 57.9158 3.01827 57.2703C2.30194 56.6323 1.70556 55.8924 1.25277 55.0798C0.794993 54.2619 0.478181 53.3853 0.313375 52.4804C0.135399 51.5081 0.0391059 50.5249 0.0253274 49.5394C0.0143591 49.2086 0 48.1071 0 48.1071V11.8729C0 11.8729 0.0152933 10.7883 0.0254139 10.4697C0.0386067 9.48575 0.134339 8.50411 0.311783 7.5333C0.476894 6.62593 0.79395 5.74676 1.25198 4.92622C1.7031 4.11421 2.29617 3.37372 3.00818 2.73347C3.7194 2.08714 4.53804 1.54596 5.43425 1.12968C6.33515 0.716972 7.29934 0.429362 8.29452 0.276488C9.36747 0.117384 10.4521 0.0313648 11.5392 0.0191519L13.1002 0H190.891L192.471 0.0199205C193.548 0.0315265 194.623 0.116778 195.686 0.27495C196.691 0.429742 197.666 0.719359 198.577 1.13428C200.372 1.97321 201.833 3.30048 202.755 4.93005C203.205 5.74492 203.518 6.61692 203.681 7.51645C203.86 8.49523 203.961 9.48458 203.981 10.4766C203.986 10.9208 203.986 11.398 203.986 11.8729C204 12.4611 204 13.0209 204 13.5854V46.4129C204 46.9828 204 47.5388 203.986 48.0994C203.986 48.6095 203.986 49.0768 203.98 49.5577C203.959 50.5321 203.861 51.5038 203.684 52.465C203.523 53.3764 203.207 54.2599 202.75 55.0845C202.294 55.8883 201.701 56.6218 200.993 57.258C200.286 57.9071 199.469 58.4486 198.572 58.8619C197.663 59.2791 196.69 59.5698 195.686 59.7243C194.617 59.8826 193.536 59.9681 192.452 59.9801C191.946 59.9907 191.415 59.9969 190.9 59.9969L189.024 60L13.0994 59.9969Z" fill="#111111"/>
<path d="M62.2539 41.9096H55.1538L53.4487 46.9442H50.4414L57.1665 28.3172H60.291L67.0161 46.9442H63.9575L62.2539 41.9096ZM55.8892 39.5863H61.5171L58.7427 31.4154H58.6651L55.8892 39.5863ZM81.54 40.1547C81.54 44.3749 79.2812 47.0863 75.8726 47.0863C74.1106 47.1785 72.451 46.2556 71.5996 44.7103H71.5351V51.4369H68.7475V33.3637H71.4458V35.6225H71.4971C72.3863 34.0868 74.0477 33.1644 75.8213 33.2216C79.268 33.2216 81.54 35.9462 81.54 40.1547ZM78.6748 40.1547C78.6748 37.4052 77.2539 35.5976 75.0859 35.5976C72.956 35.5976 71.5234 37.4433 71.5234 40.1547C71.5234 42.891 72.956 44.7235 75.0859 44.7235C77.2539 44.7235 78.6748 42.9291 78.6748 40.1547ZM96.4873 40.1547C96.4873 44.3749 94.2285 47.0863 90.8198 47.0863C89.0579 47.1785 87.3983 46.2556 86.5469 44.7103H86.4824V51.4369H83.6948V33.3637H86.393V35.6225H86.4443C87.3335 34.0868 88.9949 33.1644 90.7685 33.2216C94.2153 33.2216 96.4873 35.9462 96.4873 40.1547ZM93.6221 40.1547C93.6221 37.4052 92.2012 35.5976 90.0332 35.5976C87.9033 35.5976 86.4707 37.4433 86.4707 40.1547C86.4707 42.891 87.9033 44.7235 90.0332 44.7235C92.2012 44.7235 93.6221 42.9291 93.6221 40.1547ZM106.366 41.7543C106.573 43.6015 108.367 44.8143 110.819 44.8143C113.169 44.8143 114.859 43.6014 114.859 41.9359C114.859 40.4901 113.84 39.6244 111.426 39.0311L109.012 38.4495C105.591 37.6234 104.003 36.0237 104.003 33.428C104.003 30.2142 106.804 28.0067 110.781 28.0067C114.717 28.0067 117.416 30.2142 117.506 33.428H114.692C114.524 31.5692 112.987 30.4471 110.742 30.4471C108.496 30.4471 106.959 31.5824 106.959 33.2347C106.959 34.5516 107.941 35.3265 110.342 35.9197L112.394 36.4236C116.216 37.3274 117.804 38.8626 117.804 41.5872C117.804 45.072 115.028 47.2547 110.613 47.2547C106.482 47.2547 103.693 45.1233 103.513 41.7542L106.366 41.7543ZM123.82 30.1498V33.3637H126.402V35.5712H123.82V43.058C123.82 44.2211 124.337 44.7631 125.472 44.7631C125.779 44.7577 126.085 44.7362 126.389 44.6986V46.8929C125.879 46.9883 125.36 47.0315 124.841 47.0218C122.091 47.0218 121.019 45.9891 121.019 43.3553V35.5712H119.044V33.3637H121.019V30.1498H123.82ZM127.898 40.1547C127.898 35.8817 130.415 33.1967 134.339 33.1967C138.276 33.1967 140.781 35.8817 140.781 40.1547C140.781 44.4394 138.29 47.1127 134.339 47.1127C130.39 47.1127 127.898 44.4393 127.898 40.1547ZM137.941 40.1547C137.941 37.2235 136.598 35.4936 134.339 35.4936C132.08 35.4936 130.738 37.2367 130.738 40.1547C130.738 43.0976 132.08 44.8144 134.339 44.8144C136.598 44.8144 137.941 43.0976 137.941 40.1547ZM143.08 33.3637H145.738V35.6752H145.803C146.174 34.1871 147.537 33.163 149.069 33.2216C149.391 33.2204 149.711 33.2553 150.024 33.3256V35.933C149.619 35.8091 149.196 35.7522 148.772 35.7645C147.952 35.7313 147.159 36.0579 146.601 36.6586C146.042 37.2593 145.774 38.0741 145.867 38.889V46.9442H143.08V33.3637ZM162.877 42.9555C162.502 45.4208 160.101 47.1127 157.029 47.1127C153.079 47.1127 150.626 44.4657 150.626 40.2191C150.626 35.9594 153.092 33.1967 156.912 33.1967C160.669 33.1967 163.032 35.7777 163.032 39.8954V40.8505H153.44V41.0189C153.351 42.03 153.7 43.0308 154.399 43.7667C155.098 44.5027 156.079 44.9029 157.094 44.8656C158.447 44.9923 159.722 44.2156 160.23 42.9554L162.877 42.9555ZM153.454 38.9022H160.243C160.294 37.9937 159.963 37.1053 159.331 36.451C158.698 35.7968 157.822 35.4359 156.912 35.4555C155.995 35.45 155.114 35.811 154.465 36.4582C153.815 37.1055 153.451 37.9853 153.454 38.9022Z" fill="white"/>
<path d="M55.5376 14.2964C56.721 14.2115 57.8801 14.6617 58.696 15.5232C59.5118 16.3847 59.8982 17.5666 59.749 18.7436C59.749 21.603 58.2036 23.2466 55.5376 23.2466H52.3047V14.2964H55.5376ZM53.6948 21.9809H55.3823C56.228 22.0314 57.0515 21.6982 57.6241 21.0738C58.1967 20.4493 58.4575 19.6001 58.334 18.7619C58.4485 17.9272 58.184 17.0849 57.6128 16.4656C57.0416 15.8462 56.2236 15.5145 55.3823 15.5612H53.6948V21.9809ZM61.3193 19.8664C61.2035 18.6557 61.784 17.484 62.8174 16.8428C63.8508 16.2015 65.1584 16.2015 66.1918 16.8428C67.2252 17.484 67.8058 18.6557 67.6899 19.8664C67.808 21.0784 67.228 22.2523 66.1936 22.895C65.1593 23.5376 63.8499 23.5376 62.8156 22.895C61.7813 22.2523 61.2013 21.0784 61.3193 19.8664ZM66.3188 19.8664C66.3188 18.4023 65.6611 17.5461 64.5068 17.5461C63.3481 17.5461 62.6963 18.4023 62.6963 19.8664C62.6963 21.3422 63.3482 22.1918 64.5068 22.1918C65.6611 22.1918 66.3188 21.3364 66.3188 19.8664ZM76.1582 23.2465H74.7754L73.3794 18.2719H73.2739L71.8838 23.2465H70.5142L68.6523 16.4921H70.0044L71.2144 21.6461H71.314L72.7026 16.4921H73.9815L75.3701 21.6461H75.4756L76.6797 16.4921H78.0127L76.1582 23.2465ZM79.5786 16.4921H80.8618V17.5651H80.9614C81.3078 16.7751 82.1173 16.2918 82.977 16.3617C83.6428 16.3117 84.2951 16.5671 84.7499 17.0558C85.2048 17.5445 85.4127 18.2135 85.3149 18.8739V23.2464H83.9819V19.2087C83.9819 18.1232 83.5103 17.5834 82.5244 17.5834C82.0729 17.5624 81.6346 17.7396 81.3246 18.0686C81.0146 18.3976 80.8638 18.8456 80.9116 19.2951V23.2465H79.5786V16.4921ZM87.439 13.8554H88.772V23.2465H87.439V13.8554ZM90.625 19.8664C90.5093 18.6556 91.0899 17.4839 92.1234 16.8427C93.1568 16.2014 94.4645 16.2014 95.498 16.8427C96.5314 17.4839 97.1121 18.6556 96.9963 19.8664C97.1142 21.0784 96.5341 22.2523 95.4997 22.8949C94.4654 23.5376 93.156 23.5376 92.1216 22.8949C91.0872 22.2523 90.5071 21.0784 90.625 19.8664ZM95.6245 19.8664C95.6245 18.4023 94.9668 17.5461 93.8125 17.5461C92.6538 17.5461 92.002 18.4023 92.002 19.8664C92.002 21.3422 92.6539 22.1918 93.8125 22.1918C94.9668 22.1918 95.6245 21.3364 95.6245 19.8664ZM98.3997 21.3364C98.3997 20.1205 99.3049 19.4196 100.912 19.32L102.741 19.2145V18.6315C102.741 17.9181 102.27 17.5153 101.359 17.5153C100.615 17.5153 100.099 17.7885 99.9509 18.2661H98.6604C98.7966 17.1059 99.8879 16.3618 101.42 16.3618C103.114 16.3618 104.069 17.2048 104.069 18.6315V23.2465H102.785V22.2973H102.68C102.244 22.9905 101.469 23.3956 100.651 23.3578C100.078 23.4174 99.5059 23.2317 99.0769 22.8466C98.6479 22.4615 98.4019 21.9128 98.3997 21.3364ZM102.741 20.7592V20.1945L101.092 20.3C100.162 20.3622 99.74 20.6786 99.74 21.2741C99.74 21.882 100.267 22.2358 100.992 22.2358C101.422 22.2792 101.85 22.1466 102.18 21.8682C102.51 21.5899 102.712 21.1897 102.741 20.7592ZM105.821 19.8664C105.821 17.7321 106.918 16.3801 108.624 16.3801C109.486 16.3404 110.293 16.8021 110.696 17.5651H110.795V13.8554H112.128V23.2465H110.851V22.1793H110.745C110.312 22.936 109.495 23.3899 108.624 23.3578C106.906 23.3579 105.821 22.0058 105.821 19.8664ZM107.198 19.8664C107.198 21.299 107.873 22.1611 109.002 22.1611C110.126 22.1611 110.82 21.2866 110.82 19.8723C110.82 18.4645 110.118 17.5776 109.002 17.5776C107.88 17.5776 107.198 18.4455 107.198 19.8664H107.198ZM117.643 19.8664C117.527 18.6557 118.108 17.484 119.141 16.8428C120.175 16.2015 121.482 16.2015 122.516 16.8428C123.549 17.484 124.13 18.6557 124.014 19.8664C124.132 21.0784 123.552 22.2523 122.518 22.895C121.483 23.5376 120.174 23.5376 119.14 22.895C118.105 22.2523 117.525 21.0784 117.643 19.8664ZM122.643 19.8664C122.643 18.4023 121.985 17.5461 120.831 17.5461C119.672 17.5461 119.02 18.4023 119.02 19.8664C119.02 21.3422 119.672 22.1918 120.831 22.1918C121.985 22.1918 122.643 21.3364 122.643 19.8664ZM125.802 16.4921H127.086V17.5651H127.185C127.532 16.7751 128.341 16.2918 129.201 16.3617C129.867 16.3117 130.519 16.5671 130.974 17.0558C131.429 17.5445 131.637 18.2135 131.539 18.8739V23.2464H130.206V19.2087C130.206 18.1232 129.734 17.5834 128.748 17.5834C128.297 17.5624 127.859 17.7396 127.549 18.0686C127.239 18.3976 127.088 18.8456 127.135 19.2951V23.2465H125.802V16.4921ZM139.071 14.8105V16.5229H140.534V17.6457H139.071V21.1188C139.071 21.8263 139.363 22.1362 140.026 22.1362C140.196 22.1356 140.366 22.1253 140.534 22.1054V23.2157C140.295 23.2586 140.053 23.2813 139.809 23.2839C138.327 23.2839 137.737 22.7624 137.737 21.4601V17.6456H136.664V16.5228H137.737V14.8105H139.071ZM142.355 13.8554H143.677V17.5776H143.782C144.145 16.7806 144.969 16.2968 145.841 16.3676C146.503 16.3316 147.147 16.5926 147.597 17.0795C148.047 17.5665 148.256 18.2286 148.168 18.8857V23.2465H146.833V19.2145C146.833 18.1356 146.331 17.5893 145.389 17.5893C144.925 17.5512 144.468 17.7198 144.14 18.05C143.813 18.3801 143.647 18.8382 143.688 19.3017V23.2465H142.355L142.355 13.8554ZM155.94 21.4228C155.566 22.6968 154.333 23.52 153.013 23.3769C152.113 23.4006 151.247 23.0273 150.646 22.356C150.046 21.6846 149.77 20.7831 149.893 19.8906C149.773 18.9956 150.048 18.0926 150.645 17.4155C151.243 16.7385 152.105 16.354 153.008 16.3617C154.887 16.3617 156.021 17.6457 156.021 19.7667V20.2319H151.251V20.3066C151.209 20.8078 151.38 21.3035 151.723 21.6719C152.065 22.0403 152.547 22.2472 153.05 22.2416C153.702 22.3199 154.337 21.9964 154.657 21.4227L155.94 21.4228ZM151.251 19.246H154.663C154.697 18.7876 154.536 18.3362 154.219 18.003C153.902 17.6697 153.46 17.4857 153 17.4963C152.534 17.4904 152.086 17.6729 151.757 18.0023C151.427 18.3318 151.245 18.7803 151.251 19.246H151.251Z" fill="white"/>
<path d="M35.9538 31.6511C35.9866 29.1064 37.3206 26.7558 39.4886 25.423C38.1147 23.4608 35.8961 22.2614 33.5019 22.1865C30.983 21.9221 28.5411 23.6937 27.2575 23.6937C25.9491 23.6937 23.9729 22.2127 21.8448 22.2565C19.0448 22.347 16.4977 23.9003 15.1354 26.3483C12.2344 31.3709 14.3983 38.7525 17.1772 42.8124C18.5676 44.8004 20.1925 47.0211 22.3186 46.9424C24.3992 46.8561 25.1763 45.6157 27.6877 45.6157C30.1759 45.6157 30.9049 46.9424 33.0742 46.8923C35.3068 46.8561 36.7134 44.8954 38.055 42.8886C39.054 41.4721 39.8227 39.9065 40.3326 38.2498C37.681 37.1283 35.9569 34.5301 35.9538 31.6511ZM31.8563 19.5164C33.0736 18.0551 33.6733 16.1768 33.5281 14.2805C31.6684 14.4758 29.9505 15.3646 28.7167 16.7699C27.4985 18.1563 26.8813 19.9702 27.0012 21.812C28.8859 21.8314 30.6753 20.9853 31.8563 19.5164Z" fill="white"/>
</svg>
