<svg width="190" height="30" viewBox="0 0 190 30" fill="none" xmlns="http://www.w3.org/2000/svg">
<g clip-path="url(#clip0_1472_3501)">
<path d="M10.5422 7.50031H3.7509L3.6084 7.50781C3.40071 7.53173 3.20234 7.60737 3.03144 7.7278C2.86054 7.84822 2.72258 8.00959 2.63018 8.19713C2.53778 8.38467 2.49389 8.59239 2.50253 8.80127C2.51118 9.01016 2.57207 9.21354 2.67965 9.39281L6.04215 15.0003L2.67965 20.6078L2.61215 20.7328C2.52552 20.9233 2.4881 21.1325 2.50331 21.3412C2.51852 21.5499 2.58587 21.7514 2.6992 21.9273C2.81253 22.1032 2.96821 22.2479 3.15196 22.348C3.33571 22.4481 3.54165 22.5005 3.7509 22.5003H10.5434L13.9297 28.1428L14.0222 28.2778C14.1479 28.4358 14.31 28.561 14.4946 28.6427C14.6793 28.7244 14.881 28.7602 15.0825 28.7469C15.284 28.7336 15.4792 28.6717 15.6516 28.5665C15.8239 28.4613 15.9683 28.3159 16.0722 28.1428L19.4572 22.5003H26.2509L26.3934 22.4928C26.6011 22.4689 26.7995 22.3932 26.9704 22.2728C27.1413 22.1524 27.2792 21.991 27.3716 21.8035C27.464 21.6159 27.5079 21.4082 27.4993 21.1993C27.4906 20.9905 27.4297 20.7871 27.3222 20.6078L23.9584 15.0003L27.3222 9.39281L27.3897 9.26781C27.4763 9.07733 27.5137 8.86815 27.4985 8.65945C27.4833 8.45076 27.4159 8.24921 27.3026 8.07331C27.1893 7.8974 27.0336 7.75276 26.8498 7.65265C26.6661 7.55254 26.4602 7.50016 26.2509 7.50031H19.4584L16.0722 1.85781C15.961 1.67299 15.804 1.52007 15.6163 1.41391C15.4285 1.30775 15.2166 1.25195 15.0009 1.25195C14.7853 1.25195 14.5733 1.30775 14.3856 1.41391C14.1978 1.52007 14.0408 1.67299 13.9297 1.85781L10.5422 7.50031Z" fill="#FDCD0A"/>
</g>
<g clip-path="url(#clip1_1472_3501)">
<path d="M50.5422 7.50031H43.7509L43.6084 7.50781C43.4007 7.53173 43.2023 7.60737 43.0314 7.7278C42.8605 7.84822 42.7226 8.00959 42.6302 8.19713C42.5378 8.38467 42.4939 8.59239 42.5025 8.80127C42.5112 9.01016 42.5721 9.21354 42.6797 9.39281L46.0422 15.0003L42.6797 20.6078L42.6122 20.7328C42.5255 20.9233 42.4881 21.1325 42.5033 21.3412C42.5185 21.5499 42.5859 21.7514 42.6992 21.9273C42.8125 22.1032 42.9682 22.2479 43.152 22.348C43.3357 22.4481 43.5417 22.5005 43.7509 22.5003H50.5434L53.9297 28.1428L54.0222 28.2778C54.1479 28.4358 54.31 28.561 54.4946 28.6427C54.6793 28.7244 54.881 28.7602 55.0825 28.7469C55.284 28.7336 55.4792 28.6717 55.6516 28.5665C55.8239 28.4613 55.9683 28.3159 56.0722 28.1428L59.4572 22.5003H66.2509L66.3934 22.4928C66.6011 22.4689 66.7995 22.3932 66.9704 22.2728C67.1413 22.1524 67.2792 21.991 67.3716 21.8035C67.464 21.6159 67.5079 21.4082 67.4993 21.1993C67.4906 20.9905 67.4297 20.7871 67.3222 20.6078L63.9584 15.0003L67.3222 9.39281L67.3897 9.26781C67.4763 9.07733 67.5137 8.86815 67.4985 8.65945C67.4833 8.45076 67.4159 8.24921 67.3026 8.07331C67.1893 7.8974 67.0336 7.75276 66.8498 7.65265C66.6661 7.55254 66.4602 7.50016 66.2509 7.50031H59.4584L56.0722 1.85781C55.961 1.67299 55.804 1.52007 55.6163 1.41391C55.4285 1.30775 55.2166 1.25195 55.0009 1.25195C54.7853 1.25195 54.5733 1.30775 54.3856 1.41391C54.1978 1.52007 54.0408 1.67299 53.9297 1.85781L50.5422 7.50031Z" fill="#FDCD0A"/>
</g>
<g clip-path="url(#clip2_1472_3501)">
<path d="M90.5422 7.50031H83.7509L83.6084 7.50781C83.4007 7.53173 83.2023 7.60737 83.0314 7.7278C82.8605 7.84822 82.7226 8.00959 82.6302 8.19713C82.5378 8.38467 82.4939 8.59239 82.5025 8.80127C82.5112 9.01016 82.5721 9.21354 82.6797 9.39281L86.0422 15.0003L82.6797 20.6078L82.6122 20.7328C82.5255 20.9233 82.4881 21.1325 82.5033 21.3412C82.5185 21.5499 82.5859 21.7514 82.6992 21.9273C82.8125 22.1032 82.9682 22.2479 83.152 22.348C83.3357 22.4481 83.5417 22.5005 83.7509 22.5003H90.5434L93.9297 28.1428L94.0222 28.2778C94.1479 28.4358 94.31 28.561 94.4946 28.6427C94.6793 28.7244 94.881 28.7602 95.0825 28.7469C95.284 28.7336 95.4792 28.6717 95.6516 28.5665C95.8239 28.4613 95.9683 28.3159 96.0722 28.1428L99.4572 22.5003H106.251L106.393 22.4928C106.601 22.4689 106.799 22.3932 106.97 22.2728C107.141 22.1524 107.279 21.991 107.372 21.8035C107.464 21.6159 107.508 21.4082 107.499 21.1993C107.491 20.9905 107.43 20.7871 107.322 20.6078L103.958 15.0003L107.322 9.39281L107.39 9.26781C107.476 9.07733 107.514 8.86815 107.499 8.65945C107.483 8.45076 107.416 8.24921 107.303 8.07331C107.189 7.8974 107.034 7.75276 106.85 7.65265C106.666 7.55254 106.46 7.50016 106.251 7.50031H99.4584L96.0722 1.85781C95.961 1.67299 95.804 1.52007 95.6163 1.41391C95.4285 1.30775 95.2166 1.25195 95.0009 1.25195C94.7853 1.25195 94.5733 1.30775 94.3856 1.41391C94.1978 1.52007 94.0408 1.67299 93.9297 1.85781L90.5422 7.50031Z" fill="#FDCD0A"/>
</g>
<g clip-path="url(#clip3_1472_3501)">
<path d="M130.542 7.50031H123.751L123.608 7.50781C123.401 7.53173 123.202 7.60737 123.031 7.7278C122.861 7.84822 122.723 8.00959 122.63 8.19713C122.538 8.38467 122.494 8.59239 122.503 8.80127C122.511 9.01016 122.572 9.21354 122.68 9.39281L126.042 15.0003L122.68 20.6078L122.612 20.7328C122.526 20.9233 122.488 21.1325 122.503 21.3412C122.519 21.5499 122.586 21.7514 122.699 21.9273C122.813 22.1032 122.968 22.2479 123.152 22.348C123.336 22.4481 123.542 22.5005 123.751 22.5003H130.543L133.93 28.1428L134.022 28.2778C134.148 28.4358 134.31 28.561 134.495 28.6427C134.679 28.7244 134.881 28.7602 135.082 28.7469C135.284 28.7336 135.479 28.6717 135.652 28.5665C135.824 28.4613 135.968 28.3159 136.072 28.1428L139.457 22.5003H146.251L146.393 22.4928C146.601 22.4689 146.799 22.3932 146.97 22.2728C147.141 22.1524 147.279 21.991 147.372 21.8035C147.464 21.6159 147.508 21.4082 147.499 21.1993C147.491 20.9905 147.43 20.7871 147.322 20.6078L143.958 15.0003L147.322 9.39281L147.39 9.26781C147.476 9.07733 147.514 8.86815 147.499 8.65945C147.483 8.45076 147.416 8.24921 147.303 8.07331C147.189 7.8974 147.034 7.75276 146.85 7.65265C146.666 7.55254 146.46 7.50016 146.251 7.50031H139.458L136.072 1.85781C135.961 1.67299 135.804 1.52007 135.616 1.41391C135.429 1.30775 135.217 1.25195 135.001 1.25195C134.785 1.25195 134.573 1.30775 134.386 1.41391C134.198 1.52007 134.041 1.67299 133.93 1.85781L130.542 7.50031Z" fill="#FDCD0A"/>
</g>
<g clip-path="url(#clip4_1472_3501)">
<path d="M170.542 7.50031H163.751L163.608 7.50781C163.401 7.53173 163.202 7.60737 163.031 7.7278C162.861 7.84822 162.723 8.00959 162.63 8.19713C162.538 8.38467 162.494 8.59239 162.503 8.80127C162.511 9.01016 162.572 9.21354 162.68 9.39281L166.042 15.0003L162.68 20.6078L162.612 20.7328C162.526 20.9233 162.488 21.1325 162.503 21.3412C162.519 21.5499 162.586 21.7514 162.699 21.9273C162.813 22.1032 162.968 22.2479 163.152 22.348C163.336 22.4481 163.542 22.5005 163.751 22.5003H170.543L173.93 28.1428L174.022 28.2778C174.148 28.4358 174.31 28.561 174.495 28.6427C174.679 28.7244 174.881 28.7602 175.082 28.7469C175.284 28.7336 175.479 28.6717 175.652 28.5665C175.824 28.4613 175.968 28.3159 176.072 28.1428L179.457 22.5003H186.251L186.393 22.4928C186.601 22.4689 186.799 22.3932 186.97 22.2728C187.141 22.1524 187.279 21.991 187.372 21.8035C187.464 21.6159 187.508 21.4082 187.499 21.1993C187.491 20.9905 187.43 20.7871 187.322 20.6078L183.958 15.0003L187.322 9.39281L187.39 9.26781C187.476 9.07733 187.514 8.86815 187.499 8.65945C187.483 8.45076 187.416 8.24921 187.303 8.07331C187.189 7.8974 187.034 7.75276 186.85 7.65265C186.666 7.55254 186.46 7.50016 186.251 7.50031H179.458L176.072 1.85781C175.961 1.67299 175.804 1.52007 175.616 1.41391C175.429 1.30775 175.217 1.25195 175.001 1.25195C174.785 1.25195 174.573 1.30775 174.386 1.41391C174.198 1.52007 174.041 1.67299 173.93 1.85781L170.542 7.50031Z" fill="#FDCD0A"/>
</g>
<defs>
<clipPath id="clip0_1472_3501">
<rect width="30" height="30" fill="white"/>
</clipPath>
<clipPath id="clip1_1472_3501">
<rect width="30" height="30" fill="white" transform="translate(40)"/>
</clipPath>
<clipPath id="clip2_1472_3501">
<rect width="30" height="30" fill="white" transform="translate(80)"/>
</clipPath>
<clipPath id="clip3_1472_3501">
<rect width="30" height="30" fill="white" transform="translate(120)"/>
</clipPath>
<clipPath id="clip4_1472_3501">
<rect width="30" height="30" fill="white" transform="translate(160)"/>
</clipPath>
</defs>
</svg>
