<svg width="50" height="50" viewBox="0 0 50 50" fill="none" xmlns="http://www.w3.org/2000/svg">
<path d="M4.3291 47.1387C3.0459 47.1387 2 46.0928 2 44.8096V32.1709C2 30.8877 3.0459 29.8418 4.3291 29.8418C5.6123 29.8418 6.6582 30.8877 6.6582 32.1709V42.4805H42.3418V32.1709C42.3418 30.8877 43.3877 29.8418 44.6709 29.8418C45.9541 29.8418 47 30.8877 47 32.1709V44.8096C47 46.0928 45.9541 47.1387 44.6709 47.1387H4.3291Z" fill="black"/>
<path d="M44.6729 30.457C43.7236 30.457 42.959 31.2217 42.959 32.1621V43.0869H6.04492V32.1709C6.04492 31.2217 5.28027 30.457 4.33105 30.457C3.38184 30.457 2.61719 31.2217 2.61719 32.1709V44.8096C2.61719 45.7588 3.38184 46.5234 4.33105 46.5234H44.6729C45.6221 46.5234 46.3867 45.7588 46.3867 44.8096V32.1709C46.3867 31.2217 45.6221 30.457 44.6729 30.457Z" fill="white"/>
<path d="M24.4983 33.6738C24.4368 33.6738 24.384 33.6738 24.3313 33.665C24.3137 33.665 24.2874 33.665 24.2698 33.665C24.2522 33.665 24.2258 33.6563 24.1995 33.6563H24.1819C24.1379 33.6475 24.094 33.6475 24.05 33.6387L24.0061 33.6299C23.9446 33.6123 23.8918 33.6035 23.8391 33.5859L23.8215 33.5772L23.804 33.5684C23.7424 33.5508 23.6897 33.5332 23.6282 33.5068L23.6018 33.498L23.5842 33.4893C23.5403 33.4717 23.4875 33.4453 23.4436 33.4189L23.3821 33.3838L23.3733 33.375C23.3381 33.3574 23.2942 33.3311 23.259 33.3047L23.1887 33.2607C23.1448 33.2256 23.1008 33.1992 23.0569 33.1641C23.0481 33.1553 23.0305 33.1465 23.0217 33.1377C22.9778 33.0938 22.925 33.0586 22.8811 33.0059L22.8547 32.9795L15.9641 26.0801C15.0588 25.1748 15.0588 23.6982 15.9641 22.7842C16.8694 21.8701 18.3459 21.8789 19.26 22.7842L22.178 25.7022V5.3291C22.178 4.0459 23.2239 3 24.5071 3C25.7903 3 26.8362 4.0459 26.8362 5.3291V25.7285L29.8069 22.7578C30.7122 21.8525 32.1887 21.8525 33.1028 22.7578C34.0168 23.6631 34.0081 25.1397 33.1028 26.0537L26.1594 32.9971C26.1067 33.0498 26.0452 33.1025 25.9836 33.1553C25.9221 33.208 25.8782 33.2344 25.8254 33.2783H25.8167L25.7903 33.2959C25.5442 33.4541 25.2717 33.5684 24.9817 33.6299L24.9465 33.6387C24.8938 33.6475 24.8323 33.6563 24.7883 33.665L24.7268 33.6738C24.6917 33.6738 24.6477 33.6826 24.6125 33.6826H24.5862C24.551 33.6738 24.5247 33.6738 24.4983 33.6738Z" fill="black"/>
<path d="M23.2881 32.5576L23.2969 32.5664C23.332 32.6016 23.376 32.6367 23.4111 32.6719L23.4375 32.6895C23.4727 32.7158 23.499 32.7334 23.5342 32.7598C23.5518 32.7686 23.5693 32.7773 23.5869 32.7949C23.6045 32.8125 23.6396 32.8301 23.666 32.8389L23.7187 32.8652C23.7627 32.8828 23.7979 32.9092 23.8418 32.9268C23.8945 32.9443 23.9473 32.9707 24 32.9795H24.0088C24.0527 32.9883 24.1055 33.0059 24.1494 33.0147L24.1758 33.0234C24.2109 33.0322 24.2461 33.0322 24.2812 33.041L24.334 33.0498H24.3691C24.4131 33.0498 24.4482 33.0586 24.4922 33.0586H24.5625C24.5625 33.0586 24.6328 33.0586 24.6592 33.0498L24.7031 33.041C24.7471 33.0322 24.791 33.0322 24.8262 33.0234H24.835C25.0547 32.9795 25.2568 32.8916 25.4414 32.7686H25.4502C25.4941 32.7422 25.5381 32.707 25.582 32.6719C25.626 32.6367 25.6699 32.5928 25.7139 32.5576L32.6572 25.6143C33.3252 24.9463 33.3252 23.8564 32.6572 23.1885C31.9893 22.5205 30.8994 22.5205 30.2314 23.1885L26.2061 27.2139V5.3291C26.2061 4.37988 25.4414 3.61523 24.4922 3.61523C23.543 3.61523 22.7783 4.37988 22.7783 5.3291V27.2139L18.8057 23.2412C18.1377 22.5732 17.0479 22.5732 16.3799 23.2412C15.7119 23.9092 15.7119 24.999 16.3799 25.667L23.2881 32.5576Z" fill="#F9B668"/>
</svg>
