<svg width="51" height="50" viewBox="0 0 51 50" fill="none" xmlns="http://www.w3.org/2000/svg">
<mask id="mask0_1472_3421" style="mask-type:luminance" maskUnits="userSpaceOnUse" x="3" y="3" width="46" height="45">
<path d="M3.5 3H48.5V48H3.5V3Z" fill="white"/>
</mask>
<g mask="url(#mask0_1472_3421)">
<path d="M36.6172 37.9876C36.652 36.9098 35.7804 36.0148 34.7077 36.0148H34.704V36.0141C34.7557 36.0141 34.8086 36.014 34.8633 36.014C35.9045 36.0133 36.7476 35.1683 36.7471 34.1275C36.7461 33.0861 35.9014 32.2484 34.8604 32.2491H27.0172C26.7986 32.2491 26.6438 32.0356 26.7119 31.8279L27.3993 29.7295C27.9843 27.9437 27.8803 26.7276 27.8803 24.6361C27.8803 23.4058 26.8829 22.4084 25.6526 22.4084C24.535 22.4084 23.5904 23.2365 23.444 24.3444C23.2821 25.5703 23.1732 27.7502 21.1465 29.7017L19.7161 31.079C18.9192 31.8463 17.8561 32.2748 16.7499 32.2748H14.8711V44.6401C15.3821 44.64 16.4092 44.6398 16.4099 44.6398C19.1407 44.638 18.8911 47.3425 22.2874 47.3394H33.8466C34.8864 47.3394 35.7294 46.4965 35.7294 45.4566V45.4565C35.7294 44.4166 34.8864 43.5737 33.8466 43.5737H34.1782C35.2015 43.5737 36.0751 42.778 36.1092 41.7553C36.1448 40.686 35.2887 39.808 34.2275 39.808H34.6854C35.7096 39.808 36.584 39.0113 36.6172 37.9876Z" fill="#FFCDBF"/>
<path d="M33.8466 45.1421H22.2874C18.8911 45.1453 19.1407 42.4407 16.4099 42.4424C16.4092 42.4424 15.3821 42.4426 14.8711 42.4429V44.6401C15.3821 44.6399 16.4092 44.6397 16.4099 44.6397C19.1407 44.6379 18.8911 47.3425 22.2874 47.3394H33.8466C34.8864 47.3394 35.7294 46.4964 35.7294 45.4566V45.4564C35.7294 45.0459 35.5965 44.6672 35.3735 44.3578C35.0316 44.8322 34.4759 45.1421 33.8466 45.1421Z" fill="#FFBEAB"/>
<path d="M14.3396 31.1636H7.20847C6.67049 31.1636 6.23438 31.5997 6.23438 32.1376V45.019C6.23438 45.557 6.67049 45.9932 7.20847 45.9932H14.3396C14.8775 45.9932 15.3137 45.557 15.3137 45.019V32.1376C15.3137 31.5997 14.8775 31.1636 14.3396 31.1636Z" fill="#FCDAB4"/>
<path d="M8.87109 45.0191V32.1377C8.87109 31.5998 9.30721 31.1636 9.84519 31.1636H7.20847C6.67049 31.1636 6.23438 31.5998 6.23438 32.1377V45.0191C6.23438 45.5571 6.67049 45.9932 7.20847 45.9932H9.84519C9.30721 45.9932 8.87109 45.5571 8.87109 45.0191Z" fill="#F6911D"/>
<path d="M16.5053 13.86C16.7714 13.606 16.6245 13.1635 16.2569 13.1112L13.4176 12.707C13.2716 12.6863 13.1454 12.5964 13.0801 12.4669L11.8104 9.94662C11.6459 9.62029 11.171 9.62029 11.0066 9.94662L9.73677 12.4669C9.67156 12.5964 9.54535 12.6863 9.39936 12.707L6.55997 13.1112C6.19241 13.1635 6.04563 13.606 6.31159 13.86L8.36621 15.8218C8.47176 15.9227 8.52001 16.0679 8.49505 16.2104L8.01007 18.9805C7.94723 19.3391 8.33149 19.6126 8.66038 19.4432L11.1999 18.1354C11.3305 18.0682 11.4864 18.0682 11.617 18.1354L14.1566 19.4432C14.4854 19.6126 14.8697 19.3391 14.8069 18.9805L14.3219 16.2104C14.297 16.0679 14.3451 15.9227 14.4508 15.8218L16.5053 13.86Z" fill="#F9B668"/>
<path d="M11.5958 15.7034C11.6207 15.561 11.5725 15.4157 11.4668 15.3148L9.4123 13.353C9.20866 13.1585 9.24759 12.8541 9.44174 12.6984C9.42777 12.7017 9.41371 12.705 9.39929 12.707L6.55999 13.1112C6.19234 13.1635 6.04565 13.606 6.31161 13.86L8.36614 15.8218C8.47178 15.9227 8.52004 16.0679 8.49507 16.2104L8.01009 18.9805C7.94725 19.3391 8.3316 19.6126 8.6604 19.4432L11.167 18.1524L11.5958 15.7034Z" fill="#F6911D"/>
<path d="M9.66245 12.604L12.5018 12.1999C12.6432 12.1798 12.7655 12.0945 12.8324 11.9715L11.8121 9.94638C11.6477 9.62013 11.1727 9.62013 11.0083 9.94638L9.73848 12.4667C9.7093 12.5248 9.66729 12.5743 9.61719 12.6138C9.63204 12.6102 9.64681 12.6062 9.66245 12.604Z" fill="#F6911D"/>
<path d="M45.7515 13.86C46.0174 13.606 45.8706 13.1635 45.5031 13.1112L42.6637 12.707C42.5178 12.6863 42.3915 12.5964 42.3263 12.4669L41.0565 9.94662C40.8921 9.62029 40.4171 9.62029 40.2527 9.94662L38.9829 12.4669C38.9176 12.5964 38.7915 12.6863 38.6454 12.707L35.8061 13.1112C35.4385 13.1635 35.2917 13.606 35.5577 13.86L37.6123 15.8218C37.7179 15.9227 37.7661 16.0679 37.7412 16.2104L37.2561 18.9805C37.1934 19.3391 37.5776 19.6126 37.9064 19.4432L40.446 18.1354C40.5766 18.0682 40.7325 18.0682 40.8631 18.1354L43.4027 19.4432C43.7315 19.6126 44.1158 19.3391 44.053 18.9805L43.568 16.2104C43.543 16.0679 43.5913 15.9227 43.6969 15.8218L45.7515 13.86Z" fill="#F9B668"/>
<path d="M40.8418 15.7034C40.8668 15.561 40.8185 15.4157 40.713 15.3148L38.6584 13.353C38.4547 13.1585 38.4937 12.8541 38.6878 12.6984C38.6738 12.7017 38.6598 12.705 38.6454 12.707L35.8061 13.1112C35.4385 13.1635 35.2917 13.606 35.5577 13.86L37.6122 15.8218C37.7179 15.9227 37.7661 16.0679 37.7411 16.2104L37.2562 18.9805C37.1933 19.3391 37.5777 19.6126 37.9065 19.4432L40.4131 18.1524L40.8418 15.7034Z" fill="#F6911D"/>
<path d="M38.9046 12.604L41.7439 12.1999C41.8853 12.1798 42.0076 12.0945 42.0745 11.9715L41.0542 9.94638C40.8898 9.62013 40.4149 9.62013 40.2504 9.94638L38.9807 12.4667C38.9514 12.5248 38.9094 12.5743 38.8594 12.6138C38.8742 12.6102 38.8889 12.6062 38.9046 12.604Z" fill="#F6911D"/>
<path d="M34.2723 10.3839C34.7024 9.9733 34.4651 9.25778 33.8706 9.17314L29.2797 8.51968C29.0437 8.4861 28.8396 8.34082 28.7341 8.13137L26.6809 4.05624C26.4151 3.52872 25.6471 3.52872 25.3813 4.05624L23.3282 8.13137C23.2226 8.34082 23.0186 8.4861 22.7825 8.51968L18.1916 9.17314C17.5972 9.25778 17.3599 9.9733 17.7899 10.3839L21.112 13.556C21.2828 13.719 21.3607 13.954 21.3204 14.1842L20.5361 18.6632C20.4346 19.243 21.056 19.6853 21.5877 19.4115L25.6939 17.2969C25.905 17.1882 26.1572 17.1882 26.3683 17.2969L30.4746 19.4115C31.0062 19.6853 31.6276 19.243 31.5261 18.6632L30.7418 14.1842C30.7015 13.954 30.7794 13.719 30.9503 13.556L34.2723 10.3839Z" fill="#F9B668"/>
<path d="M25.884 8.01257C26.12 7.97899 26.324 7.83371 26.4296 7.62427L27.4545 5.59004L26.6817 4.05608C26.4159 3.52856 25.6478 3.52856 25.3821 4.05608L23.3289 8.13122C23.2698 8.24838 23.1793 8.34436 23.0703 8.41309L25.884 8.01257Z" fill="#F6911D"/>
<path d="M23.6369 18.1563L24.421 13.6774C24.4615 13.447 24.3835 13.2121 24.2127 13.049L20.8907 9.87696C20.5408 9.54298 20.6325 9.00755 20.9986 8.77358L18.1915 9.17313C17.5972 9.25777 17.3598 9.97329 17.79 10.3839L21.112 13.556C21.2827 13.7191 21.3608 13.954 21.3203 14.1843L20.5362 18.6632C20.4346 19.2431 21.056 19.6853 21.5876 19.4115L23.6307 18.3594C23.6233 18.2942 23.6246 18.2263 23.6369 18.1563Z" fill="#F6911D"/>
<path d="M36.6152 37.9876C36.6501 36.9098 35.7784 36.0148 34.7059 36.0148H34.702V36.0141C34.7538 36.0141 34.8067 36.014 34.8614 36.014C35.9025 36.0133 36.7457 35.1683 36.7451 34.1275C36.7442 33.0861 35.8995 32.2484 34.8585 32.2491H27.0153C26.7967 32.2491 26.6419 32.0356 26.7099 31.8279L27.3973 29.7295C27.9824 27.9437 27.8784 26.7276 27.8784 24.6361C27.8784 23.4058 26.881 22.4084 25.6507 22.4084C24.5331 22.4084 23.5885 23.2365 23.4422 24.3444C23.2802 25.5703 23.1712 27.7502 21.1445 29.7017L19.7142 31.079C18.9173 31.8463 17.8542 32.2748 16.7481 32.2748H15.3086V44.6401C15.8196 44.64 16.4072 44.6398 16.408 44.6398C19.1389 44.638 18.8893 47.3425 22.2854 47.3394H33.8446C34.8845 47.3394 35.7274 46.4965 35.7274 45.4566V45.4565C35.7274 44.4166 34.8845 43.5737 33.8446 43.5737H34.1762C35.1996 43.5737 36.0732 42.778 36.1073 41.7553C36.1429 40.686 35.2867 39.808 34.2256 39.808H34.6835C35.7077 39.808 36.5822 39.0113 36.6152 37.9876Z" stroke="black" stroke-width="1.02997" stroke-miterlimit="10" stroke-linecap="round" stroke-linejoin="round"/>
<path d="M34.0166 43.5742H31.707" stroke="black" stroke-width="1.02997" stroke-miterlimit="10" stroke-linecap="round" stroke-linejoin="round"/>
<path d="M34.0659 39.8086H31.707" stroke="black" stroke-width="1.02997" stroke-miterlimit="10" stroke-linecap="round" stroke-linejoin="round"/>
<path d="M34.7017 36.0146H31.707" stroke="black" stroke-width="1.02997" stroke-miterlimit="10" stroke-linecap="round" stroke-linejoin="round"/>
<path d="M45.6419 13.86C45.9024 13.606 45.7587 13.1635 45.3985 13.1112L42.6172 12.707C42.4742 12.6863 42.3506 12.5964 42.2867 12.4669L41.0428 9.94662C40.8818 9.62029 40.4165 9.62029 40.2555 9.94662L39.0117 12.4669C38.9477 12.5964 38.8241 12.6863 38.6811 12.707L35.8998 13.1112C35.5397 13.1635 35.3959 13.606 35.6565 13.86L37.669 15.8218C37.7725 15.9227 37.8198 16.0679 37.7953 16.2104L37.3202 18.9805C37.2587 19.3391 37.6351 19.6126 37.9571 19.4432L40.4449 18.1354C40.5728 18.0682 40.7255 18.0682 40.8535 18.1354L43.3411 19.4432C43.6632 19.6126 44.0397 19.3391 43.9781 18.9805L43.503 16.2104C43.4786 16.0679 43.5258 15.9227 43.6293 15.8218L45.6419 13.86Z" stroke="black" stroke-width="1.02997" stroke-miterlimit="10" stroke-linecap="round" stroke-linejoin="round"/>
<path d="M16.3958 13.86C16.6564 13.606 16.5126 13.1635 16.1525 13.1112L13.3712 12.707C13.2282 12.6863 13.1045 12.5964 13.0406 12.4669L11.7968 9.94662C11.6358 9.62029 11.1704 9.62029 11.0094 9.94662L9.76556 12.4669C9.70158 12.5964 9.578 12.6863 9.435 12.707L6.6537 13.1112C6.29362 13.1635 6.14983 13.606 6.41042 13.86L8.42303 15.8218C8.52648 15.9227 8.57367 16.0679 8.54924 16.2104L8.0741 18.9805C8.01267 19.3391 8.3891 19.6126 8.71114 19.4432L11.1988 18.1354C11.3267 18.0682 11.4794 18.0682 11.6074 18.1354L14.0951 19.4432C14.4171 19.6126 14.7936 19.3391 14.7321 18.9805L14.2569 16.2104C14.2325 16.0679 14.2797 15.9227 14.3832 15.8218L16.3958 13.86Z" stroke="black" stroke-width="1.02997" stroke-miterlimit="10" stroke-linecap="round" stroke-linejoin="round"/>
<path d="M12.3043 45.9932H14.3317C14.8697 45.9932 15.3058 45.5571 15.3058 45.0191V32.1377C15.3058 31.5998 14.8697 31.1636 14.3317 31.1636H7.20065C6.66268 31.1636 6.22656 31.5998 6.22656 32.1377V45.0191C6.22656 45.5571 6.66268 45.9932 7.20065 45.9932H9.22812" stroke="black" stroke-width="1.02997" stroke-miterlimit="10" stroke-linecap="round" stroke-linejoin="round"/>
<path d="M31.7651 12.6588L34.0989 10.3839C34.5202 9.97329 34.2877 9.25777 33.7055 9.17313L29.2084 8.51967C28.9771 8.48609 28.7773 8.3409 28.6739 8.13136L26.6626 4.05632C26.4023 3.52871 25.6499 3.52871 25.3896 4.05632L23.3784 8.13136C23.275 8.3409 23.0752 8.48609 22.844 8.51967L18.3469 9.17313C17.7646 9.25777 17.5321 9.97329 17.9535 10.3839L21.2075 13.556C21.3749 13.719 21.4512 13.9539 21.4117 14.1842L20.6435 18.6632C20.544 19.2431 21.1527 19.6853 21.6735 19.4115L25.6958 17.2969C25.9026 17.1881 26.1496 17.1881 26.3564 17.2969L30.3788 19.4115C30.8996 19.6853 31.5082 19.2431 31.4087 18.6632L30.9065 15.735" stroke="black" stroke-width="1.02997" stroke-miterlimit="10" stroke-linecap="round" stroke-linejoin="round"/>
</g>
</svg>
