<svg width="51" height="50" viewBox="0 0 51 50" fill="none" xmlns="http://www.w3.org/2000/svg">
<path d="M41.0668 14.1751C38.2834 14.1751 36.0308 11.9226 36.0308 9.13923C36.0308 8.31517 36.2322 7.50935 36.6167 6.77686H7.26213C5.94343 6.77686 4.86328 7.85736 4.86328 9.17571V41.0393C4.86328 42.358 5.94343 43.4385 7.26213 43.4385H40.3343C41.6526 43.4385 42.7331 42.358 42.7331 41.0393V13.8822C42.202 14.0836 41.6344 14.1751 41.0668 14.1751Z" fill="white"/>
<path d="M8.40004 16.1714H39.4031C39.7511 16.1714 40.0258 16.4461 40.0258 16.7941V23.0017C40.0258 23.3497 39.7511 23.6244 39.4031 23.6244H8.40004C8.05203 23.6244 7.77734 23.3497 7.77734 23.0017V16.7941C7.79594 16.4643 8.07063 16.1714 8.40004 16.1714Z" fill="#F9B668"/>
<path d="M8.40004 28.3672H15.7618C16.1095 28.3672 16.3842 28.6419 16.3842 28.9899V32.0479C16.3842 32.3959 16.1095 32.6706 15.7618 32.6706H8.40004C8.05203 32.6706 7.77734 32.3959 7.77734 32.0479V28.9899C7.79594 28.6419 8.07063 28.3672 8.40004 28.3672Z" fill="#56AF44"/>
<path d="M20.2278 28.3672H27.5896C27.9376 28.3672 28.2123 28.6419 28.2123 28.9899V32.0479C28.2123 32.3959 27.9376 32.6706 27.5896 32.6706H20.2278C19.8802 32.6706 19.6055 32.3959 19.6055 32.0479V28.9899C19.6055 28.6419 19.8802 28.3672 20.2278 28.3672Z" fill="#008ED3"/>
<path d="M32.0403 28.3672H39.4021C39.7501 28.3672 40.0248 28.6419 40.0248 28.9899V32.0479C40.0248 32.3959 39.7501 32.6706 39.4021 32.6706H32.0403C31.6927 32.6706 31.418 32.3959 31.418 32.0479V28.9899C31.418 28.6419 31.6927 28.3672 32.0403 28.3672Z" fill="#F6911D"/>
<path d="M46.1031 9.12087C46.1031 11.9021 43.8484 14.1568 41.0672 14.1568C38.286 14.1568 36.0312 11.9021 36.0312 9.12087C36.0312 6.33968 38.286 4.08496 41.0672 4.08496C43.8484 4.08496 46.1031 6.33968 46.1031 9.12087Z" fill="#F9B668"/>
<path d="M36.0126 9.12116C36.0126 8.2971 36.214 7.49128 36.5985 6.75879H7.26213C5.94343 6.75879 4.86328 7.83929 4.86328 9.15764V11.5933H36.6718C36.2504 10.8608 36.0126 9.99994 36.0126 9.12116Z" fill="#F9B668"/>
<path d="M18.2322 46.7348H17.9024V46.4051C17.9024 46.1486 17.7011 45.9473 17.4446 45.9473C17.1882 45.9473 16.9868 46.1486 16.9868 46.4051V46.7348H16.657C16.4009 46.7348 16.1992 46.9362 16.1992 47.1927C16.1992 47.4487 16.4009 47.6505 16.657 47.6505H16.9868V47.9799C16.9868 48.2363 17.1882 48.4377 17.4446 48.4377C17.7011 48.4377 17.9024 48.2363 17.9024 47.9799V47.6505H18.2322C18.4883 47.6505 18.69 47.4487 18.69 47.1927C18.69 46.9362 18.4883 46.7348 18.2322 46.7348Z" fill="#FFCD29"/>
<path d="M35.758 1.92401C35.758 1.88753 35.7398 1.86929 35.7398 1.83245C35.7216 1.81421 35.7216 1.77772 35.703 1.75913C35.6847 1.74088 35.6665 1.7044 35.6482 1.68616C35.4651 1.52128 35.1904 1.52128 35.0073 1.68616C34.9891 1.7044 34.9705 1.72264 34.9522 1.75913C34.934 1.77772 34.9157 1.81421 34.9157 1.83245C34.8975 1.86929 34.8975 1.88753 34.8975 1.92401C34.8975 1.96085 34.8789 1.97909 34.8789 2.01557C34.8789 2.05241 34.8789 2.07065 34.8975 2.10713C34.8975 2.14397 34.9157 2.16221 34.9157 2.1987C34.934 2.23553 34.934 2.25378 34.9522 2.27202C34.9705 2.29026 34.9891 2.3271 35.0073 2.34534C35.1904 2.52846 35.4651 2.52846 35.6482 2.34534C35.6665 2.3271 35.6847 2.3085 35.703 2.27202C35.7216 2.25378 35.7398 2.21694 35.7398 2.1987C35.758 2.18045 35.758 2.14397 35.758 2.10713C35.758 2.07065 35.758 2.05241 35.7763 2.01557C35.758 1.97909 35.758 1.94225 35.758 1.92401Z" fill="#EA4647"/>
<path d="M13.8927 45.7457C13.8927 45.7088 13.8745 45.6906 13.8745 45.6541C13.8562 45.6359 13.8562 45.599 13.838 45.5808C13.8194 45.5625 13.8012 45.5257 13.7829 45.5075C13.5998 45.3426 13.3251 45.3426 13.142 45.5075C13.1238 45.5257 13.1055 45.5443 13.0869 45.5808C13.0504 45.6359 13.0322 45.6906 13.0139 45.7457C12.9954 45.8004 12.9954 45.8737 13.0139 45.9288C13.0139 45.9653 13.0322 45.9835 13.0322 46.0203C13.0504 46.0568 13.0504 46.0751 13.0687 46.0937C13.0869 46.1119 13.1055 46.1484 13.1238 46.1666C13.3069 46.3498 13.5816 46.3498 13.7647 46.1666C13.7829 46.1484 13.8012 46.1301 13.8194 46.0937C13.838 46.0751 13.8562 46.0386 13.8562 46.0203C13.8745 46.0021 13.8745 45.9653 13.8745 45.9288C13.8927 45.8737 13.8927 45.8004 13.8927 45.7457Z" fill="#6DCC6D"/>
<path d="M32.2408 3.95677C31.6363 3.84697 31.1603 3.37091 31.0319 2.74822C31.0319 2.72998 31.0136 2.72998 30.9954 2.72998C30.9771 2.72998 30.9771 2.74822 30.9771 2.74822C30.8673 3.35267 30.3909 3.82872 29.7686 3.95677C29.75 3.95677 29.75 3.97537 29.75 3.99361C29.75 4.01185 29.7686 4.01185 29.7686 4.01185C30.3727 4.12165 30.8487 4.5977 30.9771 5.2204C30.9771 5.23864 30.9954 5.23864 31.0136 5.23864C31.0319 5.23864 31.0319 5.2204 31.0319 5.2204C31.142 4.6163 31.6181 4.13989 32.2408 4.01185C32.259 4.01185 32.259 3.99361 32.259 3.97537C32.259 3.95677 32.259 3.95677 32.2408 3.95677Z" fill="#55ACD5"/>
<path d="M40.335 43.8961H7.26291C5.68812 43.8961 4.40625 42.6142 4.40625 41.0391V9.17551C4.40625 7.60072 5.68812 6.31885 7.26291 6.31885H36.5992C36.8557 6.31885 37.057 6.52021 37.057 6.77666C37.057 6.84998 37.0388 6.9233 37.0023 6.99662C36.6543 7.6558 36.4712 8.38829 36.4712 9.13903C36.4712 11.6663 38.522 13.7171 41.0675 13.7171C41.5804 13.7171 42.093 13.6256 42.5876 13.4607C42.8254 13.3691 43.0819 13.4975 43.1735 13.7354C43.1917 13.7904 43.1917 13.8269 43.1917 13.882V41.0391C43.1917 42.6142 41.9098 43.8961 40.335 43.8961ZM7.26291 7.23447C6.18241 7.23447 5.32187 8.11361 5.32187 9.17551V41.0391C5.32187 42.1196 6.20065 42.9805 7.26291 42.9805H40.335C41.4155 42.9805 42.2761 42.1013 42.2761 41.0391V14.5047C39.3096 15.1821 36.3614 13.3144 35.7019 10.3476C35.464 9.30391 35.5373 8.22341 35.9036 7.23447H7.26291Z" fill="#231F20"/>
<path d="M36.6726 12.069H4.86406C4.60761 12.069 4.40625 11.8676 4.40625 11.6112V9.17551C4.40625 7.60072 5.68812 6.31885 7.26291 6.31885H36.5992C36.8557 6.31885 37.057 6.52021 37.057 6.77666C37.057 6.84998 37.0388 6.9233 37.0023 6.99662C36.6543 7.6558 36.4712 8.38829 36.4712 9.13903C36.4712 9.9266 36.6726 10.7138 37.0753 11.3916C37.2037 11.6112 37.1304 11.8859 36.9108 12.0139C36.8374 12.0508 36.7459 12.069 36.6726 12.069ZM5.32187 11.1534H35.9583C35.464 9.88977 35.4458 8.49809 35.9036 7.23447H7.26291C6.18241 7.23447 5.32187 8.11361 5.32187 9.17551V11.1534Z" fill="#231F20"/>
<path d="M7.79504 9.65227C7.7582 9.65227 7.73996 9.65227 7.70348 9.65227C7.66664 9.65227 7.6484 9.63367 7.61191 9.63367C7.59332 9.61543 7.55683 9.61543 7.53859 9.59719C7.52035 9.57895 7.48351 9.56071 7.46527 9.54211C7.44703 9.52387 7.42879 9.48739 7.41019 9.46915C7.39195 9.45055 7.37371 9.41407 7.37371 9.39583C7.35547 9.37758 7.35547 9.34075 7.35547 9.30426C7.35547 9.26742 7.35547 9.24918 7.35547 9.2127C7.35547 9.17586 7.35547 9.15762 7.35547 9.12114C7.37371 9.06606 7.39195 9.01134 7.42879 8.95626C7.44703 8.93802 7.46527 8.90118 7.48351 8.88294C7.50175 8.86469 7.52035 8.84645 7.55683 8.82821C7.61191 8.79137 7.66664 8.77313 7.72172 8.75489C7.77644 8.73665 7.84976 8.73665 7.90484 8.75489C7.95956 8.77313 8.01464 8.79137 8.06972 8.82821C8.08796 8.84645 8.12445 8.86469 8.14269 8.88294C8.16129 8.90118 8.17953 8.91977 8.19777 8.95626C8.23425 9.01134 8.25285 9.06606 8.27109 9.12114V9.2127C8.27109 9.34075 8.21601 9.45055 8.14269 9.54211C8.12445 9.56071 8.10621 9.57895 8.06972 9.59719C8.05113 9.61543 8.01464 9.63367 7.9964 9.63367C7.95956 9.65227 7.94132 9.65227 7.90484 9.65227C7.84976 9.65227 7.81328 9.65227 7.79504 9.65227Z" fill="#231F20"/>
<path d="M9.55156 9.65217C9.29511 9.65217 9.09375 9.45045 9.09375 9.19436C9.09375 9.06596 9.14847 8.95616 9.22179 8.8646C9.24003 8.84635 9.25863 8.82811 9.29511 8.80952C9.31336 8.79127 9.3502 8.77303 9.36844 8.77303C9.40492 8.75479 9.42316 8.75479 9.46 8.75479C9.69784 8.69971 9.95429 8.8646 9.99113 9.1028C9.99113 9.13928 10.0094 9.15752 10.0094 9.19436C10.0094 9.45045 9.80801 9.65217 9.55156 9.65217Z" fill="#231F20"/>
<path d="M11.3263 9.65195C11.1982 9.65195 11.0884 9.59687 10.9969 9.52355C10.9783 9.50531 10.96 9.48706 10.9418 9.45023C10.9236 9.43198 10.9053 9.3955 10.9053 9.37726C10.8867 9.35866 10.8867 9.32218 10.8867 9.2857C10.8867 9.24886 10.8867 9.23062 10.8867 9.19414C10.8867 8.93769 11.0884 8.73633 11.3445 8.73633C11.3814 8.73633 11.3996 8.73633 11.4361 8.75457C11.4912 8.77281 11.5463 8.79105 11.601 8.82789C11.6192 8.84613 11.6561 8.86437 11.6743 8.88261C11.7659 8.97417 11.8023 9.08398 11.8023 9.21238V9.30394C11.8023 9.34042 11.7841 9.35866 11.7841 9.3955C11.7659 9.43198 11.7659 9.45023 11.7476 9.46882C11.7294 9.48706 11.7108 9.52355 11.6925 9.54179C11.6743 9.56039 11.6561 9.57863 11.6192 9.59687C11.601 9.61511 11.5645 9.63335 11.5463 9.63335C11.5094 9.65195 11.4912 9.65195 11.4547 9.65195C11.3814 9.65195 11.3445 9.65195 11.3263 9.65195Z" fill="#231F20"/>
<path d="M22.0242 26.5725C21.7678 26.5725 21.5664 26.3711 21.5664 26.1147C21.5664 25.9866 21.6215 25.8768 21.6944 25.7853C21.8776 25.6204 22.1523 25.6204 22.3354 25.7853C22.354 25.8035 22.3722 25.8218 22.3905 25.8586C22.4269 25.9133 22.4455 25.9684 22.4638 26.0231C22.4638 26.06 22.4638 26.0782 22.482 26.1147C22.482 26.3529 22.2807 26.5725 22.0242 26.5725Z" fill="#231F20"/>
<path d="M23.8003 26.5725C23.6722 26.5725 23.5624 26.5178 23.4709 26.4445C23.4526 26.4262 23.434 26.408 23.4158 26.3711C23.3793 26.3164 23.3611 26.2613 23.3425 26.2063C23.3425 26.1698 23.3425 26.1515 23.3242 26.1147C23.3242 25.9866 23.3793 25.8768 23.4526 25.7853C23.6357 25.6204 23.9104 25.6204 24.0936 25.7853C24.2767 25.9684 24.2767 26.2613 24.0936 26.4262C24.0385 26.5178 23.9287 26.5725 23.8003 26.5725Z" fill="#231F20"/>
<path d="M25.557 26.5723C25.5201 26.5723 25.5019 26.5723 25.4654 26.554C25.4286 26.554 25.4103 26.5358 25.3738 26.5358C25.337 26.5176 25.3187 26.5176 25.3005 26.4993C25.2823 26.4807 25.2454 26.4625 25.2272 26.4442C25.0441 26.2611 25.0441 25.9682 25.2272 25.8033C25.2454 25.7851 25.2637 25.7668 25.3005 25.7482C25.4836 25.6202 25.7215 25.6567 25.8864 25.8033C26.0695 25.9864 26.0695 26.2794 25.8864 26.4442C25.7948 26.5176 25.685 26.5723 25.557 26.5723Z" fill="#231F20"/>
<path d="M34.2352 9.65195H16.7469C16.4908 9.65195 16.2891 9.45023 16.2891 9.19414C16.2891 8.93769 16.4908 8.73633 16.7469 8.73633H34.2352C34.4917 8.73633 34.693 8.93769 34.693 9.19414C34.693 9.45023 34.4917 9.65195 34.2352 9.65195Z" fill="#231F20"/>
<path d="M41.0679 14.6329C38.0282 14.6329 35.5742 12.1608 35.5742 9.13923C35.5742 6.11768 38.0464 3.64551 41.0679 3.64551C44.0895 3.64551 46.5617 6.11768 46.5617 9.13923C46.5617 12.1608 44.1077 14.6329 41.0679 14.6329ZM41.0679 4.54289C38.5407 4.54289 36.4898 6.59373 36.4898 9.12099C36.4898 11.6479 38.5407 13.6991 41.0679 13.6991C43.5952 13.6991 45.646 11.6479 45.646 9.12099C45.646 6.59373 43.5952 4.54289 41.0679 4.54289Z" fill="#231F20"/>
<path d="M41.0672 11.7947C40.8107 11.7947 40.6094 11.5933 40.6094 11.3368V6.92363C40.6094 6.66719 40.8107 6.46582 41.0672 6.46582C41.3236 6.46582 41.525 6.66719 41.525 6.92363V11.3551C41.525 11.5933 41.3236 11.7947 41.0672 11.7947Z" fill="#231F20"/>
<path d="M43.2838 9.57871H38.8523C38.5959 9.57871 38.3945 9.37734 38.3945 9.1209C38.3945 8.86445 38.5959 8.66309 38.8523 8.66309H43.2838C43.5402 8.66309 43.7416 8.86445 43.7416 9.1209C43.7416 9.37734 43.522 9.57871 43.2838 9.57871Z" fill="#231F20"/>
<path d="M39.3999 24.082H8.39691C7.81106 24.082 7.31641 23.606 7.31641 23.0015V16.7939C7.31641 16.2077 7.79281 15.7134 8.39691 15.7134H39.3999C39.9858 15.7134 40.4804 16.1894 40.4804 16.7939V23.0015C40.4618 23.606 39.9858 24.082 39.3999 24.082ZM8.39691 16.629C8.30535 16.629 8.23203 16.7023 8.23203 16.7939V23.0015C8.23203 23.0931 8.30535 23.1664 8.39691 23.1664H39.3999C39.4915 23.1664 39.5648 23.0931 39.5648 23.0015V16.7939C39.5648 16.7023 39.4915 16.629 39.3999 16.629H8.39691Z" fill="#231F20"/>
<path d="M15.7587 33.1287H8.39691C7.81106 33.1287 7.31641 32.6527 7.31641 32.0482V28.9902C7.31641 28.404 7.79281 27.9097 8.39691 27.9097H15.7587C16.3446 27.9097 16.8389 28.3857 16.8389 28.9902V32.0482C16.8389 32.6344 16.3628 33.1287 15.7587 33.1287ZM8.39691 28.8253C8.30535 28.8253 8.23203 28.8986 8.23203 28.9902V32.0482C8.23203 32.1398 8.30535 32.2131 8.39691 32.2131H15.7587C15.8503 32.2131 15.9232 32.1398 15.9232 32.0482V28.9902C15.9232 28.8986 15.8503 28.8253 15.7587 28.8253H8.39691Z" fill="#231F20"/>
<path d="M27.5904 33.1287H20.2286C19.6427 33.1287 19.1484 32.6527 19.1484 32.0482V28.9902C19.1484 28.404 19.6245 27.9097 20.2286 27.9097H27.5904C28.1762 27.9097 28.6709 28.3857 28.6709 28.9902V32.0482C28.6523 32.6344 28.1762 33.1287 27.5904 33.1287ZM20.2286 28.8253C20.137 28.8253 20.0641 28.8986 20.0641 28.9902V32.0482C20.0641 32.1398 20.137 32.2131 20.2286 32.2131H27.5904C27.6819 32.2131 27.7553 32.1398 27.7553 32.0482V28.9902C27.7553 28.8986 27.6819 28.8253 27.5904 28.8253H20.2286Z" fill="#231F20"/>
<path d="M39.4029 33.1287H32.0411C31.4552 33.1287 30.9609 32.6527 30.9609 32.0482V28.9902C30.9609 28.404 31.437 27.9097 32.0411 27.9097H39.4029C39.9887 27.9097 40.4834 28.3857 40.4834 28.9902V32.0482C40.4648 32.6344 39.9887 33.1287 39.4029 33.1287ZM32.0411 28.8253C31.9495 28.8253 31.8766 28.8986 31.8766 28.9902V32.0482C31.8766 32.1398 31.9495 32.2131 32.0411 32.2131H39.4029C39.4944 32.2131 39.5678 32.1398 39.5678 32.0482V28.9902C39.5678 28.8986 39.4944 28.8253 39.4029 28.8253H32.0411Z" fill="#231F20"/>
<path d="M40.007 35.3995H31.4187C31.1623 35.3995 30.9609 35.1981 30.9609 34.9417C30.9609 34.6853 31.1623 34.4839 31.4187 34.4839H40.007C40.2634 34.4839 40.4648 34.6853 40.4648 34.9417C40.4648 35.1981 40.2634 35.3995 40.007 35.3995Z" fill="#231F20"/>
<path d="M40.007 37.6148H31.4187C31.1623 37.6148 30.9609 37.4135 30.9609 37.157C30.9609 36.9006 31.1623 36.6992 31.4187 36.6992H40.007C40.2634 36.6992 40.4648 36.9006 40.4648 37.157C40.4648 37.4135 40.2634 37.6148 40.007 37.6148Z" fill="#231F20"/>
<path d="M40.007 39.8126H31.4187C31.1623 39.8126 30.9609 39.6112 30.9609 39.3548C30.9609 39.0983 31.1623 38.897 31.4187 38.897H40.007C40.2634 38.897 40.4648 39.0983 40.4648 39.3548C40.4648 39.6112 40.2634 39.8126 40.007 39.8126Z" fill="#231F20"/>
<path d="M28.1945 35.3995H19.6062C19.3498 35.3995 19.1484 35.1981 19.1484 34.9417C19.1484 34.6853 19.3498 34.4839 19.6062 34.4839H28.1945C28.4509 34.4839 28.6523 34.6853 28.6523 34.9417C28.6523 35.1981 28.4509 35.3995 28.1945 35.3995Z" fill="#231F20"/>
<path d="M28.1945 37.6148H19.6062C19.3498 37.6148 19.1484 37.4135 19.1484 37.157C19.1484 36.9006 19.3498 36.6992 19.6062 36.6992H28.1945C28.4509 36.6992 28.6523 36.9006 28.6523 37.157C28.6523 37.4135 28.4509 37.6148 28.1945 37.6148Z" fill="#231F20"/>
<path d="M28.1945 39.8126H19.6062C19.3498 39.8126 19.1484 39.6112 19.1484 39.3548C19.1484 39.0983 19.3498 38.897 19.6062 38.897H28.1945C28.4509 38.897 28.6523 39.0983 28.6523 39.3548C28.6523 39.6112 28.4509 39.8126 28.1945 39.8126Z" fill="#231F20"/>
<path d="M16.382 35.3995H7.79375C7.5373 35.3995 7.33594 35.1981 7.33594 34.9417C7.33594 34.6853 7.5373 34.4839 7.79375 34.4839H16.382C16.6384 34.4839 16.8398 34.6853 16.8398 34.9417C16.8398 35.1981 16.6384 35.3995 16.382 35.3995Z" fill="#231F20"/>
<path d="M16.382 37.6148H7.79375C7.5373 37.6148 7.33594 37.4135 7.33594 37.157C7.33594 36.9006 7.5373 36.6992 7.79375 36.6992H16.382C16.6384 36.6992 16.8398 36.9006 16.8398 37.157C16.8398 37.4135 16.6384 37.6148 16.382 37.6148Z" fill="#231F20"/>
<path d="M16.382 39.8126H7.79375C7.5373 39.8126 7.33594 39.6112 7.33594 39.3548C7.33594 39.0983 7.5373 38.897 7.79375 38.897H16.382C16.6384 38.897 16.8398 39.0983 16.8398 39.3548C16.8398 39.6112 16.6384 39.8126 16.382 39.8126Z" fill="#231F20"/>
</svg>
