<svg width="51" height="50" viewBox="0 0 51 50" fill="none" xmlns="http://www.w3.org/2000/svg">
<path fill-rule="evenodd" clip-rule="evenodd" d="M44.2252 22.0439V43.1089C44.2252 45.3157 42.4197 47.1213 40.2128 47.1213H12.0593C9.85241 47.1213 8.04688 45.3157 8.04688 43.1089V22.0439H44.2252Z" fill="#F8F8F8"/>
<path fill-rule="evenodd" clip-rule="evenodd" d="M6.53677 16.8408L8.04396 22.0438L42.7937 11.9773L41.2865 6.77421C40.6723 4.65453 38.4359 3.42269 36.3162 4.0369L9.27409 11.8705C7.15441 12.4847 5.92291 14.7211 6.53677 16.8408Z" fill="#F9B668"/>
<path fill-rule="evenodd" clip-rule="evenodd" d="M8.04688 22.0439H44.2252V30.2693H8.04688V22.0439Z" fill="#F9B668"/>
<path fill-rule="evenodd" clip-rule="evenodd" d="M31.331 38.6055L27.4704 36.3767L23.6094 34.1475V43.0636L27.4704 40.8344L31.331 38.6055Z" fill="#F9B668"/>
<path fill-rule="evenodd" clip-rule="evenodd" d="M44.2237 21.1649H14.2379L43.0396 12.8214C43.2634 12.7565 43.4522 12.6051 43.5649 12.4012C43.6775 12.1969 43.7042 11.9566 43.6394 11.7328L42.1322 6.5297C41.53 4.45157 39.595 3 37.4266 3C36.9696 3 36.5144 3.06489 36.0729 3.1926L9.03106 11.0262C7.78033 11.3884 6.74384 12.2199 6.11179 13.367C5.48007 14.514 5.33176 15.8348 5.69396 17.0852L7.16647 22.1684V43.1087C7.16647 45.8058 9.36065 48 12.0574 48H22.6187C23.1042 48 23.4976 47.6066 23.4976 47.1211C23.4976 46.6356 23.1042 46.2422 22.6187 46.2422H12.0578C10.3298 46.2422 8.92429 44.8366 8.92429 43.1087V31.148H13.427H13.429H13.4307H20.3137H20.3157H20.3178H27.2007H27.2028H27.2048H34.0878H34.0898H34.0916H43.3448V43.1087C43.3448 44.8366 41.9392 46.2422 40.2113 46.2422H29.65C29.1649 46.2422 28.7711 46.6356 28.7711 47.1211C28.7711 47.6066 29.1649 48 29.65 48H40.2113C42.9084 48 45.1026 45.8058 45.1026 43.1087V22.0438C45.1026 21.5583 44.7092 21.1649 44.2237 21.1649ZM28.7258 29.3902L32.4601 22.9227H37.3171L33.5831 29.3902H28.7258ZM21.8387 29.3902L25.573 22.9227H30.43L26.696 29.3902H21.8387ZM14.952 29.3902L18.686 22.9227H23.5433L19.809 29.3902H14.952ZM18.2197 18.0121L11.9665 12.006L16.6518 10.6489C16.6848 10.697 16.7232 10.7423 16.7671 10.7845L23.0204 16.7906L18.3351 18.1477C18.3021 18.0997 18.2633 18.054 18.2197 18.0121ZM29.9971 6.95199L36.2504 12.9581L31.565 14.3152C31.5321 14.2672 31.4936 14.2215 31.4497 14.1796L25.1964 8.17353L29.8817 6.81638C29.9147 6.86444 29.9531 6.90976 29.9971 6.95199ZM23.3819 8.86842L29.6352 14.8742L24.9499 16.2317C24.9169 16.1836 24.8785 16.1379 24.8345 16.096L18.5813 10.09L23.2666 8.7328C23.2999 8.78053 23.3383 8.82619 23.3819 8.86842ZM36.5621 4.88107C36.8443 4.79935 37.1351 4.75781 37.4266 4.75781C38.8174 4.75781 40.0578 5.68753 40.4437 7.01894L41.7065 11.3774L38.1802 12.3988C38.1469 12.3507 38.1084 12.3054 38.0645 12.2632L31.8115 6.25745L36.5621 4.88107ZM7.65159 14.215C8.05671 13.4792 8.72035 12.9464 9.52029 12.7147L10.0367 12.565C10.07 12.613 10.1084 12.6587 10.152 12.7006L16.4053 18.7067L8.64516 20.9548L7.38242 16.5963C7.15068 15.7967 7.24647 14.9511 7.65159 14.215ZM8.92429 22.9227H16.6563L12.9223 29.3902H8.92429V22.9227ZM35.6128 29.3902L39.3468 22.9227H43.3448V29.3902H35.6128Z" fill="black"/>
<path fill-rule="evenodd" clip-rule="evenodd" d="M32.21 38.6054C32.21 38.2913 32.0424 38.0012 31.7705 37.8443L24.0488 33.3862C23.7769 33.2293 23.4418 33.2293 23.1699 33.3862C22.898 33.5431 22.7305 33.8332 22.7305 34.1474V43.0635C22.7305 43.3773 22.898 43.6674 23.1699 43.8243C23.3059 43.9029 23.4576 43.9424 23.6094 43.9424C23.7611 43.9424 23.9129 43.9029 24.0488 43.8243L31.7705 39.3666C32.0424 39.2097 32.21 38.9196 32.21 38.6054ZM24.4883 41.5412V35.6697L29.5732 38.6054L24.4883 41.5412Z" fill="black"/>
<path fill-rule="evenodd" clip-rule="evenodd" d="M26.1328 46.2422C25.6487 46.2422 25.2539 46.637 25.2539 47.1211C25.2539 47.6052 25.6487 48 26.1328 48C26.6172 48 27.0117 47.6052 27.0117 47.1211C27.0117 46.637 26.6172 46.2422 26.1328 46.2422Z" fill="black"/>
</svg>
